<svg width="536" height="111" viewBox="0 0 536 111" fill="none" xmlns="http://www.w3.org/2000/svg">
<path d="M72.0901 25.3452V28.5296C72.0901 28.8227 72.3257 29.0603 72.6164 29.0603H75.7743C76.065 29.0603 76.3007 28.8227 76.3007 28.5296V25.3452C76.3007 25.0521 76.065 24.8145 75.7743 24.8145H72.6164C72.3257 24.8145 72.0901 25.0521 72.0901 25.3452Z" fill="#3D8BF2"/>
<path d="M59.3976 0.530979V3.71536C59.3976 4.00848 59.6333 4.24609 59.924 4.24609H63.0819C63.3726 4.24609 63.6082 4.00848 63.6082 3.71536V0.530979C63.6082 0.237864 63.3726 0.000247955 63.0819 0.000247955H59.924C59.6333 0.000247955 59.3976 0.237864 59.3976 0.530979Z" fill="#3D8BF2"/>
<path d="M80.2478 14.7303H76.8925L72.0398 9.69102V6.35803C72.0398 5.18512 71.0977 4.23511 69.9346 4.23511H65.724C64.5608 4.23511 63.6187 5.18512 63.6187 6.35803V9.88739L59.1923 14.7303H56.1028C54.9397 14.7303 53.9976 15.6803 53.9976 16.8532V21.0991C53.9976 22.272 54.9397 23.222 56.1028 23.222H60.3134C61.4766 23.222 62.4187 22.272 62.4187 21.0991V17.4636L66.7477 12.7241H69.0924L73.9293 17.7475V21.0964C73.9293 22.2693 74.8714 23.2193 76.0346 23.2193H80.2452C81.4083 23.2193 82.3505 22.2693 82.3505 21.0964V16.8506C82.3505 15.6777 81.4083 14.7277 80.2452 14.7277L80.2478 14.7303Z" fill="#373748"/>
<path d="M42.5685 70.3965L42.4884 70.4767C37.5317 75.4334 37.5317 83.4683 42.4884 88.4223C44.2359 90.1698 51.7364 97.3684 51.7364 97.3684C51.7364 97.3684 57.2275 91.6314 60.434 88.4223L78.1311 70.7252C78.2433 70.6156 78.3609 70.5114 78.4731 70.3992C88.3865 60.4858 88.3865 44.4133 78.4731 34.4973C68.5597 24.5839 52.4846 24.5839 42.5712 34.4973C32.6578 44.4107 32.6578 60.4805 42.5659 70.3938L42.5685 70.3965Z" fill="url(#paint0_linear_97_973)"/>
<path d="M78.5186 34.4574C73.3321 29.2709 66.4569 26.8019 59.6618 27.0424C65.853 27.2615 71.98 29.7305 76.7069 34.4574C86.6203 44.3707 86.6203 60.4459 76.7069 70.3593C76.5947 70.4715 76.4798 70.5757 76.3649 70.6852L60.2283 88.1632C58.5369 89.8547 56.0224 92.6924 54.0211 94.9957C55.9049 93.0398 58.5876 90.2742 60.4768 88.385L78.1739 70.6879C78.2861 70.5784 78.4037 70.4742 78.5159 70.3619C88.4293 60.4486 88.4293 44.3761 78.5159 34.46L78.5186 34.4574Z" fill="#373748" fill-opacity="0.25"/>
<path opacity="0.25" d="M43.0707 60.1679L43.0119 60.2267C39.3805 63.858 39.3805 69.7446 43.0119 73.3759C46.6432 77.0072 52.5298 77.0072 56.1611 73.3759L69.126 60.411C69.2088 60.3309 69.2943 60.2561 69.3772 60.1732C76.6398 52.9105 76.6398 41.1347 69.3772 33.8721C62.1145 26.6094 50.3387 26.6094 43.076 33.8721C35.8133 41.1347 35.8133 52.9079 43.0733 60.1705L43.0707 60.1679Z" fill="#373748"/>
<path d="M42.3133 34.8376L23.4189 53.732C18.2014 58.9496 18.2014 67.4088 23.4189 72.6264C28.6365 77.8439 37.0958 77.8439 42.3133 72.6264L61.2077 53.732C66.4252 48.5145 66.4252 40.0552 61.2077 34.8376C55.9901 29.6201 47.5308 29.6201 42.3133 34.8376Z" fill="url(#paint1_linear_97_973)"/>
<path d="M23.2734 53.8859V53.8699L42.3092 34.8341C47.5278 29.6155 47.5278 21.1584 42.3092 15.9399L32.8635 6.49146L4.52085 34.8341C-0.697703 40.0526 -0.697703 48.5097 4.52085 53.7283L13.9693 63.1767L23.1906 72.3873C18.2579 67.2035 18.2847 59.0377 23.2734 53.8886V53.8859Z" fill="url(#paint2_linear_97_973)"/>
<path d="M42.3149 15.9399L32.8692 6.49146L32.8585 6.50214L41.3209 15.7742C46.5395 20.9928 46.0692 29.6155 40.8533 34.8341L21.8175 53.8699V53.8859C17.0105 58.8479 18.0472 66.5408 22.5416 71.7327L23.1936 72.3846C18.261 67.2008 18.2877 59.035 23.2765 53.8859V53.8699L42.3123 34.8341C47.5308 29.6155 47.5308 21.1584 42.3123 15.9399H42.3149Z" fill="#373748" fill-opacity="0.25"/>
<path d="M105.87 41.4063H121.618C121.618 43.1881 121.879 44.7095 122.4 45.9704C122.92 47.2314 123.798 48.1908 125.031 48.8487C126.265 49.5066 127.951 49.8356 130.089 49.8356C131.487 49.8356 132.693 49.6574 133.707 49.301C134.721 48.9447 135.503 48.4238 136.051 47.7385C136.599 47.0258 136.873 46.1486 136.873 45.1069C136.873 43.8734 136.311 42.8454 135.187 42.0231C134.091 41.2007 132.83 40.5428 131.405 40.0494C130.007 39.5285 128.869 39.1448 127.992 38.8981C125.771 38.2676 123.455 37.4863 121.043 36.5543C118.658 35.5949 116.424 34.3613 114.34 32.8537C112.285 31.346 110.612 29.4819 109.324 27.2616C108.036 25.0137 107.391 22.2999 107.391 19.1201C107.391 15.1453 108.323 11.8147 110.187 9.12833C112.079 6.41451 114.587 4.35859 117.712 2.96056C120.865 1.56254 124.332 0.863525 128.115 0.863525C133.186 0.863525 137.49 1.72701 141.026 3.45399C144.59 5.18096 147.304 7.62065 149.168 10.7731C151.059 13.8981 152.005 17.5576 152.005 21.7517H136.257C136.257 20.3537 136.037 19.1338 135.599 18.0921C135.16 17.0231 134.434 16.187 133.419 15.5839C132.405 14.9809 131.021 14.6793 129.266 14.6793C128.005 14.6793 126.909 14.8575 125.977 15.2139C125.072 15.5428 124.373 16.0362 123.88 16.6941C123.387 17.3246 123.14 18.1059 123.14 19.0379C123.14 20.2988 123.729 21.3542 124.908 22.204C126.087 23.0538 127.416 23.7254 128.896 24.2188C130.404 24.7122 131.624 25.0823 132.556 25.329C134.776 25.9046 137.052 26.6722 139.382 27.6316C141.739 28.591 143.918 29.852 145.919 31.4145C147.92 32.9496 149.538 34.8548 150.771 37.13C152.032 39.4052 152.663 42.1464 152.663 45.3537C152.663 48.5609 152.032 51.3158 150.771 53.6185C149.51 55.9211 147.825 57.8125 145.714 59.2928C143.603 60.7731 141.246 61.8696 138.641 62.5823C136.037 63.2676 133.392 63.6102 130.706 63.6102C125.552 63.6102 121.111 62.7742 117.383 61.102C113.683 59.4299 110.832 56.9491 108.831 53.6596C106.857 50.3701 105.87 46.2857 105.87 41.4063Z" fill="#373748"/>
<path d="M192.054 16.4885H209.242L186.257 82.1135H168.206L175.936 63.1579L158.173 16.4885H175.442L183.789 45.5592L192.054 16.4885Z" fill="#373748"/>
<path d="M231.651 63.1579H215.574V16.4885H230.829L231.651 26.7681V63.1579ZM259.283 30.88V63.1579H243.247V36.8833C243.247 35.5949 242.74 34.471 241.725 33.5116C240.738 32.5521 239.313 32.0724 237.449 32.0724C235.612 32.0724 234.187 32.5521 233.173 33.5116C232.158 34.4436 231.651 35.5675 231.651 36.8833L229.595 30.88C229.595 28.0839 230.185 25.5757 231.363 23.3553C232.542 21.1075 234.242 19.3257 236.462 18.0099C238.683 16.6941 241.342 16.0362 244.439 16.0362C247.537 16.0362 250.196 16.7078 252.416 18.051C254.637 19.3668 256.336 21.1486 257.515 23.3964C258.694 25.6168 259.283 28.1113 259.283 30.88Z" fill="#373748"/>
<path d="M288.765 16.0773C293.26 16.0773 297.084 16.8997 300.237 18.5444C303.389 20.1618 305.788 22.4233 307.433 25.329C309.105 28.2073 309.941 31.5516 309.941 35.3619H294.439C294.439 32.9222 293.863 31.2226 292.712 30.2632C291.561 29.2764 290.231 28.7829 288.724 28.7829C286.75 28.7829 285.187 29.6053 284.036 31.25C282.912 32.8948 282.35 35.7045 282.35 39.6793C282.35 43.7637 282.912 46.642 284.036 48.3142C285.187 49.9863 286.75 50.8224 288.724 50.8224C290.231 50.8224 291.561 50.329 292.712 49.3421C293.863 48.3553 294.439 46.6557 294.439 44.2435H309.941C309.941 48.0538 309.105 51.4118 307.433 54.3175C305.788 57.1958 303.389 59.4573 300.237 61.102C297.084 62.7193 293.26 63.528 288.765 63.528C283.639 63.528 279.404 62.5275 276.059 60.5264C272.742 58.4978 270.275 55.7018 268.658 52.1382C267.068 48.5746 266.273 44.4628 266.273 39.8027C266.273 35.1426 267.068 31.0307 268.658 27.4671C270.275 23.9035 272.742 21.1212 276.059 19.1201C279.404 17.0916 283.639 16.0773 288.765 16.0773Z" fill="#373748"/>
<path d="M336.174 16.0362C342.644 16.0362 347.564 17.5576 350.936 20.6004C354.308 23.6157 355.76 27.8235 355.294 33.2237L342.712 32.8125C342.712 31.4419 342.15 30.3728 341.026 29.6053C339.902 28.8378 338.326 28.454 336.298 28.454C334.626 28.454 333.282 28.7007 332.268 29.1941C331.281 29.6875 330.788 30.3591 330.788 31.2089C330.788 31.9765 331.309 32.6481 332.35 33.2237C333.419 33.772 335.242 34.3202 337.819 34.8685C344.042 36.2117 348.606 38.0346 351.512 40.3372C354.417 42.6398 355.87 45.5867 355.87 49.1777C355.87 52.056 355.02 54.5779 353.321 56.7435C351.649 58.8816 349.291 60.5538 346.248 61.7599C343.206 62.966 339.656 63.5691 335.599 63.5691C329.047 63.5691 323.99 62.0203 320.426 58.9227C316.862 55.7977 315.341 51.59 315.862 46.2994L328.444 46.7928C328.444 48.2731 329.075 49.3696 330.336 50.0823C331.596 50.795 333.515 51.1514 336.092 51.1514C337.901 51.1514 339.245 50.9732 340.122 50.6168C341.026 50.2605 341.479 49.7259 341.479 49.0132C341.479 48.136 340.834 47.3685 339.546 46.7106C338.258 46.0253 336.188 45.3811 333.337 44.778C327.471 43.4896 323.195 41.7215 320.508 39.4737C317.849 37.2259 316.52 34.2654 316.52 30.5921C316.52 26.0965 318.288 22.5466 321.824 19.9425C325.36 17.3383 330.144 16.0362 336.174 16.0362Z" fill="#373748"/>
<path d="M363.354 16.4885H379.39V80.7977H363.354V16.4885ZM406.199 39.8027C406.199 44.0516 405.637 47.9852 404.513 51.6037C403.389 55.1947 401.635 58.0867 399.25 60.2796C396.865 62.4726 393.768 63.5691 389.957 63.5691C386.229 63.5691 383.145 62.5275 380.706 60.4441C378.293 58.3334 376.21 55.5236 374.456 52.0148L378.65 47.6563C379.335 48.7802 380.116 49.6026 380.993 50.1234C381.898 50.6168 382.871 50.8635 383.913 50.8635C385.667 50.8635 387.147 49.9315 388.354 48.0675C389.587 46.2034 390.204 43.4485 390.204 39.8027C390.204 36.1568 389.587 33.4156 388.354 31.579C387.147 29.7424 385.667 28.8241 383.913 28.8241C382.871 28.8241 381.898 29.0708 380.993 29.5642C380.116 30.0576 379.335 30.8663 378.65 31.9902L374.456 27.6727C376.21 24.164 378.293 21.3542 380.706 19.2435C383.145 17.1327 386.229 16.0773 389.957 16.0773C393.768 16.0773 396.865 17.1738 399.25 19.3668C401.635 21.5324 403.389 24.4244 404.513 28.0428C405.637 31.6338 406.199 35.5538 406.199 39.8027Z" fill="#373748"/>
<path d="M426.84 44.4902C427.115 46.5461 427.786 48.1223 428.855 49.2188C429.924 50.2879 431.418 50.8224 433.337 50.8224C434.461 50.8224 435.489 50.562 436.421 50.0412C437.38 49.5203 438.066 48.7528 438.477 47.7385L453.855 49.9589C452.375 54.3449 449.894 57.7166 446.413 60.0741C442.931 62.4315 438.367 63.6102 432.72 63.6102C427.731 63.6102 423.592 62.6097 420.303 60.6086C417.013 58.5801 414.56 55.784 412.942 52.2204C411.325 48.6294 410.516 44.5039 410.516 39.8438C410.516 35.1563 411.339 31.0307 412.984 27.4671C414.628 23.9035 417.082 21.1212 420.344 19.1201C423.633 17.0916 427.718 16.0773 432.597 16.0773C437.175 16.0773 440.985 16.8038 444.028 18.2566C447.098 19.7095 449.497 21.738 451.224 24.3421C452.978 26.9463 454.157 29.9754 454.76 33.4293C455.363 36.8559 455.514 40.5428 455.212 44.4902H426.84ZM426.964 35.403H438.929C438.929 33.5938 438.614 32.2095 437.984 31.25C437.353 30.2906 436.558 29.6464 435.599 29.3175C434.667 28.9611 433.735 28.7829 432.803 28.7829C431.487 28.7829 430.185 29.2626 428.896 30.2221C427.608 31.1541 426.964 32.8811 426.964 35.403Z" fill="#373748"/>
<path d="M462.367 16.4885H477.581L478.403 26.7681V63.1579H462.367V16.4885ZM495.056 30.7977C494.124 30.6059 493.151 30.5099 492.137 30.5099C489.423 30.5099 487.024 31.25 484.941 32.7303C482.885 34.2106 481.281 36.2117 480.13 38.7336C478.979 41.2555 478.403 44.079 478.403 47.204H474.456C474.456 43.5307 474.73 39.8575 475.278 36.1842C475.826 32.4836 476.772 29.1119 478.115 26.0691C479.486 23.0264 481.391 20.5867 483.831 18.75C486.298 16.886 489.436 15.954 493.247 15.954C493.548 15.954 493.85 15.9677 494.151 15.9951C494.453 15.9951 494.754 16.0088 495.056 16.0362V30.7977Z" fill="#373748"/>
<path d="M533.173 50.9458L535.393 61.3076C533.611 62.0203 531.706 62.5823 529.678 62.9935C527.677 63.4046 525.675 63.6102 523.674 63.6102C520.961 63.6102 518.425 63.1716 516.067 62.2944C513.71 61.4173 511.805 59.9918 510.352 58.0181C508.899 56.0444 508.173 53.4129 508.173 50.1234V4.56418H524.209V48.2319C524.209 49.3559 524.593 50.2056 525.36 50.7813C526.155 51.3295 527.238 51.6037 528.609 51.6037C529.239 51.6037 529.938 51.5625 530.706 51.4803C531.501 51.3707 532.323 51.1925 533.173 50.9458ZM502.252 28.4951V19.3668H533.461V28.4951H502.252Z" fill="#373748"/>
<path d="M234.105 96.8888C234.455 97.3057 234.693 97.7125 234.819 98.1092C234.946 98.4957 235.009 99.1262 235.009 100.001V104.974C235.009 105.391 235.082 105.686 235.228 105.859C235.383 106.042 235.665 106.149 236.074 106.179C236.482 106.22 236.818 106.388 237.08 106.683C237.343 106.978 237.474 107.339 237.474 107.766C237.474 108.213 237.323 108.59 237.022 108.895C236.73 109.2 236.356 109.353 235.899 109.353C235.247 109.353 234.62 109.169 234.017 108.803C233.414 108.447 232.889 107.863 232.442 107.049C232.16 106.52 232.019 105.905 232.019 105.203V99.6958C232.019 99.2584 231.951 98.9584 231.815 98.7957C231.679 98.633 231.387 98.5262 230.94 98.4753C230.493 98.4143 230.147 98.2465 229.904 97.9719C229.671 97.6973 229.554 97.3362 229.554 96.8888C229.554 96.4311 229.671 96.065 229.904 95.7904C230.147 95.5158 230.493 95.353 230.94 95.3022C231.397 95.2412 231.674 95.1445 231.771 95.0123C231.937 94.8089 232.019 94.4936 232.019 94.0665V88.8491C232.019 87.7303 232.408 86.7642 233.186 85.9505C233.964 85.1267 234.863 84.7148 235.884 84.7148C236.351 84.7148 236.73 84.8674 237.022 85.1725C237.323 85.4776 237.474 85.8539 237.474 86.3014C237.474 86.7184 237.343 87.0744 237.08 87.3693C236.818 87.6642 236.477 87.8321 236.059 87.8727C235.641 87.9134 235.379 88.0049 235.272 88.1473C235.097 88.3609 235.009 88.6762 235.009 89.0932V94.0665C235.009 94.7682 234.941 95.3123 234.805 95.6988C234.678 96.0751 234.445 96.4718 234.105 96.8888Z" fill="#373748"/>
<path d="M241.95 103.677C241.687 104.003 241.473 104.211 241.308 104.303C241.153 104.394 240.958 104.44 240.725 104.44C240.268 104.44 239.898 104.283 239.616 103.967C239.344 103.642 239.208 103.108 239.208 102.365V100.26C239.208 99.5076 239.344 98.9737 239.616 98.6584C239.898 98.3329 240.268 98.1702 240.725 98.1702C241.075 98.1702 241.367 98.2668 241.6 98.4601C241.843 98.6533 242.028 98.9788 242.154 99.4364C242.281 99.8839 242.412 100.189 242.548 100.352C242.83 100.667 243.331 100.987 244.05 101.313C244.77 101.638 245.557 101.801 246.413 101.801C247.745 101.801 248.839 101.476 249.694 100.825C250.239 100.428 250.511 99.9399 250.511 99.3601C250.511 98.9737 250.38 98.6126 250.117 98.277C249.855 97.9312 249.427 97.6464 248.834 97.4227C248.445 97.2701 247.575 97.0616 246.223 96.7972C244.59 96.4819 243.355 96.1005 242.519 95.6531C241.683 95.2056 241.021 94.575 240.535 93.7614C240.049 92.9477 239.806 92.068 239.806 91.1222C239.806 89.6271 240.404 88.3202 241.6 87.2015C242.796 86.0726 244.352 85.5081 246.267 85.5081C247.035 85.5081 247.745 85.5997 248.396 85.7827C249.058 85.9556 249.656 86.2251 250.19 86.5913C250.579 86.1946 250.968 85.9963 251.357 85.9963C251.795 85.9963 252.15 86.159 252.422 86.4845C252.704 86.7998 252.845 87.3286 252.845 88.0711V90.4204C252.845 91.173 252.704 91.712 252.422 92.0375C252.15 92.3528 251.795 92.5104 251.357 92.5104C250.988 92.5104 250.667 92.3935 250.395 92.1595C250.181 91.9866 250.02 91.6408 249.913 91.1222C249.806 90.6035 249.67 90.2323 249.505 90.0085C249.223 89.622 248.8 89.2966 248.236 89.0322C247.672 88.7677 247.021 88.6355 246.282 88.6355C245.202 88.6355 244.347 88.8999 243.715 89.4288C243.092 89.9475 242.781 90.4916 242.781 91.0611C242.781 91.4476 242.908 91.8239 243.16 92.19C243.423 92.546 243.802 92.8257 244.298 93.0291C244.629 93.1715 245.557 93.4003 247.084 93.7156C248.62 94.0309 249.797 94.3767 250.613 94.753C251.44 95.1293 252.125 95.7192 252.67 96.5226C253.214 97.3261 253.486 98.2821 253.486 99.3907C253.486 100.937 252.966 102.172 251.926 103.098C250.545 104.318 248.785 104.928 246.646 104.928C245.82 104.928 245.013 104.822 244.225 104.608C243.447 104.405 242.689 104.094 241.95 103.677Z" fill="#373748"/>
<path d="M262.587 104.364L257.41 93.7461C256.924 93.6851 256.554 93.5122 256.301 93.2274C256.049 92.9427 255.922 92.5969 255.922 92.19C255.922 91.7222 256.073 91.3459 256.374 91.0611C256.685 90.7662 257.201 90.6187 257.92 90.6187H260.648C261.367 90.6187 261.878 90.7662 262.179 91.0611C262.49 91.3459 262.646 91.7222 262.646 92.19C262.646 92.6477 262.49 93.024 262.179 93.319C261.878 93.6037 261.396 93.7461 260.735 93.7461L264.265 100.931L267.765 93.7461C267.123 93.7461 266.647 93.6037 266.336 93.319C266.034 93.024 265.884 92.6426 265.884 92.1748C265.884 91.7171 266.034 91.3459 266.336 91.0611C266.647 90.7662 267.162 90.6187 267.882 90.6187H270.697C271.406 90.6187 271.912 90.7662 272.213 91.0611C272.524 91.3459 272.68 91.7222 272.68 92.19C272.68 92.607 272.549 92.963 272.286 93.2579C272.024 93.5427 271.635 93.7054 271.119 93.7461L264.265 107.873C265.013 107.873 265.504 107.949 265.738 108.102C266.204 108.417 266.438 108.864 266.438 109.444C266.438 109.902 266.282 110.273 265.971 110.558C265.67 110.853 265.159 111 264.44 111H257.92C257.201 111 256.685 110.853 256.374 110.558C256.073 110.273 255.922 109.902 255.922 109.444C255.922 108.976 256.073 108.595 256.374 108.3C256.685 108.015 257.201 107.873 257.92 107.873H260.896L262.587 104.364Z" fill="#373748"/>
<path d="M279.17 90.6187V91.6714C279.715 91.1832 280.313 90.817 280.964 90.573C281.625 90.3289 282.34 90.2068 283.108 90.2068C284.878 90.2068 286.278 90.7815 287.309 91.9307C288.125 92.846 288.534 94.0461 288.534 95.531V101.343C289.166 101.343 289.632 101.491 289.934 101.786C290.235 102.071 290.386 102.447 290.386 102.915C290.386 103.372 290.23 103.749 289.919 104.044C289.618 104.328 289.107 104.471 288.388 104.471H285.69C284.97 104.471 284.455 104.328 284.144 104.044C283.842 103.749 283.692 103.367 283.692 102.899C283.692 102.442 283.842 102.071 284.144 101.786C284.445 101.491 284.912 101.343 285.544 101.343V95.4395C285.544 94.7581 285.369 94.2597 285.019 93.9444C284.562 93.5376 283.876 93.3342 282.962 93.3342C282.272 93.3342 281.664 93.4766 281.139 93.7614C280.624 94.036 279.968 94.6258 279.17 95.531V101.343C279.938 101.343 280.434 101.42 280.658 101.572C281.134 101.877 281.373 102.325 281.373 102.915C281.373 103.372 281.217 103.749 280.906 104.044C280.604 104.328 280.094 104.471 279.374 104.471H275.976C275.257 104.471 274.741 104.328 274.43 104.044C274.129 103.749 273.978 103.367 273.978 102.899C273.978 102.33 274.211 101.887 274.678 101.572C274.912 101.42 275.412 101.343 276.18 101.343V93.7461C275.548 93.7461 275.082 93.5986 274.78 93.3037C274.479 93.0088 274.328 92.6325 274.328 92.1748C274.328 91.7171 274.479 91.3459 274.78 91.0611C275.091 90.7662 275.607 90.6187 276.326 90.6187H279.17Z" fill="#373748"/>
<path d="M304.796 91.1832C305.155 90.8272 305.525 90.6492 305.904 90.6492C306.332 90.6492 306.682 90.812 306.954 91.1374C307.236 91.4527 307.377 91.9816 307.377 92.724V94.7377C307.377 95.4903 307.236 96.0243 306.954 96.3396C306.682 96.6548 306.322 96.8125 305.875 96.8125C305.467 96.8125 305.121 96.6904 304.839 96.4463C304.635 96.2633 304.475 95.8921 304.358 95.3327C304.241 94.7631 303.96 94.3411 303.512 94.0665C302.725 93.5783 301.718 93.3342 300.493 93.3342C299.083 93.3342 297.951 93.7665 297.095 94.6309C296.249 95.4954 295.826 96.5887 295.826 97.9109C295.826 99.1313 296.234 100.097 297.051 100.809C297.868 101.511 299.224 101.862 301.12 101.862C302.365 101.862 303.381 101.73 304.169 101.465C304.635 101.303 305.078 101.028 305.496 100.642C305.914 100.245 306.293 100.047 306.633 100.047C307.042 100.047 307.392 100.204 307.683 100.52C307.985 100.835 308.136 101.206 308.136 101.633C308.136 102.325 307.683 102.981 306.779 103.601C305.437 104.527 303.473 104.989 300.887 104.989C298.563 104.989 296.755 104.486 295.461 103.479C293.711 102.126 292.836 100.275 292.836 97.9261C292.836 95.6988 293.546 93.858 294.966 92.4036C296.385 90.9391 298.237 90.2068 300.522 90.2068C301.349 90.2068 302.117 90.2882 302.827 90.4509C303.537 90.6136 304.193 90.8577 304.796 91.1832Z" fill="#373748"/>
<path d="M319.147 84.6843V87.9948H315.588V84.6843H319.147ZM319.555 90.6187V101.343H323.143C323.863 101.343 324.373 101.491 324.675 101.786C324.986 102.071 325.141 102.447 325.141 102.915C325.141 103.372 324.986 103.749 324.675 104.044C324.373 104.328 323.863 104.471 323.143 104.471H312.978C312.258 104.471 311.743 104.328 311.432 104.044C311.13 103.749 310.98 103.367 310.98 102.899C310.98 102.442 311.13 102.071 311.432 101.786C311.743 101.491 312.258 101.343 312.978 101.343H316.566V93.7461H314.159C313.449 93.7461 312.939 93.6037 312.628 93.319C312.317 93.024 312.161 92.6426 312.161 92.1748C312.161 91.7171 312.312 91.3459 312.613 91.0611C312.924 90.7662 313.44 90.6187 314.159 90.6187H319.555Z" fill="#373748"/>
<path d="M332.988 90.6187V91.6714C333.533 91.1832 334.131 90.817 334.782 90.573C335.443 90.3289 336.158 90.2068 336.926 90.2068C338.696 90.2068 340.096 90.7815 341.126 91.9307C341.943 92.846 342.351 94.0461 342.351 95.531V101.343C342.984 101.343 343.45 101.491 343.752 101.786C344.053 102.071 344.204 102.447 344.204 102.915C344.204 103.372 344.048 103.749 343.737 104.044C343.436 104.328 342.925 104.471 342.206 104.471H339.507C338.788 104.471 338.273 104.328 337.961 104.044C337.66 103.749 337.509 103.367 337.509 102.899C337.509 102.442 337.66 102.071 337.961 101.786C338.263 101.491 338.73 101.343 339.362 101.343V95.4395C339.362 94.7581 339.187 94.2597 338.837 93.9444C338.38 93.5376 337.694 93.3342 336.78 93.3342C336.09 93.3342 335.482 93.4766 334.957 93.7614C334.442 94.036 333.785 94.6258 332.988 95.531V101.343C333.756 101.343 334.252 101.42 334.476 101.572C334.952 101.877 335.19 102.325 335.19 102.915C335.19 103.372 335.035 103.749 334.724 104.044C334.422 104.328 333.912 104.471 333.192 104.471H329.794C329.074 104.471 328.559 104.328 328.248 104.044C327.947 103.749 327.796 103.367 327.796 102.899C327.796 102.33 328.029 101.887 328.496 101.572C328.729 101.42 329.23 101.343 329.998 101.343V93.7461C329.366 93.7461 328.899 93.5986 328.598 93.3037C328.297 93.0088 328.146 92.6325 328.146 92.1748C328.146 91.7171 328.297 91.3459 328.598 91.0611C328.909 90.7662 329.425 90.6187 330.144 90.6187H332.988Z" fill="#373748"/>
<path d="M357.243 91.5493V90.6187H360.743C361.462 90.6187 361.973 90.7662 362.274 91.0611C362.585 91.3459 362.741 91.7222 362.741 92.19C362.741 92.6477 362.585 93.024 362.274 93.319C361.973 93.6037 361.462 93.7461 360.743 93.7461H360.232V105.127C360.232 106.225 360.009 107.181 359.562 107.995C359.124 108.819 358.448 109.525 357.534 110.115C356.62 110.705 355.59 111 354.442 111H351.059C350.339 111 349.824 110.853 349.513 110.558C349.211 110.273 349.06 109.902 349.06 109.444C349.06 108.976 349.211 108.595 349.513 108.3C349.824 108.015 350.339 107.873 351.059 107.873H354.355C355.269 107.873 355.979 107.613 356.484 107.095C356.99 106.576 357.243 105.92 357.243 105.127V103.601C356.581 104.049 355.906 104.384 355.215 104.608C354.535 104.832 353.835 104.944 353.115 104.944C351.083 104.944 349.381 104.237 348.01 102.823C346.639 101.399 345.954 99.6449 345.954 97.56C345.954 95.4649 346.639 93.7105 348.01 92.2968C349.381 90.873 351.083 90.1611 353.115 90.1611C353.873 90.1611 354.593 90.278 355.274 90.5119C355.964 90.7357 356.62 91.0815 357.243 91.5493ZM357.228 97.5447C357.228 96.3955 356.82 95.3988 356.003 94.5547C355.196 93.7105 354.223 93.2884 353.086 93.2884C351.948 93.2884 350.971 93.7105 350.154 94.5547C349.347 95.3988 348.944 96.3955 348.944 97.5447C348.944 98.7042 349.347 99.7059 350.154 100.55C350.971 101.384 351.948 101.801 353.086 101.801C354.223 101.801 355.196 101.384 356.003 100.55C356.82 99.7059 357.228 98.7042 357.228 97.5447Z" fill="#373748"/>
<path d="M366.065 100.26H370.061L365.759 108.742C365.506 109.241 365.19 109.49 364.811 109.49C364.558 109.49 364.339 109.403 364.154 109.23C363.979 109.058 363.892 108.864 363.892 108.651C363.892 108.498 363.926 108.29 363.994 108.025L366.065 100.26Z" fill="#373748"/>
<path d="M384.131 96.7514V101.343H391.758V99.65C391.758 98.8974 391.895 98.3635 392.167 98.0482C392.449 97.7227 392.813 97.56 393.261 97.56C393.698 97.56 394.053 97.7227 394.325 98.0482C394.607 98.3635 394.748 98.8974 394.748 99.65V104.471H380.674C379.954 104.471 379.439 104.328 379.128 104.044C378.827 103.749 378.676 103.367 378.676 102.899C378.676 102.442 378.831 102.071 379.143 101.786C379.454 101.491 379.964 101.343 380.674 101.343H381.141V89.1084H380.674C379.954 89.1084 379.439 88.966 379.128 88.6813C378.827 88.3863 378.676 88.0049 378.676 87.5371C378.676 87.0693 378.827 86.693 379.128 86.4082C379.439 86.1133 379.954 85.9658 380.674 85.9658L394.092 85.981V90.7408C394.092 91.4832 393.956 92.0172 393.684 92.3426C393.411 92.6579 393.052 92.8155 392.604 92.8155C392.157 92.8155 391.792 92.6579 391.51 92.3426C391.238 92.0273 391.102 91.4934 391.102 90.7408V89.1084H384.131V93.6241H386.756C386.756 92.8104 386.829 92.2867 386.975 92.0527C387.276 91.5544 387.704 91.3052 388.258 91.3052C388.696 91.3052 389.05 91.468 389.323 91.7934C389.605 92.1087 389.746 92.6426 389.746 93.3952V96.9955C389.746 97.677 389.668 98.1346 389.512 98.3685C389.201 98.8465 388.783 99.0855 388.258 99.0855C387.704 99.0855 387.276 98.8364 386.975 98.338C386.829 98.1041 386.756 97.5752 386.756 96.7514H384.131Z" fill="#373748"/>
<path d="M407.379 97.2701L411.915 101.343C412.459 101.374 412.867 101.537 413.14 101.832C413.412 102.116 413.548 102.477 413.548 102.915C413.548 103.372 413.392 103.749 413.081 104.044C412.78 104.328 412.269 104.471 411.55 104.471H408.152C407.432 104.471 406.917 104.328 406.606 104.044C406.304 103.749 406.154 103.362 406.154 102.884C406.154 102.518 406.26 102.198 406.474 101.923C406.698 101.638 406.999 101.445 407.379 101.343L405.147 99.3296L402.872 101.343C403.329 101.465 403.655 101.654 403.849 101.908C404.053 102.162 404.155 102.488 404.155 102.884C404.155 103.362 404.005 103.749 403.703 104.044C403.402 104.328 402.891 104.471 402.172 104.471H398.803C398.083 104.471 397.568 104.328 397.257 104.044C396.955 103.749 396.805 103.367 396.805 102.899C396.805 102.472 396.941 102.116 397.213 101.832C397.485 101.537 397.894 101.374 398.438 101.343L402.872 97.2549L398.949 93.7461C398.433 93.7054 398.04 93.5427 397.767 93.2579C397.505 92.963 397.374 92.6019 397.374 92.1748C397.374 91.7171 397.524 91.3459 397.826 91.0611C398.137 90.7662 398.652 90.6187 399.372 90.6187H402.172C402.891 90.6187 403.402 90.7662 403.703 91.0611C404.014 91.3459 404.17 91.712 404.17 92.1595C404.17 92.7596 403.898 93.2478 403.353 93.6241L405.162 95.1954L406.941 93.5936C406.406 93.1969 406.139 92.7392 406.139 92.2206C406.139 91.7324 406.29 91.3459 406.591 91.0611C406.902 90.7662 407.418 90.6187 408.137 90.6187H410.908C411.628 90.6187 412.138 90.7662 412.44 91.0611C412.751 91.3459 412.906 91.7222 412.906 92.19C412.906 92.607 412.77 92.963 412.498 93.2579C412.235 93.5427 411.842 93.7054 411.317 93.7461L407.379 97.2701Z" fill="#373748"/>
<path d="M419.367 102.747V107.873H421.161C421.881 107.873 422.391 108.015 422.693 108.3C423.004 108.595 423.159 108.976 423.159 109.444C423.159 109.902 423.004 110.273 422.693 110.558C422.391 110.853 421.881 111 421.161 111H415.867C415.148 111 414.632 110.853 414.321 110.558C414.02 110.273 413.869 109.902 413.869 109.444C413.869 108.976 414.024 108.595 414.336 108.3C414.647 108.015 415.157 107.873 415.867 107.873H416.377V93.7461H415.867C415.148 93.7461 414.632 93.6037 414.321 93.319C414.02 93.024 413.869 92.6426 413.869 92.1748C413.869 91.7171 414.02 91.3459 414.321 91.0611C414.632 90.7662 415.148 90.6187 415.867 90.6187H419.367V91.6866C420.067 91.1883 420.792 90.817 421.54 90.573C422.289 90.3289 423.057 90.2068 423.845 90.2068C425.887 90.2068 427.627 90.934 429.066 92.3884C430.505 93.8326 431.225 95.4903 431.225 97.3617C431.225 99.4263 430.374 101.13 428.672 102.472C427.253 103.591 425.653 104.15 423.874 104.15C423.106 104.15 422.348 104.033 421.599 103.8C420.85 103.566 420.106 103.215 419.367 102.747ZM428.235 97.3769C428.235 96.9396 428.07 96.3853 427.739 95.7141C427.408 95.0327 426.898 94.4682 426.208 94.0207C425.527 93.563 424.725 93.3342 423.801 93.3342C422.313 93.3342 421.132 93.919 420.257 95.0886C419.664 95.8921 419.367 96.665 419.367 97.4074C419.367 98.2414 419.79 99.055 420.636 99.8483C421.492 100.631 422.547 101.023 423.801 101.023C425.065 101.023 426.12 100.631 426.966 99.8483C427.812 99.0652 428.235 98.2414 428.235 97.3769Z" fill="#373748"/>
<path d="M448.522 99.1313H436.257C436.568 99.9449 437.117 100.601 437.905 101.099C438.702 101.598 439.776 101.847 441.128 101.847C442.236 101.847 443.709 101.598 445.547 101.099C446.305 100.896 446.83 100.794 447.122 100.794C447.521 100.794 447.856 100.942 448.129 101.237C448.401 101.532 448.537 101.903 448.537 102.35C448.537 102.757 448.391 103.103 448.099 103.388C447.71 103.764 446.762 104.125 445.255 104.471C443.748 104.806 442.299 104.974 440.909 104.974C438.517 104.974 436.602 104.267 435.163 102.854C433.733 101.44 433.019 99.7009 433.019 97.6363C433.019 95.4395 433.792 93.6546 435.338 92.2816C436.893 90.8984 438.682 90.2068 440.705 90.2068C441.92 90.2068 443.034 90.4306 444.045 90.8781C445.066 91.3256 445.824 91.8087 446.32 92.3273C447.02 93.08 447.599 94.0105 448.056 95.1191C448.367 95.8921 448.522 96.787 448.522 97.8041V99.1313ZM445.212 96.0039C444.755 95.1089 444.157 94.4428 443.418 94.0055C442.679 93.558 441.799 93.3342 440.778 93.3342C439.767 93.3342 438.892 93.558 438.153 94.0055C437.414 94.4428 436.811 95.1089 436.344 96.0039H445.212Z" fill="#373748"/>
<path d="M458.338 90.6187V92.5714C459.592 91.6256 460.579 90.995 461.299 90.6797C462.028 90.3645 462.708 90.2068 463.34 90.2068C464.313 90.2068 465.256 90.5831 466.17 91.3357C466.792 91.8443 467.103 92.3629 467.103 92.8918C467.103 93.3393 466.953 93.7207 466.651 94.036C466.359 94.3411 466.005 94.4936 465.587 94.4936C465.217 94.4936 464.828 94.3004 464.42 93.9139C464.011 93.5274 463.647 93.3342 463.326 93.3342C462.908 93.3342 462.281 93.6088 461.444 94.158C460.618 94.7072 459.582 95.531 458.338 96.6294V101.343H462.597C463.316 101.343 463.827 101.491 464.128 101.786C464.439 102.071 464.595 102.447 464.595 102.915C464.595 103.372 464.439 103.749 464.128 104.044C463.827 104.328 463.316 104.471 462.597 104.471H453.569C452.849 104.471 452.334 104.328 452.023 104.044C451.721 103.749 451.571 103.367 451.571 102.899C451.571 102.442 451.721 102.071 452.023 101.786C452.334 101.491 452.849 101.343 453.569 101.343H455.348V93.7461H454.269C453.549 93.7461 453.034 93.6037 452.723 93.319C452.421 93.024 452.271 92.6426 452.271 92.1748C452.271 91.7171 452.421 91.3459 452.723 91.0611C453.034 90.7662 453.549 90.6187 454.269 90.6187H458.338Z" fill="#373748"/>
<path d="M476.16 93.7461V100.016C476.16 100.687 476.292 101.13 476.554 101.343C476.963 101.679 477.692 101.847 478.742 101.847C480.269 101.847 481.678 101.506 482.972 100.825C483.467 100.56 483.856 100.428 484.138 100.428C484.527 100.428 484.863 100.581 485.145 100.886C485.436 101.191 485.582 101.562 485.582 101.999C485.582 102.406 485.427 102.757 485.116 103.052C484.639 103.53 483.696 103.972 482.286 104.379C480.886 104.776 479.705 104.974 478.742 104.974C476.885 104.974 475.49 104.557 474.556 103.723C473.632 102.879 473.171 101.847 473.171 100.626V93.7461H472.091C471.372 93.7461 470.856 93.6037 470.545 93.319C470.244 93.024 470.093 92.6426 470.093 92.1748C470.093 91.7171 470.244 91.3459 470.545 91.0611C470.856 90.7662 471.372 90.6187 472.091 90.6187H473.171V87.7965C473.171 87.0438 473.307 86.5099 473.579 86.1946C473.861 85.8692 474.226 85.7064 474.673 85.7064C475.11 85.7064 475.465 85.8692 475.738 86.1946C476.019 86.5099 476.16 87.0438 476.16 87.7965V90.6187H481.688C482.408 90.6187 482.918 90.7662 483.219 91.0611C483.531 91.3459 483.686 91.7222 483.686 92.19C483.686 92.6477 483.531 93.024 483.219 93.319C482.918 93.6037 482.408 93.7461 481.688 93.7461H476.16Z" fill="#373748"/>
<path d="M496.331 84.6843V101.343H499.919C500.639 101.343 501.149 101.491 501.45 101.786C501.762 102.071 501.917 102.447 501.917 102.915C501.917 103.372 501.762 103.749 501.45 104.044C501.149 104.328 500.639 104.471 499.919 104.471H489.753C489.034 104.471 488.519 104.328 488.207 104.044C487.906 103.749 487.755 103.367 487.755 102.899C487.755 102.442 487.906 102.071 488.207 101.786C488.519 101.491 489.034 101.343 489.753 101.343H493.341V87.8117H490.935C490.225 87.8117 489.715 87.6693 489.403 87.3846C489.092 87.0896 488.937 86.7082 488.937 86.2404C488.937 85.7827 489.087 85.4115 489.389 85.1267C489.7 84.8318 490.215 84.6843 490.935 84.6843H496.331Z" fill="#373748"/>
<path d="M511.106 104.364L505.928 93.7461C505.442 93.6851 505.072 93.5122 504.82 93.2274C504.567 92.9427 504.44 92.5969 504.44 92.19C504.44 91.7222 504.591 91.3459 504.892 91.0611C505.204 90.7662 505.719 90.6187 506.438 90.6187H509.166C509.885 90.6187 510.396 90.7662 510.697 91.0611C511.008 91.3459 511.164 91.7222 511.164 92.19C511.164 92.6477 511.008 93.024 510.697 93.319C510.396 93.6037 509.914 93.7461 509.253 93.7461L512.783 100.931L516.283 93.7461C515.641 93.7461 515.165 93.6037 514.854 93.319C514.552 93.024 514.402 92.6426 514.402 92.1748C514.402 91.7171 514.552 91.3459 514.854 91.0611C515.165 90.7662 515.68 90.6187 516.4 90.6187H519.215C519.924 90.6187 520.43 90.7662 520.732 91.0611C521.043 91.3459 521.198 91.7222 521.198 92.19C521.198 92.607 521.067 92.963 520.804 93.2579C520.542 93.5427 520.153 93.7054 519.638 93.7461L512.783 107.873C513.532 107.873 514.023 107.949 514.256 108.102C514.723 108.417 514.956 108.864 514.956 109.444C514.956 109.902 514.8 110.273 514.489 110.558C514.188 110.853 513.677 111 512.958 111H506.438C505.719 111 505.204 110.853 504.892 110.558C504.591 110.273 504.44 109.902 504.44 109.444C504.44 108.976 504.591 108.595 504.892 108.3C505.204 108.015 505.719 107.873 506.438 107.873H509.414L511.106 104.364Z" fill="#373748"/>
<path d="M525.387 102.899C525.387 103.489 525.188 103.983 524.79 104.379C524.391 104.776 523.841 104.974 523.141 104.974C522.441 104.974 521.892 104.776 521.493 104.379C521.095 103.983 520.895 103.489 520.895 102.899C520.895 102.31 521.095 101.816 521.493 101.42C521.892 101.023 522.441 100.825 523.141 100.825C523.841 100.825 524.391 101.023 524.79 101.42C525.188 101.816 525.387 102.31 525.387 102.899Z" fill="#373748"/>
<path d="M530.267 96.8888C529.927 96.4718 529.689 96.07 529.552 95.6836C529.426 95.2869 529.363 94.7479 529.363 94.0665V89.0932C529.363 88.6762 529.285 88.3812 529.129 88.2084C528.984 88.0253 528.706 87.9134 528.298 87.8727C527.89 87.8321 527.554 87.6642 527.292 87.3693C527.029 87.0744 526.898 86.7184 526.898 86.3014C526.898 85.8539 527.044 85.4776 527.336 85.1725C527.637 84.8674 528.016 84.7148 528.473 84.7148C529.125 84.7148 529.752 84.8979 530.355 85.264C530.957 85.62 531.482 86.2048 531.93 87.0184C532.212 87.5473 532.353 88.1575 532.353 88.8491V94.0665C532.353 94.5038 532.421 94.8089 532.557 94.9818C532.693 95.1445 532.985 95.2513 533.432 95.3022C533.879 95.353 534.22 95.5158 534.453 95.7904C534.696 96.065 534.818 96.4311 534.818 96.8888C534.818 97.3362 534.696 97.6973 534.453 97.9719C534.22 98.2465 533.874 98.4143 533.417 98.4753C532.97 98.5262 532.698 98.6177 532.601 98.7499C532.435 98.9533 532.353 99.2686 532.353 99.6958V105.203C532.353 106.332 531.964 107.303 531.186 108.117C530.408 108.941 529.509 109.353 528.488 109.353C528.021 109.353 527.637 109.2 527.336 108.895C527.044 108.59 526.898 108.213 526.898 107.766C526.898 107.349 527.029 106.993 527.292 106.698C527.554 106.403 527.895 106.235 528.313 106.195C528.731 106.154 528.993 106.062 529.1 105.92C529.275 105.706 529.363 105.391 529.363 104.974V100.001C529.363 99.1262 529.421 98.4957 529.538 98.1092C529.664 97.7227 529.907 97.3159 530.267 96.8888Z" fill="#373748"/>
<defs>
<linearGradient id="paint0_linear_97_973" x1="60.5218" y1="27.0623" x2="60.5218" y2="97.3684" gradientUnits="userSpaceOnUse">
<stop stop-color="#373748"/>
<stop offset="1" stop-color="#3D8BF2"/>
</linearGradient>
<linearGradient id="paint1_linear_97_973" x1="26.5747" y1="74.6512" x2="63.3594" y2="37.8665" gradientUnits="userSpaceOnUse">
<stop stop-color="#373748"/>
<stop offset="0.5" stop-color="#3D8BF2"/>
<stop offset="1" stop-color="#373748"/>
</linearGradient>
<linearGradient id="paint2_linear_97_973" x1="23.415" y1="6.49146" x2="23.415" y2="72.3873" gradientUnits="userSpaceOnUse">
<stop stop-color="#373748"/>
<stop offset="1" stop-color="#3D8BF2"/>
</linearGradient>
</defs>
</svg>
