<svg width="16" height="17" viewBox="0 0 16 17" fill="none" xmlns="http://www.w3.org/2000/svg">
<path d="M5.99998 14.5V9.56667C5.99998 9.1933 5.99998 9.00661 6.07264 8.86401C6.13656 8.73857 6.23855 8.63658 6.36399 8.57266C6.5066 8.5 6.69328 8.5 7.06665 8.5H8.93332C9.30668 8.5 9.49337 8.5 9.63598 8.57266C9.76142 8.63658 9.8634 8.73857 9.92732 8.86401C9.99998 9.00661 9.99998 9.1933 9.99998 9.56667V14.5M1.33331 6.83333L7.35998 2.31333C7.58949 2.1412 7.70424 2.05514 7.83027 2.02196C7.94152 1.99268 8.05845 1.99268 8.16969 2.02196C8.29572 2.05514 8.41048 2.1412 8.63998 2.31333L14.6666 6.83333M2.66665 5.83333V12.3667C2.66665 13.1134 2.66665 13.4868 2.81197 13.772C2.9398 14.0229 3.14378 14.2268 3.39466 14.3547C3.67988 14.5 4.05325 14.5 4.79998 14.5H11.2C11.9467 14.5 12.3201 14.5 12.6053 14.3547C12.8562 14.2268 13.0602 14.0229 13.188 13.772C13.3333 13.4868 13.3333 13.1134 13.3333 12.3667V5.83333L9.27998 2.79333C8.82097 2.44907 8.59147 2.27695 8.33941 2.21059C8.11691 2.15202 7.88305 2.15202 7.66056 2.21059C7.4085 2.27695 7.17899 2.44907 6.71998 2.79333L2.66665 5.83333Z" stroke="#373748" stroke-width="1.5" stroke-linecap="round" stroke-linejoin="round"/>
</svg>
