<svg width="390" height="104" viewBox="0 0 390 104" fill="none" xmlns="http://www.w3.org/2000/svg">
<g opacity="0.7">
<path d="M92.415 160.024L128.946 81.88L183.559 136.048L92.4265 160.024H92.415ZM129.185 83.2508L93.8657 158.813L182.005 135.625L129.197 83.2508H129.185Z" fill="#3D8BF2"/>
<path d="M182.919 136.55L128.294 82.3713L215.417 57.7549L215.097 58.5202L182.907 136.55H182.919ZM129.837 82.7711L182.633 135.145L214.058 58.9771L129.837 82.7711Z" fill="#3D8BF2"/>
<path d="M182.166 136.264L214.618 57.5946L276.325 132.666L182.166 136.264ZM214.858 59.1367L183.388 135.419L274.691 131.935L214.858 59.1367Z" fill="#3D8BF2"/>
<path d="M275.628 133.066L275.205 132.552L213.772 57.8115L300.895 71.2563L275.628 133.077V133.066ZM215.714 58.9195L275.388 131.524L299.764 71.8846L215.714 58.9195Z" fill="#3D8BF2"/>
<path d="M353.327 152.656L274.965 132.575L275.137 132.152L300.244 70.7084L353.315 152.656H353.327ZM276.051 132.027L351.533 151.377L300.404 72.4332L276.051 132.027Z" fill="#3D8BF2"/>
<path d="M24.2437 201.078L53.2807 95.6674L93.6951 159.556L24.2437 201.078ZM53.5777 97.6207L25.5459 199.365L92.587 159.293L53.5777 97.6207Z" fill="#3D8BF2"/>
<path d="M93.1917 160.253L52.7773 96.3529L129.756 82.0286L93.1917 160.253ZM54.0796 96.9241L93.0889 158.585L128.374 83.1023L54.0796 96.9241Z" fill="#3D8BF2"/>
<path d="M128.615 83.1132L134.44 24.4222L134.943 24.6279L215.954 58.4397L128.615 83.1132ZM135.126 25.576L129.517 82.0281L213.521 58.2912L135.126 25.576Z" fill="#3D8BF2"/>
<path d="M52.0688 97.3009L135.285 24.0228L129.436 82.908L129.139 82.9651L52.0803 97.3009H52.0688ZM134.291 25.9647L54.7875 95.9758L128.705 82.2226L134.291 25.9647Z" fill="#3D8BF2"/>
<path d="M214.881 58.8512L214.584 58.7256L133.138 24.7423L246.488 14.416L214.881 58.8512ZM136.428 25.245L214.607 57.8688L244.843 15.3755L136.439 25.245H136.428Z" fill="#3D8BF2"/>
<path d="M301.431 72.1474L214.035 58.6684L245.608 14.2903L245.939 14.633L301.42 72.1474H301.431ZM215.44 58.0744L299.215 70.9937L245.71 15.524L215.44 58.0629V58.0744Z" fill="#3D8BF2"/>
<path d="M24.9397 201.535L4.5498 145.357L54.2167 95.2791L24.9397 201.535ZM5.47506 145.563L24.8369 198.908L52.6289 98.0091L5.47506 145.563Z" fill="#3D8BF2"/>
<path d="M353.018 153.661L299.49 71.0165L344.599 78.9326L353.018 153.661ZM301.158 72.1245L351.842 150.372L343.868 79.6065L301.158 72.1131V72.1245Z" fill="#3D8BF2"/>
<path d="M346.084 79.9953L300.118 71.9307L242.912 12.6343L346.084 80.0067V79.9953ZM300.518 71.1996L342.383 78.5446L248.407 17.1692L300.518 71.1996Z" fill="#3D8BF2"/>
<path d="M385.322 199.354L352.025 152.063L343.412 75.6205L385.311 199.354H385.322ZM352.813 151.869L382.798 194.373L345.057 82.9083L352.824 151.857L352.813 151.869Z" fill="#3D8BF2"/>
<path d="M52.8921 97.6433L58.1352 56.4751L58.3522 56.3837L136.862 23.6913L52.8921 97.6433ZM58.8777 57.0348L53.9544 95.6443L132.704 26.2957L58.8777 57.0348Z" fill="#3D8BF2"/>
<path d="M2.93945 148.109L59.1517 54.9326L53.8057 96.8319L53.7144 96.9233L2.93945 148.109ZM57.8723 58.5879L7.07455 142.809L53.0518 96.4549L57.8837 58.5879H57.8723Z" fill="#3D8BF2"/>
<path d="M58.6714 57.1266L58.3516 56.3955L160.69 8.37354L161.067 9.07033L134.999 25.3366L58.6714 57.1266ZM154.955 11.9489L75.0747 49.4275L134.634 24.6284L154.955 11.9489Z" fill="#3D8BF2"/>
<path d="M133.149 25.5537L160.759 8.32788L245.7 14.5077V15.3073L133.149 25.5537ZM160.953 9.15033L136.416 24.4571L240.753 14.9532L160.941 9.15033H160.953Z" fill="#3D8BF2"/>
</g>
<path d="M129.071 78.5792C126.866 78.5792 125.073 80.3726 125.073 82.5772C125.073 84.7819 126.866 86.5753 129.071 86.5753C131.275 86.5753 133.069 84.7819 133.069 82.5772C133.069 80.3726 131.287 78.5792 129.071 78.5792Z" fill="#3D8BF2"/>
<path d="M214.743 54.3739C212.538 54.3739 210.745 56.1673 210.745 58.3719C210.745 60.5766 212.538 62.37 214.743 62.37C216.947 62.37 218.741 60.5766 218.741 58.3719C218.741 56.1673 216.947 54.3739 214.743 54.3739Z" fill="#3D8BF2"/>
<path d="M300.323 75.5632C302.528 75.5632 304.321 73.7698 304.321 71.5652C304.321 69.3605 302.539 67.5671 300.323 67.5671C298.107 67.5671 296.325 69.3605 296.325 71.5652C296.325 73.7698 298.107 75.5632 300.323 75.5632Z" fill="#3D8BF2"/>
<path d="M134.782 28.9918C136.99 28.9918 138.78 27.2018 138.78 24.9938C138.78 22.7857 136.99 20.9957 134.782 20.9957C132.574 20.9957 130.784 22.7857 130.784 24.9938C130.784 27.2018 132.574 28.9918 134.782 28.9918Z" fill="#3D8BF2"/>
<path d="M57.4267 96.6382C57.4267 94.4335 55.6447 92.6401 53.4287 92.6401C51.2126 92.6401 49.4307 94.4335 49.4307 96.6382C49.4307 98.8428 51.2241 100.636 53.4287 100.636C55.6333 100.636 57.4267 98.8428 57.4267 96.6382Z" fill="#3D8BF2"/>
<g filter="url(#filter0_f_68_9459)">
<path d="M25.6108 162.882L4.45557 146.056L60.7363 52.7648L25.6108 162.882ZM5.96339 145.782L25.0283 160.951L56.6926 61.6747L5.96339 145.782Z" fill="#3D8BF2"/>
<path d="M263.585 42.1526L156.232 8.27222L246.188 14.8176L263.585 42.164V42.1526ZM165.885 10.1227L260.946 40.1308L245.537 15.9142L165.885 10.1227Z" fill="#3D8BF2"/>
<path d="M344.197 80.2476L261.872 41.5924L261.78 41.4553L243.96 13.4463L344.745 79.2538L344.185 80.2476H344.197ZM262.66 40.69L337.286 75.7355L247.764 17.2844L262.66 40.69Z" fill="#3D8BF2"/>
<path d="M386.45 201.994L344.653 133.57L343.819 76.1016L386.45 201.994ZM345.796 133.239L382.086 192.65L345.076 83.3551L345.807 133.25L345.796 133.239Z" fill="#3D8BF2"/>
<path d="M345.819 134.918L259.953 39.4224L345.008 79.3569V79.711L345.819 134.918ZM264.579 42.8607L344.631 131.902L343.877 80.0994L264.579 42.8607Z" fill="#3D8BF2"/>
<path d="M129.879 72.949L56.9321 57.4138L162.309 7.98682L129.879 72.9604V72.949ZM60.4961 57.014L129.251 71.6468L159.818 10.4085L60.4961 57.014Z" fill="#3D8BF2"/>
<path d="M24.1606 163.658L58.3266 56.5453L130.805 71.9777L24.1606 163.658ZM59.1034 57.8818L26.4795 160.163L128.315 72.6173L59.1034 57.8818Z" fill="#3D8BF2"/>
<path d="M128.508 73.1324L160.767 8.50146L264.418 41.2167L128.508 73.1324ZM161.349 9.88364L130.61 71.4647L260.1 41.0568L161.349 9.88364Z" fill="#3D8BF2"/>
<path d="M117.051 197.927L24.2285 162.105L24.9482 161.488L130.279 70.9269L117.051 197.927ZM26.4217 161.728L116.08 196.328L128.851 73.6684L26.4217 161.728Z" fill="#3D8BF2"/>
<path d="M247.021 156.622L246.256 156.074L128.2 72.0352L262.945 40.3937L247.021 156.622ZM130.93 72.5721L246.142 154.6L261.586 41.8901L130.919 72.5721H130.93Z" fill="#3D8BF2"/>
<path d="M115.909 197.938L116 197.07L129.102 71.2695L247.843 155.799L115.909 197.938ZM130.027 73.3371L117.222 196.328L245.319 155.411L130.027 73.3371Z" fill="#3D8BF2"/>
<path d="M245.902 156.348L261.872 39.8451L346.298 133.753L245.902 156.348ZM262.66 42.4381L247.25 154.863L344.14 133.056L262.66 42.4267V42.4381Z" fill="#3D8BF2"/>
<path d="M245.867 20.5631C248.735 20.5631 251.065 18.2328 251.065 15.3656C251.065 12.4985 248.735 10.1682 245.867 10.1682C243 10.1682 240.67 12.4985 240.67 15.3656C240.67 18.2328 243 20.5631 245.867 20.5631Z" fill="#3D8BF2"/>
<path d="M344.447 84.9201C347.315 84.9201 349.645 82.5899 349.645 79.7227C349.645 76.8555 347.315 74.5253 344.447 74.5253C341.58 74.5253 339.25 76.8555 339.25 79.7227C339.25 82.5899 341.58 84.9201 344.447 84.9201Z" fill="#3D8BF2"/>
<path d="M63.911 57.219C63.911 54.3519 61.5807 52.0216 58.7135 52.0216C55.8464 52.0216 53.5161 54.3519 53.5161 57.219C53.5161 60.0862 55.8464 62.4165 58.7135 62.4165C61.5807 62.4165 63.911 60.0862 63.911 57.219Z" fill="#3D8BF2"/>
<path d="M161.064 4C158.196 4 155.866 6.33028 155.866 9.19743C155.866 12.0646 158.196 14.3949 161.064 14.3949C163.931 14.3949 166.261 12.0646 166.261 9.19743C166.261 6.33028 163.931 4 161.064 4Z" fill="#3D8BF2"/>
<path d="M129.559 66.5295C126.372 66.5295 123.791 69.1111 123.791 72.2981C123.791 75.4851 126.372 78.0667 129.559 78.0667C132.746 78.0667 135.328 75.4851 135.328 72.2981C135.328 69.1111 132.746 66.5295 129.559 66.5295Z" fill="#3D8BF2"/>
<path d="M262.27 35.3671C259.083 35.3671 256.501 37.9486 256.501 41.1356C256.501 44.3226 259.083 46.9042 262.27 46.9042C265.457 46.9042 268.039 44.3226 268.039 41.1356C268.039 37.9486 265.457 35.3671 262.27 35.3671Z" fill="#3D8BF2"/>
</g>
<defs>
<filter id="filter0_f_68_9459" x="-4" y="0" width="397.464" height="389.332" filterUnits="userSpaceOnUse" color-interpolation-filters="sRGB">
<feFlood flood-opacity="0" result="BackgroundImageFix"/>
<feBlend mode="normal" in="SourceGraphic" in2="BackgroundImageFix" result="shape"/>
<feGaussianBlur stdDeviation="2" result="effect1_foregroundBlur_68_9459"/>
</filter>
</defs>
</svg>
