<svg width="207" height="60" viewBox="0 0 207 60" fill="none" xmlns="http://www.w3.org/2000/svg">
<g clip-path="url(#clip0_62_873)">
<path d="M29.366 20.412V21.7202C29.366 21.8406 29.4628 21.9382 29.5822 21.9382H30.8795C30.9989 21.9382 31.0957 21.8406 31.0957 21.7202V20.412C31.0957 20.2916 30.9989 20.194 30.8795 20.194H29.5822C29.4628 20.194 29.366 20.2916 29.366 20.412Z" fill="#3D8BF2"/>
<path d="M24.1519 10.2181V11.5262C24.1519 11.6466 24.2487 11.7443 24.3681 11.7443H25.6654C25.7848 11.7443 25.8816 11.6466 25.8816 11.5262V10.2181C25.8816 10.0976 25.7848 10 25.6654 10H24.3681C24.2487 10 24.1519 10.0976 24.1519 10.2181Z" fill="#3D8BF2"/>
<path d="M32.7174 16.0514H31.339L29.3454 13.9812V12.612C29.3454 12.1302 28.9584 11.7399 28.4806 11.7399H26.7508C26.273 11.7399 25.8859 12.1302 25.8859 12.612V14.0619L24.0675 16.0514H22.7983C22.3205 16.0514 21.9335 16.4417 21.9335 16.9236V18.6678C21.9335 19.1496 22.3205 19.5399 22.7983 19.5399H24.5281C25.0059 19.5399 25.393 19.1496 25.393 18.6678V17.1743L27.1714 15.2273H28.1346L30.1217 17.2909V18.6667C30.1217 19.1486 30.5087 19.5388 30.9865 19.5388H32.7163C33.1941 19.5388 33.5811 19.1486 33.5811 18.6667V16.9225C33.5811 16.4406 33.1941 16.0503 32.7163 16.0503L32.7174 16.0514Z" fill="#373748"/>
<path d="M17.2383 38.9197L17.2053 38.9526C15.1691 40.9889 15.1691 44.2897 17.2053 46.3248C17.9232 47.0427 21.0045 50 21.0045 50C21.0045 50 23.2603 47.6432 24.5776 46.3248L31.8477 39.0547C31.8938 39.0097 31.9421 38.9669 31.9882 38.9208C36.0608 34.8482 36.0608 28.2455 31.9882 24.1719C27.9157 20.0994 21.3119 20.0994 17.2394 24.1719C13.1668 28.2444 13.1668 34.846 17.2372 38.9186L17.2383 38.9197Z" fill="url(#paint0_linear_62_873)"/>
<path d="M32.007 24.1554C29.8763 22.0248 27.0519 21.0105 24.2604 21.1093C26.8038 21.1993 29.3208 22.2136 31.2627 24.1554C35.3352 28.2279 35.3352 34.8318 31.2627 38.9043C31.2166 38.9504 31.1694 38.9932 31.1222 39.0382L24.4931 46.2184C23.7983 46.9132 22.7653 48.079 21.9431 49.0252C22.717 48.2217 23.8191 47.0856 24.5952 46.3095L31.8653 39.0393C31.9115 38.9943 31.9598 38.9515 32.0059 38.9054C36.0784 34.8329 36.0784 28.2301 32.0059 24.1565L32.007 24.1554Z" fill="#373748" fill-opacity="0.25"/>
<path opacity="0.25" d="M17.4446 34.7176L17.4205 34.7417C15.9287 36.2335 15.9287 38.6518 17.4205 40.1436C18.9123 41.6354 21.3305 41.6354 22.8223 40.1436L28.1484 34.8175C28.1825 34.7846 28.2176 34.7538 28.2516 34.7198C31.2352 31.7362 31.2352 26.8986 28.2516 23.915C25.268 20.9314 20.4304 20.9314 17.4468 23.915C14.4632 26.8986 14.4632 31.7351 17.4457 34.7187L17.4446 34.7176Z" fill="#373748"/>
<path d="M17.1334 24.3117L9.37136 32.0737C7.22794 34.2171 7.22794 37.6923 9.37136 39.8357C11.5148 41.9791 14.9899 41.9791 17.1334 39.8357L24.8954 32.0737C27.0388 29.9303 27.0388 26.4551 24.8954 24.3117C22.752 22.1683 19.2768 22.1683 17.1334 24.3117Z" fill="url(#paint1_linear_62_873)"/>
<path d="M9.31163 32.1369V32.1303L17.1317 24.3102C19.2756 22.1664 19.2756 18.6921 17.1317 16.5483L13.2513 12.6667L1.60788 24.3102C-0.535959 26.454 -0.535959 29.9283 1.60788 32.0721L5.48939 35.9536L9.2776 39.7375C7.25122 37.6079 7.2622 34.2533 9.31163 32.138V32.1369Z" fill="url(#paint2_linear_62_873)"/>
<path d="M17.134 16.5483L13.2536 12.6667L13.2492 12.6711L16.7256 16.4802C18.8695 18.624 18.6763 22.1664 16.5335 24.3102L8.71343 32.1303V32.1369C6.73864 34.1754 7.16455 37.3357 9.01091 39.4685L9.27875 39.7364C7.25237 37.6068 7.26335 34.2522 9.31278 32.1369V32.1303L17.1329 24.3102C19.2767 22.1664 19.2767 18.6921 17.1329 16.5483H17.134Z" fill="#373748" fill-opacity="0.25"/>
<path d="M43.0602 29.9688H49.0446C49.0446 30.6458 49.1435 31.224 49.3414 31.7031C49.5393 32.1823 49.8727 32.5469 50.3414 32.7969C50.8102 33.0469 51.4508 33.1719 52.2633 33.1719C52.7946 33.1719 53.2529 33.1042 53.6383 32.9688C54.0237 32.8333 54.3206 32.6354 54.5289 32.375C54.7373 32.1042 54.8414 31.7708 54.8414 31.375C54.8414 30.9062 54.6279 30.5156 54.2008 30.2031C53.7841 29.8906 53.305 29.6406 52.7633 29.4531C52.2321 29.2552 51.7998 29.1094 51.4664 29.0156C50.6227 28.776 49.7425 28.4792 48.8258 28.125C47.9196 27.7604 47.0706 27.2917 46.2789 26.7188C45.4977 26.1458 44.8623 25.4375 44.3727 24.5938C43.8831 23.7396 43.6383 22.7083 43.6383 21.5C43.6383 19.9896 43.9925 18.724 44.7008 17.7031C45.4196 16.6719 46.3727 15.8906 47.5602 15.3594C48.7581 14.8281 50.0758 14.5625 51.5133 14.5625C53.4404 14.5625 55.0758 14.8906 56.4196 15.5469C57.7737 16.2031 58.805 17.1302 59.5133 18.3281C60.2321 19.5156 60.5914 20.9062 60.5914 22.5H54.6071C54.6071 21.9688 54.5237 21.5052 54.3571 21.1094C54.1904 20.7031 53.9143 20.3854 53.5289 20.1562C53.1435 19.9271 52.6175 19.8125 51.9508 19.8125C51.4716 19.8125 51.055 19.8802 50.7008 20.0156C50.3571 20.1406 50.0914 20.3281 49.9039 20.5781C49.7164 20.8177 49.6227 21.1146 49.6227 21.4688C49.6227 21.9479 49.8466 22.349 50.2946 22.6719C50.7425 22.9948 51.2477 23.25 51.8102 23.4375C52.3831 23.625 52.8466 23.7656 53.2008 23.8594C54.0446 24.0781 54.9091 24.3698 55.7946 24.7344C56.6904 25.099 57.5185 25.5781 58.2789 26.1719C59.0393 26.7552 59.6539 27.4792 60.1227 28.3438C60.6018 29.2083 60.8414 30.25 60.8414 31.4688C60.8414 32.6875 60.6018 33.7344 60.1227 34.6094C59.6435 35.4844 59.0029 36.2031 58.2008 36.7656C57.3987 37.3281 56.5029 37.7448 55.5133 38.0156C54.5237 38.276 53.5185 38.4062 52.4977 38.4062C50.5393 38.4062 48.8518 38.0885 47.4352 37.4531C46.0289 36.8177 44.9456 35.875 44.1852 34.625C43.4352 33.375 43.0602 31.8229 43.0602 29.9688Z" fill="#373748"/>
<path d="M75.8102 20.5H82.3414L73.6071 45.4375H66.7477L69.6852 38.2344L62.9352 20.5H69.4977L72.6696 31.5469L75.8102 20.5Z" fill="#373748"/>
<path d="M90.8571 38.2344H84.7477V20.5H90.5446L90.8571 24.4062V38.2344ZM101.357 25.9688V38.2344H95.2633V28.25C95.2633 27.7604 95.0706 27.3333 94.6852 26.9688C94.3102 26.6042 93.7685 26.4219 93.0602 26.4219C92.3623 26.4219 91.8206 26.6042 91.4352 26.9688C91.0498 27.3229 90.8571 27.75 90.8571 28.25L90.0758 25.9688C90.0758 24.9062 90.2998 23.9531 90.7477 23.1094C91.1956 22.2552 91.8414 21.5781 92.6852 21.0781C93.5289 20.5781 94.5393 20.3281 95.7164 20.3281C96.8935 20.3281 97.9039 20.5833 98.7477 21.0938C99.5914 21.5938 100.237 22.2708 100.685 23.125C101.133 23.9688 101.357 24.9167 101.357 25.9688Z" fill="#373748"/>
<path d="M112.56 20.3438C114.269 20.3438 115.722 20.6562 116.92 21.2812C118.117 21.8958 119.029 22.7552 119.654 23.8594C120.289 24.9531 120.607 26.224 120.607 27.6719H114.716C114.716 26.7448 114.498 26.099 114.06 25.7344C113.623 25.3594 113.117 25.1719 112.545 25.1719C111.795 25.1719 111.201 25.4844 110.763 26.1094C110.336 26.7344 110.123 27.8021 110.123 29.3125C110.123 30.8646 110.336 31.9583 110.763 32.5938C111.201 33.2292 111.795 33.5469 112.545 33.5469C113.117 33.5469 113.623 33.3594 114.06 32.9844C114.498 32.6094 114.716 31.9635 114.716 31.0469H120.607C120.607 32.4948 120.289 33.7708 119.654 34.875C119.029 35.9688 118.117 36.8281 116.92 37.4531C115.722 38.0677 114.269 38.375 112.56 38.375C110.612 38.375 109.003 37.9948 107.732 37.2344C106.472 36.4635 105.534 35.401 104.92 34.0469C104.315 32.6927 104.013 31.1302 104.013 29.3594C104.013 27.5885 104.315 26.026 104.92 24.6719C105.534 23.3177 106.472 22.2604 107.732 21.5C109.003 20.7292 110.612 20.3438 112.56 20.3438Z" fill="#373748"/>
<path d="M130.576 20.3281C133.034 20.3281 134.904 20.9062 136.185 22.0625C137.466 23.2083 138.019 24.8073 137.841 26.8594L133.06 26.7031C133.06 26.1823 132.847 25.776 132.42 25.4844C131.992 25.1927 131.394 25.0469 130.623 25.0469C129.987 25.0469 129.477 25.1406 129.091 25.3281C128.716 25.5156 128.529 25.7708 128.529 26.0938C128.529 26.3854 128.727 26.6406 129.123 26.8594C129.529 27.0677 130.222 27.276 131.201 27.4844C133.565 27.9948 135.3 28.6875 136.404 29.5625C137.508 30.4375 138.06 31.5573 138.06 32.9219C138.06 34.0156 137.737 34.974 137.091 35.7969C136.456 36.6094 135.56 37.2448 134.404 37.7031C133.248 38.1615 131.899 38.3906 130.357 38.3906C127.867 38.3906 125.946 37.8021 124.591 36.625C123.237 35.4375 122.659 33.8385 122.857 31.8281L127.638 32.0156C127.638 32.5781 127.878 32.9948 128.357 33.2656C128.836 33.5365 129.565 33.6719 130.545 33.6719C131.232 33.6719 131.742 33.6042 132.076 33.4688C132.42 33.3333 132.591 33.1302 132.591 32.8594C132.591 32.526 132.347 32.2344 131.857 31.9844C131.367 31.724 130.581 31.4792 129.498 31.25C127.269 30.7604 125.644 30.0885 124.623 29.2344C123.612 28.3802 123.107 27.2552 123.107 25.8594C123.107 24.151 123.779 22.8021 125.123 21.8125C126.466 20.8229 128.284 20.3281 130.576 20.3281Z" fill="#373748"/>
<path d="M140.904 20.5H146.998V44.9375H140.904V20.5ZM157.185 29.3594C157.185 30.974 156.972 32.4688 156.545 33.8438C156.117 35.2083 155.451 36.3073 154.545 37.1406C153.638 37.974 152.461 38.3906 151.013 38.3906C149.597 38.3906 148.425 37.9948 147.498 37.2031C146.581 36.401 145.789 35.3333 145.123 34L146.716 32.3438C146.977 32.7708 147.274 33.0833 147.607 33.2812C147.951 33.4688 148.321 33.5625 148.716 33.5625C149.383 33.5625 149.946 33.2083 150.404 32.5C150.873 31.7917 151.107 30.7448 151.107 29.3594C151.107 27.974 150.873 26.9323 150.404 26.2344C149.946 25.5365 149.383 25.1875 148.716 25.1875C148.321 25.1875 147.951 25.2812 147.607 25.4688C147.274 25.6562 146.977 25.9635 146.716 26.3906L145.123 24.75C145.789 23.4167 146.581 22.349 147.498 21.5469C148.425 20.7448 149.597 20.3438 151.013 20.3438C152.461 20.3438 153.638 20.7604 154.545 21.5938C155.451 22.4167 156.117 23.5156 156.545 24.8906C156.972 26.2552 157.185 27.7448 157.185 29.3594Z" fill="#373748"/>
<path d="M165.029 31.1406C165.133 31.9219 165.388 32.5208 165.795 32.9375C166.201 33.3438 166.769 33.5469 167.498 33.5469C167.925 33.5469 168.315 33.4479 168.67 33.25C169.034 33.0521 169.295 32.7604 169.451 32.375L175.295 33.2188C174.732 34.8854 173.789 36.1667 172.466 37.0625C171.144 37.9583 169.409 38.4062 167.263 38.4062C165.367 38.4062 163.795 38.026 162.545 37.2656C161.295 36.4948 160.362 35.4323 159.748 34.0781C159.133 32.7135 158.826 31.1458 158.826 29.375C158.826 27.5938 159.138 26.026 159.763 24.6719C160.388 23.3177 161.321 22.2604 162.56 21.5C163.81 20.7292 165.362 20.3438 167.216 20.3438C168.956 20.3438 170.404 20.6198 171.56 21.1719C172.727 21.724 173.638 22.4948 174.295 23.4844C174.961 24.474 175.409 25.625 175.638 26.9375C175.867 28.2396 175.925 29.6406 175.81 31.1406H165.029ZM165.076 27.6875H169.623C169.623 27 169.503 26.474 169.263 26.1094C169.024 25.7448 168.722 25.5 168.357 25.375C168.003 25.2396 167.649 25.1719 167.295 25.1719C166.795 25.1719 166.3 25.3542 165.81 25.7188C165.321 26.0729 165.076 26.7292 165.076 27.6875Z" fill="#373748"/>
<path d="M178.529 20.5H184.31L184.623 24.4062V38.2344H178.529V20.5ZM190.951 25.9375C190.597 25.8646 190.227 25.8281 189.841 25.8281C188.81 25.8281 187.899 26.1094 187.107 26.6719C186.326 27.2344 185.716 27.9948 185.279 28.9531C184.841 29.9115 184.623 30.9844 184.623 32.1719H183.123C183.123 30.776 183.227 29.3802 183.435 27.9844C183.644 26.5781 184.003 25.2969 184.513 24.1406C185.034 22.9844 185.758 22.0573 186.685 21.3594C187.623 20.651 188.815 20.2969 190.263 20.2969C190.378 20.2969 190.492 20.3021 190.607 20.3125C190.722 20.3125 190.836 20.3177 190.951 20.3281V25.9375Z" fill="#373748"/>
<path d="M205.435 33.5938L206.279 37.5312C205.602 37.8021 204.878 38.0156 204.107 38.1719C203.347 38.3281 202.586 38.4062 201.826 38.4062C200.795 38.4062 199.831 38.2396 198.935 37.9062C198.039 37.5729 197.315 37.0312 196.763 36.2812C196.211 35.5312 195.935 34.5312 195.935 33.2812V15.9688H202.029V32.5625C202.029 32.9896 202.175 33.3125 202.466 33.5312C202.769 33.7396 203.18 33.8438 203.701 33.8438C203.94 33.8438 204.206 33.8281 204.498 33.7969C204.8 33.7552 205.112 33.6875 205.435 33.5938ZM193.685 25.0625V21.5938H205.545V25.0625H193.685Z" fill="#373748"/>
</g>
<defs>
<linearGradient id="paint0_linear_62_873" x1="24.6137" y1="21.1175" x2="24.6137" y2="50" gradientUnits="userSpaceOnUse">
<stop stop-color="#373748"/>
<stop offset="1" stop-color="#3D8BF2"/>
</linearGradient>
<linearGradient id="paint1_linear_62_873" x1="10.6678" y1="40.6675" x2="25.7793" y2="25.556" gradientUnits="userSpaceOnUse">
<stop stop-color="#373748"/>
<stop offset="0.5" stop-color="#3D8BF2"/>
<stop offset="1" stop-color="#373748"/>
</linearGradient>
<linearGradient id="paint2_linear_62_873" x1="9.36981" y1="12.6667" x2="9.36981" y2="39.7375" gradientUnits="userSpaceOnUse">
<stop stop-color="#373748"/>
<stop offset="1" stop-color="#3D8BF2"/>
</linearGradient>
<clipPath id="clip0_62_873">
<rect width="206.279" height="60" fill="white"/>
</clipPath>
</defs>
</svg>
