<svg width="322" height="64" viewBox="0 0 322 64" fill="none" xmlns="http://www.w3.org/2000/svg">
<path fill-rule="evenodd" clip-rule="evenodd" d="M58.0993 17.4316C58.9218 17.4933 60.5036 17.1849 61.9589 17.2466C62.4018 17.2466 62.8447 17.3083 63.2243 17.3083C63.4999 17.3194 63.4999 17.4471 63.4999 17.4813C63.4999 17.543 63.4452 17.5892 63.2876 17.6167C61.0731 18.1102 56.4542 19.4674 52.7212 22.4902C50.3802 24.2175 48.9882 25.9448 46.9002 28.1039C43.9898 31.0033 40.9527 33.841 35.5114 34.5813C35.5114 34.643 34.8154 34.8898 34.8154 34.9515C33.8663 35.63 30.7028 38.6528 30.6395 47.7212C30.6395 48.3998 30.4497 48.5232 30.2599 47.9063C29.2475 45.0068 29.6904 43.0945 28.6781 41.1821C28.5119 39.4971 28.5544 37.7987 28.8046 36.1236C29.094 33.3716 29.7754 30.6724 30.8293 28.1039C28.9944 29.1527 19.0608 23.4155 14.8849 21.2564C11.0886 19.344 6.46978 19.5908 2.92658 19.4674C1.5346 19.4057 2.10405 19.5908 0.648804 19.344C2.04078 18.8505 5.01453 17.6784 7.54539 16.9998C11.7846 15.8277 17.4157 15.8894 23.8062 16.6914C28.9312 17.3576 32.4743 19.0356 36.8401 19.8252C42.4712 19.4551 46.0777 18.1596 49.3046 17.4193C51.2027 16.9998 57.2768 17.3576 58.0993 17.4316Z" fill="url(#paint0_linear_62_8151)"/>
<path fill-rule="evenodd" clip-rule="evenodd" d="M63.2463 17.283C62.8665 17.283 62.4235 17.216 61.9172 17.216C60.4614 17.1491 53.6891 17.1491 52.9296 17.0821C52.0435 17.6177 42.1699 19.0906 37.1698 18.6889C32.8026 17.8185 28.3088 16.0779 23.1821 15.4084C17.6836 14.6155 12.0911 14.9795 6.72603 16.4796C4.19433 17.216 0.903113 18.6755 0.523358 19.5592C0.499212 19.6688 0.499211 19.5953 0.523365 19.714C0.903121 19.647 1.21958 19.4922 1.59933 19.4253C7.16908 18.0863 11.916 17.7516 20.0175 19.9609C26.5366 21.7685 29.0683 23.71 33.8153 24.3795C38.6888 25.1159 42.6129 24.5134 47.613 21.5676C51.6005 19.2244 55.9676 17.5487 63.4994 17.4817C63.4994 17.3344 63.3729 17.283 63.2463 17.283Z" fill="url(#paint1_linear_62_8151)"/>
<path fill-rule="evenodd" clip-rule="evenodd" d="M63.4996 17.4817C62.0033 17.428 59.2058 17.4298 58.36 17.376C57.6596 17.3253 56.964 17.2355 56.2782 17.1073C56.0831 17.0535 55.8879 17.0535 55.6927 16.9998L54.5217 16.6773C53.0241 16.1215 51.4806 15.6544 49.9027 15.2797C46.4547 14.5809 41.8358 15.0002 36.9565 18.7629C39.3865 19.2243 41.8855 19.3873 44.3729 19.2466C48.7968 18.9886 54.652 17.3205 63.4996 17.4817Z" fill="url(#paint2_linear_62_8151)"/>
<path fill-rule="evenodd" clip-rule="evenodd" d="M11.8774 22.1929C14.0485 20.8233 16.4634 19.9049 18.9834 19.4904C11.5544 17.7106 7.03237 18.172 1.67057 19.3585C1.28297 19.4244 0.895367 19.5563 0.507767 19.6222C0.443167 20.0177 0.766167 20.2154 2.05817 20.2154C5.9253 20.3276 9.73772 21.1771 13.2986 22.7202C12.8357 22.5155 12.3611 22.3394 11.8774 22.1929Z" fill="url(#paint3_linear_62_8151)"/>
<path fill-rule="evenodd" clip-rule="evenodd" d="M28.8069 39.9431C28.6979 40.3941 28.6548 40.8579 28.6788 41.3208C28.8764 43.9703 29.4362 46.5819 30.3434 49.0859C30.5354 49.6495 31.0476 49.7747 31.0476 49.0859C31.1116 39.8805 34.8889 35.3091 35.4651 34.6829C35.4651 34.6202 35.5291 34.6202 35.5291 34.5576C32.6481 34.9333 29.7032 35.9854 28.8069 39.9431Z" fill="url(#paint4_linear_62_8151)"/>
<path fill-rule="evenodd" clip-rule="evenodd" d="M33.8997 23.8522C32.3768 23.6638 30.8798 23.3387 29.4319 22.8818C25.3526 23.2243 21.7265 25.6789 20.3667 27.1631C21.1437 27.791 21.856 28.4189 22.4387 28.9898C23.299 29.8159 24.0992 30.6891 24.8345 31.6042C25.4173 32.2892 25.9353 32.1751 25.9353 32.1751C25.9353 32.1751 26.4533 32.2321 27.0361 31.3188C28.1711 30.1061 29.2784 28.9646 30.8508 28.1099C31.5071 27.7532 31.8352 27.3546 33.8997 26.8091C37.2024 26.3768 40.3857 25.4091 43.2887 23.9549C45.6198 22.7562 46.7205 22.1282 48.0156 21.4432C42.9002 23.9664 38.8856 24.423 33.8997 23.8522Z" fill="url(#paint5_linear_62_8151)"/>
<path fill-rule="evenodd" clip-rule="evenodd" d="M19.8441 19.659L18.3548 19.2644C15.8183 19.6366 13.3897 20.5561 11.2322 21.9609C12.0802 22.2617 12.903 22.6312 13.6927 23.0658C16.1464 24.34 18.413 25.956 20.4268 27.8668C21.7866 26.2226 25.4126 23.3289 29.492 22.9343C26.8372 22.0267 24.2471 20.7771 19.8441 19.659Z" fill="url(#paint6_linear_62_8151)"/>
<path d="M110.217 15.0918C110.084 15.5871 110.035 16.0998 110.073 16.61V39.5205C110.043 40.0306 110.091 40.5422 110.217 41.0387C110.313 41.4768 110.568 41.8681 110.936 42.1428C111.398 42.6675 111.929 43.1315 112.517 43.523V43.799H102.31V43.4954C102.863 43.0641 103.391 42.6033 103.891 42.1152C104.182 41.7799 104.423 41.4085 104.61 41.0111C104.743 40.5159 104.792 40.0031 104.754 39.4929V16.748L93.8274 44.075H92.6772L80.7444 19.0943V37.4503C80.7103 38.1434 80.7585 38.8379 80.8882 39.5205C81.0575 40.1224 81.3508 40.6855 81.7508 41.1767C82.4312 42.0245 83.2022 42.8016 84.0511 43.4954V43.7714H76V43.4954C76.8094 42.7528 77.5772 41.9696 78.3003 41.1491C78.6734 40.6421 78.9642 40.0837 79.1629 39.4929C79.2926 38.8103 79.3408 38.1158 79.3067 37.4227V16.7204L77.0064 12.3039V12.1659H83.3322L94.9775 37.0087L104.898 12.1659H112.086V12.4419C111.367 12.994 110.936 13.546 110.505 13.8221C110.648 14.2637 110.361 14.6778 110.217 15.0918Z" fill="#1A0B71"/>
<path d="M137.962 21.0264C137.167 21.8569 136.49 22.7851 135.949 23.7867C135.374 24.834 134.939 25.9469 134.655 27.0991L127.179 49.4575C126.841 50.6799 126.142 51.7823 125.167 52.6319C124.272 53.317 123.146 53.661 122.004 53.598C120.775 53.6381 119.566 53.2995 118.553 52.6319V49.4575C119.41 49.5762 120.276 49.6224 121.141 49.5955C122.47 49.6198 123.791 49.385 125.023 48.9055C126.008 48.364 126.731 47.4713 127.036 46.4212L128.042 43.6609H124.304L117.834 25.7189C117.403 24.6148 116.972 23.6487 116.684 23.0966C116.115 22.3635 115.49 21.6715 114.815 21.0264V20.7504H124.16V21.0264C123.662 21.328 123.264 21.7586 123.01 22.2685C122.847 22.6174 122.75 22.9912 122.722 23.3727C122.71 23.7003 122.759 24.0275 122.866 24.3388C123.05 24.7864 123.194 25.2481 123.298 25.7189L128.761 41.0386L133.505 27.0991C133.612 26.5839 133.756 26.0766 133.936 25.5809C134.054 25.2721 134.103 24.9429 134.08 24.6148C134.071 24.2309 133.972 23.8537 133.793 23.5107C133.505 23.1047 133.167 22.7339 132.786 22.4065C132.156 21.8941 131.483 21.4325 130.774 21.0264V20.7504H138.106V21.0264H137.962Z" fill="#1A0B71"/>
<path d="M151.333 22.4071C150.645 22.0243 149.923 21.701 149.176 21.441C148.615 21.2819 148.036 21.1892 147.451 21.1649C146.467 21.1202 145.498 21.4138 144.719 21.993C144.376 22.2539 144.105 22.5917 143.929 22.9767C143.754 23.3617 143.68 23.7822 143.713 24.2013C143.682 24.8881 143.883 25.5662 144.288 26.1335C144.789 26.7526 145.368 27.309 146.013 27.7897C146.962 28.5133 147.972 29.1597 149.032 29.7219C150.47 30.55 151.62 31.3781 152.483 31.9301C153.3 32.5306 153.984 33.2813 154.496 34.1384C154.985 35.0807 155.231 36.122 155.214 37.1747C155.277 38.4423 154.925 39.6969 154.208 40.7631C153.501 41.7914 152.504 42.6053 151.333 43.1093C149.875 43.6875 148.309 43.9694 146.732 43.9374C144.441 43.955 142.161 43.629 139.975 42.9713L138.969 38.6929H139.256C140.838 39.935 141.988 40.7631 142.85 41.4532C143.536 41.993 144.314 42.4134 145.151 42.6953C145.735 42.9627 146.373 43.1041 147.02 43.1093C147.521 43.154 148.027 43.0904 148.499 42.9232C148.972 42.756 149.4 42.4896 149.751 42.1432C150.101 41.7982 150.371 41.3865 150.545 40.9347C150.718 40.483 150.791 40.0013 150.758 39.521C150.809 38.7889 150.607 38.061 150.183 37.4507C149.682 36.8316 149.102 36.2752 148.457 35.7945C147.443 35.0916 146.387 34.4464 145.294 33.8623C144.001 33.0342 142.85 32.3442 141.988 31.6541C141.16 31.0097 140.475 30.2118 139.975 29.3078C139.502 28.4092 139.256 27.4164 139.256 26.4095C139.214 25.2305 139.567 24.0697 140.263 23.0972C140.984 22.1146 141.981 21.3488 143.138 20.8889C144.545 20.3104 146.065 20.028 147.595 20.0608C148.699 20.0408 149.803 20.0869 150.901 20.1988C152.062 20.3155 153.214 20.4998 154.352 20.7509L154.639 24.3393L154.352 24.4773C153.39 23.7289 152.382 23.0376 151.333 22.4071Z" fill="#1A0B71"/>
<path d="M160.968 20.7513L161.112 14.8167H166.144V20.7513H172.183V21.7174H166.144V38.2793C166.052 39.2716 166.361 40.26 167.007 41.0396C167.329 41.3841 167.731 41.651 168.181 41.8188C168.63 41.9867 169.115 42.0507 169.595 42.0057C170.182 42.005 170.764 41.9117 171.32 41.7297C171.829 41.5875 172.281 41.2984 172.614 40.9016L172.758 41.0396C172.32 41.9889 171.56 42.7675 170.601 43.2478C169.502 43.828 168.261 44.114 167.007 44.0759C166.174 44.1254 165.339 44.0167 164.549 43.7562C163.76 43.4957 163.032 43.0885 162.406 42.5578C161.313 41.3868 160.745 39.8496 160.825 38.2793V21.5794H157.374V20.6133H160.968V20.7513Z" fill="#1A0B71"/>
<path d="M182.963 42.1156C183.377 42.5941 183.861 43.0125 184.4 43.3578V43.6338H174.912V43.3578C175.487 42.8057 176.062 42.3917 176.349 42.1156C176.645 41.8621 176.847 41.523 176.924 41.1495C177.051 40.7475 177.1 40.3264 177.068 39.9074V25.3054C177.098 24.7953 177.05 24.2837 176.924 23.7872C176.791 23.3936 176.597 23.0215 176.349 22.6831C175.898 22.1092 175.366 21.5983 174.768 21.1649V20.8889H182.244V39.935C182.202 40.3541 182.251 40.777 182.388 41.1771C182.388 41.4532 182.675 41.7292 182.963 42.1156ZM176.062 13.436C176.045 13.0189 176.126 12.6034 176.301 12.2209C176.475 11.8384 176.737 11.4988 177.068 11.2278C177.399 10.9421 177.785 10.7219 178.204 10.5798C178.624 10.4377 179.068 10.3765 179.512 10.3997C179.935 10.3761 180.357 10.4376 180.754 10.5802C181.15 10.7228 181.51 10.9434 181.812 11.2278C182.13 11.5094 182.383 11.8509 182.556 12.2309C182.729 12.611 182.819 13.0212 182.819 13.436C182.823 13.8515 182.736 14.2631 182.562 14.6437C182.389 15.0244 182.133 15.3654 181.812 15.6443C181.187 16.1974 180.362 16.4945 179.512 16.4724C178.619 16.4951 177.749 16.2002 177.068 15.6443C176.725 15.3834 176.454 15.0456 176.278 14.6606C176.103 14.2756 176.028 13.8551 176.062 13.436Z" fill="#1A0B71"/>
<path d="M202.228 22.5455C201.507 22.0953 200.735 21.7249 199.928 21.4413C199.366 21.2823 198.787 21.1896 198.202 21.1653C197.367 21.1397 196.541 21.3479 195.827 21.7644C195.112 22.181 194.539 22.788 194.177 23.5116C193.162 25.8209 192.719 28.3248 192.883 30.8264C192.711 33.5498 193.307 36.2674 194.608 38.6932C195.178 39.539 195.969 40.2263 196.903 40.6865C197.836 41.1467 198.879 41.3636 199.928 41.3155C201.237 41.379 202.541 41.1054 203.704 40.5231C204.866 39.9407 205.846 39.0708 206.541 38.0032L206.828 38.1412C206.305 39.9794 205.137 41.588 203.522 42.6957C201.844 43.8353 199.825 44.4169 197.771 44.3519C195.741 44.3952 193.742 43.8674 192.02 42.8337C190.424 41.823 189.174 40.3828 188.426 38.6932C187.579 36.7274 187.186 34.6083 187.276 32.4826C187.217 30.3008 187.659 28.1334 188.57 26.1339C189.374 24.3579 190.729 22.8636 192.452 21.8554C194.428 20.8044 196.662 20.2802 198.921 20.3372C200.075 20.3718 201.227 20.4639 202.372 20.6132C203.666 20.7513 204.959 21.0273 205.966 21.1653L206.11 25.0297H205.822C204.384 23.9256 203.09 23.0975 202.228 22.5455Z" fill="#1A0B71"/>
<path d="M222.068 22.4072C221.381 22.0245 220.659 21.7012 219.912 21.4411C219.351 21.282 218.771 21.1893 218.187 21.1651C217.203 21.1203 216.234 21.4139 215.455 21.9932C215.112 22.254 214.841 22.5918 214.665 22.9769C214.49 23.3619 214.415 23.7824 214.449 24.2014C214.417 24.8883 214.619 25.5663 215.024 26.1336C215.524 26.7528 216.104 27.3092 216.749 27.7898C217.698 28.5135 218.707 29.1598 219.768 29.722C221.206 30.5501 222.356 31.3782 223.219 31.9303C224.003 32.5637 224.681 33.3083 225.231 34.1385C225.72 35.0809 225.967 36.1221 225.95 37.1748C226.007 38.4331 225.655 39.6772 224.944 40.7356C224.237 41.764 223.24 42.5778 222.068 43.0819C220.611 43.66 219.045 43.942 217.468 43.91C215.177 43.9275 212.897 43.6015 210.711 42.9439L209.704 38.6654H209.992C211.573 39.9075 212.724 40.7356 213.586 41.4257C214.271 41.9655 215.05 42.3859 215.886 42.6678C216.47 42.9353 217.108 43.0766 217.755 43.0819C218.257 43.1265 218.763 43.0629 219.235 42.8957C219.708 42.7286 220.135 42.4621 220.487 42.1158C220.837 41.7707 221.107 41.359 221.28 40.9073C221.454 40.4555 221.526 39.9739 221.493 39.4935C221.545 38.7614 221.343 38.0335 220.918 37.4233C220.418 36.8041 219.838 36.2477 219.193 35.7671C218.179 35.0641 217.123 34.419 216.03 33.8349C214.736 33.0068 213.586 32.3167 212.723 31.6266C211.895 30.9823 211.211 30.1843 210.711 29.2804C210.238 28.3818 209.991 27.3889 209.992 26.382C209.95 25.2031 210.303 24.0422 210.998 23.0697C211.72 22.0871 212.717 21.3214 213.874 20.8614C215.281 20.2829 216.8 20.0005 218.33 20.0334C219.435 20.0133 220.539 20.0594 221.637 20.1714C222.798 20.288 223.95 20.4724 225.088 20.7234L225.375 24.3118L225.088 24.4498C223.937 23.6493 222.787 22.9593 222.068 22.4072Z" fill="#1A0B71"/>
<path d="M240.759 44.2141C238.594 44.2547 236.457 43.73 234.577 42.6959C232.855 41.6877 231.5 40.1934 230.696 38.4174C229.798 36.4623 229.357 34.3427 229.402 32.2067C229.357 30.0708 229.798 27.9512 230.696 25.9961C231.493 24.2579 232.789 22.7738 234.434 21.7176C236.241 20.6386 238.346 20.1094 240.472 20.1994C242.329 20.1504 244.165 20.5793 245.791 21.4416C247.24 22.2338 248.396 23.4399 249.098 24.8919C249.85 26.4492 250.242 28.1441 250.248 29.8605C250.285 30.4163 250.237 30.9743 250.104 31.5167H235.009V31.7927C235.009 38.1414 237.597 41.3157 242.772 41.3157C244.273 41.3595 245.76 41.0265 247.085 40.3496C248.332 39.8362 249.385 38.9694 250.104 37.8654L250.392 38.0034C249.862 39.876 248.634 41.4966 246.942 42.5579C245.104 43.6995 242.947 44.2772 240.759 44.2141ZM235.009 29.3084V30.5506H245.073V28.6184C245.136 26.6864 244.794 24.762 244.066 22.9597C243.696 22.3411 243.144 21.8409 242.479 21.5218C241.814 21.2027 241.066 21.0788 240.328 21.1655C239.523 21.1143 238.718 21.2812 238.007 21.6472C237.295 22.0132 236.704 22.5636 236.303 23.2358C235.313 25.1122 234.866 27.2095 235.009 29.3084Z" fill="#1A0B71"/>
<path d="M276.987 42.1161C277.401 42.5946 277.885 43.013 278.424 43.3582V43.6343H268.935V43.3582L270.229 42.1161C270.5 41.8147 270.703 41.4633 270.827 41.0835C270.951 40.7036 270.992 40.3036 270.948 39.9079V27.7625C271.013 26.4741 270.606 25.2045 269.798 24.1741C269.328 23.7305 268.763 23.3898 268.143 23.1754C267.522 22.961 266.861 22.8779 266.204 22.9319C264.328 22.9211 262.522 23.6145 261.172 24.8641V40.0459C261.13 40.465 261.179 40.8878 261.316 41.288C261.478 41.6695 261.67 42.0386 261.891 42.3921C262.247 42.8727 262.684 43.2926 263.185 43.6343V43.9103H253.696V43.6343C254.271 43.0822 254.846 42.6682 255.134 42.3921C255.429 42.1386 255.631 41.7995 255.709 41.426C255.836 41.024 255.884 40.6029 255.852 40.1839V25.5542C255.883 25.0441 255.834 24.5325 255.709 24.0361C255.575 23.6425 255.382 23.2703 255.134 22.9319C254.682 22.3581 254.15 21.8471 253.552 21.4138V21.1377H260.884L261.028 24.3121C261.864 23.1852 262.943 22.2438 264.191 21.5518C265.551 20.8161 267.087 20.4354 268.648 20.4476C269.65 20.3706 270.658 20.5034 271.601 20.8369C272.545 21.1703 273.401 21.6964 274.112 22.3789C274.823 23.0613 275.371 23.8838 275.718 24.7895C276.066 25.6951 276.204 26.6624 276.124 27.6245V40.0459C276.082 40.465 276.131 40.8878 276.268 41.288C276.536 41.5397 276.777 41.8172 276.987 42.1161Z" fill="#1A0B71"/>
<path d="M293.667 22.4071C292.979 22.0243 292.257 21.701 291.51 21.441C290.949 21.2819 290.37 21.1892 289.785 21.1649C288.801 21.1202 287.832 21.4138 287.053 21.993C286.71 22.2539 286.439 22.5917 286.263 22.9767C286.088 23.3617 286.013 23.7822 286.047 24.2013C286.016 24.8881 286.217 25.5662 286.622 26.1335C287.123 26.7526 287.702 27.309 288.347 27.7897C289.296 28.5133 290.306 29.1597 291.366 29.7219C292.804 30.55 293.954 31.3781 294.817 31.9301C295.601 32.5635 296.28 33.3082 296.83 34.1384C297.319 35.0807 297.565 36.122 297.548 37.1747C297.611 38.4423 297.259 39.6969 296.542 40.7631C295.835 41.7914 294.838 42.6053 293.667 43.1093C292.209 43.6875 290.643 43.9694 289.066 43.9374C286.775 43.955 284.495 43.629 282.309 42.9713L281.302 38.6929H281.59C283.171 39.935 284.322 40.7631 285.184 41.4532C285.87 41.993 286.648 42.4134 287.485 42.6953C288.069 42.9627 288.707 43.1041 289.354 43.1093C289.855 43.154 290.361 43.0904 290.833 42.9232C291.306 42.756 291.734 42.4896 292.085 42.1432C292.435 41.7982 292.705 41.3865 292.879 40.9347C293.052 40.483 293.125 40.0013 293.092 39.521C293.143 38.7889 292.941 38.061 292.517 37.4507C292.016 36.8316 291.436 36.2752 290.791 35.7945C289.777 35.0916 288.721 34.4464 287.628 33.8623C286.334 33.0342 285.184 32.3442 284.322 31.6541C283.493 31.0097 282.809 30.2118 282.309 29.3078C281.836 28.4092 281.589 27.4164 281.59 26.4095C281.548 25.2305 281.901 24.0697 282.596 23.0972C283.318 22.1146 284.315 21.3488 285.472 20.8889C286.879 20.3104 288.398 20.028 289.929 20.0608C291.033 20.0408 292.137 20.0869 293.235 20.1988C294.396 20.3155 295.548 20.4998 296.686 20.7509L296.973 24.3393L296.686 24.4773C295.724 23.7289 294.716 23.0376 293.667 22.4071Z" fill="#1A0B71"/>
<path d="M312.499 44.2141C310.334 44.2548 308.197 43.73 306.317 42.6959C304.595 41.6877 303.24 40.1934 302.436 38.4175C301.538 36.4624 301.097 34.3427 301.142 32.2068C301.097 30.0708 301.538 27.9512 302.436 25.9961C303.233 24.2579 304.529 22.7738 306.174 21.7176C307.981 20.6386 310.086 20.1094 312.212 20.1994C314.069 20.1504 315.905 20.5793 317.531 21.4416C318.98 22.2338 320.136 23.4399 320.838 24.8919C321.59 26.4492 321.982 28.1441 321.988 29.8605C322.025 30.4163 321.976 30.9744 321.844 31.5167H306.605V31.7927C306.605 38.1414 309.193 41.3158 314.368 41.3158C315.869 41.3596 317.356 41.0266 318.681 40.3497C319.928 39.8362 320.981 38.9695 321.701 37.8654L321.988 38.0034C321.458 39.876 320.23 41.4967 318.538 42.5579C316.76 43.7141 314.645 44.2945 312.499 44.2141ZM306.749 29.3084V30.5506H316.812V28.6184C316.876 26.6865 316.533 24.7621 315.806 22.9597C315.436 22.3411 314.884 21.8409 314.219 21.5218C313.554 21.2027 312.806 21.0788 312.068 21.1655C311.263 21.1143 310.458 21.2812 309.747 21.6472C309.035 22.0132 308.444 22.5636 308.043 23.2358C307.053 25.1122 306.606 27.2095 306.749 29.3084Z" fill="#1A0B71"/>
<defs>
<linearGradient id="paint0_linear_62_8151" x1="29.2222" y1="26.8948" x2="58.6465" y2="11.1828" gradientUnits="userSpaceOnUse">
<stop stop-color="#8C49F4"/>
<stop offset="0.38" stop-color="#8F9DFA"/>
<stop offset="0.65" stop-color="#91D2FE"/>
<stop offset="0.78" stop-color="#92E6FF"/>
</linearGradient>
<linearGradient id="paint1_linear_62_8151" x1="0.460087" y1="19.8337" x2="63.4995" y2="19.8337" gradientUnits="userSpaceOnUse">
<stop stop-color="#8020C5"/>
<stop offset="1" stop-color="#18092A"/>
</linearGradient>
<linearGradient id="paint2_linear_62_8151" x1="36.924" y1="17.1503" x2="62.4" y2="17.1503" gradientUnits="userSpaceOnUse">
<stop stop-color="#9F24F6"/>
<stop offset="1" stop-color="#5F00C1"/>
</linearGradient>
<linearGradient id="paint3_linear_62_8151" x1="-0.0219539" y1="21.336" x2="20.7772" y2="19.8479" gradientUnits="userSpaceOnUse">
<stop stop-color="#8C49F4"/>
<stop offset="0.22" stop-color="#866AF7"/>
<stop offset="0.59" stop-color="#7D9FFB"/>
<stop offset="0.78" stop-color="#79B3FD"/>
</linearGradient>
<linearGradient id="paint4_linear_62_8151" x1="32.9234" y1="34.4825" x2="29.17" y2="48.808" gradientUnits="userSpaceOnUse">
<stop stop-color="#6012CE"/>
<stop offset="0.09" stop-color="#631DD0"/>
<stop offset="0.25" stop-color="#693AD7"/>
<stop offset="0.46" stop-color="#7469E2"/>
<stop offset="0.7" stop-color="#84A9F1"/>
<stop offset="0.92" stop-color="#92E6FF"/>
</linearGradient>
<linearGradient id="paint5_linear_62_8151" x1="36.7423" y1="21.3747" x2="28.0538" y2="34.223" gradientUnits="userSpaceOnUse">
<stop stop-color="#5804B2"/>
<stop offset="0.15" stop-color="#590FB7"/>
<stop offset="0.42" stop-color="#5B2CC5"/>
<stop offset="0.77" stop-color="#5F5ADC"/>
<stop offset="0.92" stop-color="#616FE6"/>
</linearGradient>
<linearGradient id="paint6_linear_62_8151" x1="20.7635" y1="17.6991" x2="19.9354" y2="27.1872" gradientUnits="userSpaceOnUse">
<stop offset="0.17" stop-color="#632AD1"/>
<stop offset="0.33" stop-color="#653CD7"/>
<stop offset="0.64" stop-color="#6C6AE7"/>
<stop offset="1" stop-color="#74A6FC"/>
</linearGradient>
</defs>
</svg>
