<svg width="370" height="369" viewBox="0 0 370 369" fill="none" xmlns="http://www.w3.org/2000/svg">
<g opacity="0.25">
<path d="M171.816 268.695L171.45 269.061C148.806 291.705 148.806 328.411 171.45 351.043C179.433 359.026 213.698 391.912 213.698 391.912C213.698 391.912 238.783 365.703 253.432 351.043L334.278 270.197C334.791 269.696 335.328 269.22 335.84 268.707C381.128 223.42 381.128 149.995 335.84 104.696C290.553 59.4081 217.116 59.4081 171.829 104.696C126.541 149.983 126.541 223.395 171.804 268.683L171.816 268.695Z" fill="url(#paint0_linear_97_1134)"/>
<path d="M336.047 104.513C312.353 80.8191 280.945 69.5399 249.903 70.6386C278.186 71.6395 306.177 82.9187 327.771 104.513C373.058 149.8 373.058 223.237 327.771 268.524C327.258 269.037 326.733 269.513 326.208 270.014L252.491 349.859C244.764 357.586 233.277 370.55 224.134 381.072C232.74 372.137 244.996 359.502 253.626 350.872L334.472 270.026C334.985 269.525 335.522 269.049 336.035 268.537C381.322 223.249 381.322 149.825 336.035 104.525L336.047 104.513Z" fill="#F8FAF9" fill-opacity="0.25"/>
<path opacity="0.25" d="M174.11 221.967L173.841 222.236C157.252 238.825 157.252 265.717 173.841 282.306C190.431 298.895 217.322 298.895 233.911 282.306L293.139 223.078C293.518 222.712 293.908 222.37 294.287 221.991C327.465 188.813 327.465 135.017 294.287 101.839C261.108 68.6607 207.313 68.6607 174.134 101.839C140.956 135.017 140.956 188.801 174.122 221.979L174.11 221.967Z" fill="#F8FAF9"/>
<path d="M170.65 106.251L84.3341 192.566C60.4987 216.402 60.4987 255.047 84.3341 278.882C108.17 302.717 146.814 302.717 170.65 278.882L256.966 192.566C280.801 168.731 280.801 130.086 256.966 106.251C233.13 82.4151 194.485 82.4151 170.65 106.251Z" fill="url(#paint1_linear_97_1134)"/>
<path d="M83.6686 193.269V193.195L170.631 106.234C194.471 82.3936 194.471 43.7588 170.631 19.9187L127.479 -23.2449L-1.99935 106.234C-25.8394 130.074 -25.8394 168.708 -1.99935 192.549L41.1642 235.712L83.2902 277.789C60.7563 254.108 60.8783 216.804 83.6686 193.281V193.269Z" fill="url(#paint2_linear_97_1134)"/>
<path d="M170.655 19.9187L127.504 -23.2449L127.455 -23.196L166.115 19.1619C189.955 43.0019 187.806 82.3936 163.978 106.234L77.0164 193.195V193.269C55.0562 215.937 59.7925 251.081 80.3245 274.799L83.303 277.777C60.769 254.096 60.8911 216.791 83.6814 193.269V193.195L170.643 106.234C194.483 82.3936 194.483 43.7588 170.643 19.9187H170.655Z" fill="#F8FAF9" fill-opacity="0.25"/>
</g>
<defs>
<linearGradient id="paint0_linear_97_1134" x1="253.833" y1="70.73" x2="253.833" y2="391.912" gradientUnits="userSpaceOnUse">
<stop stop-color="#F8FAF9"/>
<stop offset="1" stop-color="#3D8BF2"/>
</linearGradient>
<linearGradient id="paint1_linear_97_1134" x1="98.7509" y1="288.132" x2="266.795" y2="120.088" gradientUnits="userSpaceOnUse">
<stop stop-color="#F8FAF9"/>
<stop offset="0.5" stop-color="#3D8BF2"/>
<stop offset="1" stop-color="#F8FAF9"/>
</linearGradient>
<linearGradient id="paint2_linear_97_1134" x1="84.3156" y1="-23.2449" x2="84.3156" y2="277.789" gradientUnits="userSpaceOnUse">
<stop stop-color="#F8FAF9"/>
<stop offset="1" stop-color="#3D8BF2"/>
</linearGradient>
</defs>
</svg>
