<svg width="71" height="80" viewBox="0 0 71 80" fill="none" xmlns="http://www.w3.org/2000/svg">
<path d="M58.7318 20.824V23.4404C58.7318 23.6812 58.9254 23.8765 59.1642 23.8765H61.7589C61.9977 23.8765 62.1913 23.6812 62.1913 23.4404V20.824C62.1913 20.5832 61.9977 20.388 61.7589 20.388H59.1642C58.9254 20.388 58.7318 20.5832 58.7318 20.824Z" fill="#3D8BF2"/>
<path d="M48.3036 0.436107V3.05247C48.3036 3.29329 48.4972 3.48853 48.736 3.48853H51.3306C51.5695 3.48853 51.7631 3.29329 51.7631 3.05247V0.436107C51.7631 0.195278 51.5695 4.69685e-05 51.3306 4.69685e-05H48.736C48.4972 4.69685e-05 48.3036 0.195278 48.3036 0.436107Z" fill="#3D8BF2"/>
<path d="M65.4346 12.1028H62.6778L58.6907 7.96243V5.22398C58.6907 4.26028 57.9167 3.47974 56.961 3.47974H53.5015C52.5458 3.47974 51.7718 4.26028 51.7718 5.22398V8.12377L48.135 12.1028H45.5966C44.6409 12.1028 43.8668 12.8834 43.8668 13.8471V17.3355C43.8668 18.2992 44.6409 19.0798 45.5966 19.0798H49.0561C50.0117 19.0798 50.7858 18.2992 50.7858 17.3355V14.3485L54.3426 10.4545H56.2691L60.2432 14.5818V17.3334C60.2432 18.297 61.0173 19.0776 61.9729 19.0776H65.4324C66.3881 19.0776 67.1622 18.297 67.1622 17.3334V13.8449C67.1622 12.8812 66.3881 12.1006 65.4324 12.1006L65.4346 12.1028Z" fill="#F8FAF9"/>
<path d="M34.4766 57.8395L34.4108 57.9053C30.3383 61.9778 30.3383 68.5795 34.4108 72.6498C35.8466 74.0856 42.0092 80.0001 42.0092 80.0001C42.0092 80.0001 46.5208 75.2865 49.1553 72.6498L63.6956 58.1095C63.7878 58.0195 63.8844 57.9339 63.9766 57.8417C72.1216 49.6966 72.1216 36.4911 63.9766 28.3439C55.8316 20.1988 42.6239 20.1988 34.4788 28.3439C26.3338 36.4889 26.3338 49.6922 34.4744 57.8373L34.4766 57.8395Z" fill="url(#paint0_linear_97_1564)"/>
<path d="M64.0139 28.3108C59.7526 24.0495 54.1038 22.0209 48.5208 22.2185C53.6076 22.3985 58.6417 24.4271 62.5254 28.3108C70.6705 36.4558 70.6705 49.6635 62.5254 57.8086C62.4332 57.9008 62.3388 57.9864 62.2444 58.0764L48.9862 72.4367C47.5965 73.8264 45.5306 76.1579 43.8862 78.0504C45.434 76.4434 47.6382 74.1711 49.1904 72.6189L63.7307 58.0786C63.8229 57.9886 63.9195 57.903 64.0117 57.8108C72.1568 49.6657 72.1568 36.4602 64.0117 28.313L64.0139 28.3108Z" fill="#F8FAF9" fill-opacity="0.25"/>
<path opacity="0.25" d="M34.8892 49.4353L34.8409 49.4836C31.8573 52.4672 31.8573 57.3037 34.8409 60.2873C37.8245 63.2709 42.661 63.2709 45.6446 60.2873L56.2969 49.6351C56.3649 49.5692 56.4352 49.5078 56.5032 49.4397C62.4704 43.4725 62.4704 33.7973 56.5032 27.8301C50.536 21.8629 40.8608 21.8629 34.8936 27.8301C28.9264 33.7973 28.9265 43.4703 34.8914 49.4375L34.8892 49.4353Z" fill="#F8FAF9"/>
<path d="M34.2669 28.6234L18.7428 44.1474C14.456 48.4343 14.456 55.3846 18.7428 59.6714C23.0297 63.9583 29.98 63.9583 34.2669 59.6714L49.7909 44.1474C54.0777 39.8606 54.0777 32.9102 49.7909 28.6234C45.504 24.3366 38.5537 24.3366 34.2669 28.6234Z" fill="url(#paint1_linear_97_1564)"/>
<path d="M18.6233 44.2738V44.2606L34.2635 28.6204C38.5512 24.3327 38.5512 17.3842 34.2635 13.0965L26.5027 5.3335L3.21575 28.6204C-1.07192 32.9081 -1.07192 39.8566 3.21575 44.1443L10.9788 51.9073L18.5552 59.475C14.5024 55.2158 14.5244 48.5066 18.6233 44.276V44.2738Z" fill="url(#paint2_linear_97_1564)"/>
<path d="M34.2681 13.0965L26.5073 5.3335L26.4985 5.34228L33.4514 12.9604C37.7391 17.2481 37.3527 24.3327 33.0672 28.6204L17.427 44.2606V44.2738C13.4774 48.3507 14.3292 54.6714 18.0219 58.9371L18.5576 59.4728C14.5049 55.2136 14.5268 48.5044 18.6257 44.2738V44.2606L34.2659 28.6204C38.5536 24.3327 38.5536 17.3842 34.2659 13.0965H34.2681Z" fill="#F8FAF9" fill-opacity="0.25"/>
<defs>
<linearGradient id="paint0_linear_97_1564" x1="49.2274" y1="22.2351" x2="49.2274" y2="80.0001" gradientUnits="userSpaceOnUse">
<stop stop-color="#F8FAF9"/>
<stop offset="1" stop-color="#3D8BF2"/>
</linearGradient>
<linearGradient id="paint1_linear_97_1564" x1="21.3357" y1="61.335" x2="51.5588" y2="31.112" gradientUnits="userSpaceOnUse">
<stop stop-color="#F8FAF9"/>
<stop offset="0.5" stop-color="#3D8BF2"/>
<stop offset="1" stop-color="#F8FAF9"/>
</linearGradient>
<linearGradient id="paint2_linear_97_1564" x1="18.7396" y1="5.3335" x2="18.7396" y2="59.475" gradientUnits="userSpaceOnUse">
<stop stop-color="#F8FAF9"/>
<stop offset="1" stop-color="#3D8BF2"/>
</linearGradient>
</defs>
</svg>
