<svg width="16" height="17" viewBox="0 0 16 17" fill="none" xmlns="http://www.w3.org/2000/svg">
<path d="M14.3333 12.5001L9.90474 8.50008M6.09522 8.50008L1.66667 12.5001M1.33331 5.16675L6.77659 8.97704C7.21737 9.28559 7.43776 9.43986 7.67749 9.49962C7.88924 9.5524 8.11072 9.5524 8.32247 9.49962C8.5622 9.43986 8.78259 9.28559 9.22337 8.97704L14.6666 5.16675M4.53331 13.8334H11.4666C12.5868 13.8334 13.1468 13.8334 13.5746 13.6154C13.951 13.4237 14.2569 13.1177 14.4487 12.7414C14.6666 12.3136 14.6666 11.7535 14.6666 10.6334V6.36675C14.6666 5.24664 14.6666 4.68659 14.4487 4.25877C14.2569 3.88244 13.951 3.57648 13.5746 3.38473C13.1468 3.16675 12.5868 3.16675 11.4666 3.16675H4.53331C3.41321 3.16675 2.85316 3.16675 2.42533 3.38473C2.04901 3.57648 1.74305 3.88244 1.5513 4.25877C1.33331 4.68659 1.33331 5.24664 1.33331 6.36675V10.6334C1.33331 11.7535 1.33331 12.3136 1.5513 12.7414C1.74305 13.1177 2.04901 13.4237 2.42533 13.6154C2.85316 13.8334 3.41321 13.8334 4.53331 13.8334Z" stroke="#373748" stroke-width="1.5" stroke-linecap="round" stroke-linejoin="round"/>
</svg>
