<svg width="41" height="41" viewBox="0 0 41 41" fill="none" xmlns="http://www.w3.org/2000/svg">
<circle cx="20.5" cy="20.5" r="20.5" fill="#373748"/>
<path d="M10.6602 19.5C9.83173 19.5 9.16016 20.1716 9.16016 21C9.16016 21.8284 9.83173 22.5 10.6602 22.5V19.5ZM31.7208 22.0607C32.3066 21.4749 32.3066 20.5251 31.7208 19.9393L22.1749 10.3934C21.5891 9.80761 20.6393 9.80761 20.0536 10.3934C19.4678 10.9792 19.4678 11.9289 20.0536 12.5147L28.5388 21L20.0536 29.4853C19.4678 30.0711 19.4678 31.0208 20.0536 31.6066C20.6393 32.1924 21.5891 32.1924 22.1749 31.6066L31.7208 22.0607ZM10.6602 22.5H30.6602V19.5H10.6602V22.5Z" fill="white"/>
</svg>
