<svg width="668" height="342" viewBox="0 0 668 342" fill="none" xmlns="http://www.w3.org/2000/svg">
<g opacity="0.7">
<path d="M336.042 475.976L393.636 283.574L504.509 422.477L336.042 475.976ZM394.342 287.182L338.601 473.368L501.633 421.599L394.342 287.182Z" fill="#3D8BF2"/>
<path d="M337.723 476.316L336.7 475.268L201.088 335.245L395.22 284.159L337.699 476.292L337.723 476.316ZM204.354 336.147L336.919 473.026L392.734 286.596L204.354 336.147Z" fill="#3D8BF2"/>
<path d="M503.143 423.525L392.245 284.598L593.397 276.921L503.143 423.525ZM395.706 286.158L502.972 420.551L590.277 278.724L395.706 286.158Z" fill="#3D8BF2"/>
<path d="M179.25 517.506L202.087 333.831L338.942 475.122L337.529 475.487L179.25 517.506ZM203.355 337.56L181.273 515.191L335.701 474.195L203.355 337.56Z" fill="#3D8BF2"/>
<path d="M658.206 476.852L656.573 476.292L501.779 422.5L592.081 275.823L658.206 476.852ZM504.338 421.574L655.5 474.098L591.594 279.82L504.338 421.574Z" fill="#3D8BF2"/>
<path d="M201.185 336.976L279.131 170.239L395.658 285.817L201.21 336.976H201.185ZM279.642 173.164L204.281 334.392L392.344 284.915L279.667 173.164H279.642Z" fill="#3D8BF2"/>
<path d="M394.294 286.889L277.742 171.287L463.635 118.763L462.953 120.396L394.27 286.889H394.294ZM281.032 172.14L393.685 283.891L460.735 121.371L281.032 172.14Z" fill="#3D8BF2"/>
<path d="M392.686 286.279L461.93 118.422L593.593 278.602L392.686 286.279ZM462.441 121.712L395.294 284.475L590.108 277.042L462.441 121.712Z" fill="#3D8BF2"/>
<path d="M180.931 517.922L55.58 422.647L203.793 334.051L180.931 517.922ZM58.6266 422.818L179.59 514.753L201.648 337.293L58.6022 422.794L58.6266 422.818Z" fill="#3D8BF2"/>
<path d="M592.106 279.455L591.204 278.358L460.126 118.885L646.019 147.572L592.106 279.479V279.455ZM464.269 121.249L591.594 276.164L643.607 148.912L464.269 121.249Z" fill="#3D8BF2"/>
<path d="M656.621 477.437L656.06 475.731L590.57 276.603L757.355 319.353L756.721 320.352L656.645 477.461L656.621 477.437ZM593.153 279.04L657.108 473.513L754.625 320.45L593.153 279.064V279.04Z" fill="#3D8BF2"/>
<path d="M757.893 321.255L590.693 278.407L591.059 277.505L644.631 146.402L757.868 321.255H757.893ZM593.009 277.237L754.066 318.525L644.972 150.082L593.009 277.237Z" fill="#3D8BF2"/>
<path d="M55.7276 424.572L117.684 199.657L203.916 335.976L55.7276 424.572ZM118.318 203.825L58.5061 420.916L201.552 335.416L118.318 203.825Z" fill="#3D8BF2"/>
<path d="M202.842 337.463L116.61 201.12L280.861 170.556L202.842 337.463ZM119.389 202.339L202.623 333.905L277.911 172.847L119.389 202.339Z" fill="#3D8BF2"/>
<path d="M771.054 524.77L655.599 475.878L756.65 317.257L756.82 319.841L771.03 524.77H771.054ZM658.133 475.073L769.177 522.089L755.333 322.522L658.158 475.073H658.133Z" fill="#3D8BF2"/>
<path d="M278.425 172.871L290.855 47.6418L291.928 48.0806L464.782 120.225L278.425 172.871ZM292.317 50.1035L280.35 170.555L459.59 119.908L292.317 50.1035Z" fill="#3D8BF2"/>
<path d="M115.099 203.143L292.657 46.7899L280.178 172.433L279.544 172.555L115.123 203.143H115.099ZM290.536 50.9333L120.9 200.316L278.618 170.971L290.536 50.9333Z" fill="#3D8BF2"/>
<path d="M462.49 121.103L461.857 120.835L288.076 48.3252L529.931 26.2919L462.49 121.103ZM295.096 49.3976L461.905 119.007L526.421 28.3392L295.12 49.3976H295.096Z" fill="#3D8BF2"/>
<path d="M647.164 149.474L460.685 120.713L528.052 26.0239L528.759 26.7551L647.139 149.474H647.164ZM463.683 119.446L642.435 147.012L528.272 28.6562L463.683 119.422V119.446Z" fill="#3D8BF2"/>
<path d="M57.2137 425.548L13.7077 305.681L119.682 198.829L57.2137 425.548ZM15.6819 306.12L56.9943 419.942L116.294 204.654L15.6819 306.12Z" fill="#3D8BF2"/>
<path d="M13.8059 537.225V301.05L58.0187 422.745L57.8968 423.037L13.7815 537.201L13.8059 537.225ZM15.5364 310.75V528.061L56.1907 422.72L15.5364 310.75Z" fill="#3D8BF2"/>
<path d="M757.234 323.399L643.022 147.06L739.271 163.951L757.234 323.399ZM646.58 149.424L754.724 316.38L737.711 165.389L646.58 149.4V149.424Z" fill="#3D8BF2"/>
<path d="M742.439 166.218L644.362 149.01L522.301 22.4895L742.439 166.242V166.218ZM645.215 147.45L734.542 163.122L534.025 32.1656L645.215 147.45Z" fill="#3D8BF2"/>
<path d="M116.855 203.874L128.043 116.034L128.506 115.839L296.022 46.0829L116.855 203.874ZM129.627 117.228L119.122 199.609L287.15 51.64L129.627 117.228Z" fill="#3D8BF2"/>
<path d="M10.2708 311.554L130.211 112.742L118.804 202.143L118.609 202.338L10.2708 311.554ZM127.481 120.542L19.0938 300.245L117.196 201.339L127.505 120.542H127.481Z" fill="#3D8BF2"/>
<path d="M129.187 117.423L128.504 115.863L346.863 13.3983L347.667 14.8851L292.048 49.5924L129.187 117.423ZM334.627 21.0271L164.186 100.995L291.268 48.0812L334.627 21.0271Z" fill="#3D8BF2"/>
<path d="M288.1 50.0552L347.01 13.3005L528.248 26.4864V28.1925L288.1 50.0552ZM347.424 15.0554L295.071 47.7154L517.695 27.4369L347.4 15.0554H347.424Z" fill="#3D8BF2"/>
</g>
<path d="M393.975 279.187C390.538 279.187 387.784 281.965 387.784 285.377C387.784 288.79 390.563 291.568 393.975 291.568C397.387 291.568 400.166 288.79 400.166 285.377C400.166 281.965 397.387 279.187 393.975 279.187Z" fill="#3D8BF2"/>
<path d="M279.398 163.196C274.694 163.196 270.867 167.022 270.867 171.726C270.867 176.43 274.694 180.257 279.398 180.257C284.102 180.257 287.928 176.43 287.928 171.726C287.928 167.022 284.126 163.196 279.398 163.196Z" fill="#3D8BF2"/>
<path d="M462.196 111.549C457.492 111.549 453.665 115.375 453.665 120.079C453.665 124.783 457.492 128.61 462.196 128.61C466.9 128.61 470.727 124.783 470.727 120.079C470.727 115.375 466.9 111.549 462.196 111.549Z" fill="#3D8BF2"/>
<path d="M644.799 156.761C649.503 156.761 653.33 152.934 653.33 148.23C653.33 143.526 649.528 139.7 644.799 139.7C640.071 139.7 636.269 143.526 636.269 148.23C636.269 152.934 640.071 156.761 644.799 156.761Z" fill="#3D8BF2"/>
<path d="M591.86 270.071C587.57 270.071 584.109 273.532 584.109 277.821C584.109 282.111 587.57 285.572 591.86 285.572C596.149 285.572 599.61 282.111 599.61 277.821C599.61 273.532 596.149 270.071 591.86 270.071Z" fill="#3D8BF2"/>
<path d="M202.718 327.957C198.429 327.957 194.968 331.418 194.968 335.708C194.968 339.997 198.429 343.458 202.718 343.458C207.008 343.458 210.469 339.997 210.469 335.708C210.469 331.418 207.008 327.957 202.718 327.957Z" fill="#3D8BF2"/>
<path d="M291.584 57.3914C296.296 57.3914 300.115 53.5721 300.115 48.8608C300.115 44.1495 296.296 40.3302 291.584 40.3302C286.873 40.3302 283.054 44.1495 283.054 48.8608C283.054 53.5721 286.873 57.3914 291.584 57.3914Z" fill="#3D8BF2"/>
<path d="M126.53 201.73C126.53 197.026 122.728 193.199 118 193.199C113.271 193.199 109.469 197.026 109.469 201.73C109.469 206.434 113.296 210.26 118 210.26C122.704 210.26 126.53 206.434 126.53 201.73Z" fill="#3D8BF2"/>
<g filter="url(#filter0_f_62_3)">
<path d="M58.6461 343.074L13.5071 307.173L133.593 108.118L58.6461 343.074ZM16.7244 306.588L57.4031 338.955L124.965 127.129L16.7244 306.588Z" fill="#3D8BF2"/>
<path d="M13.8713 544.688V304.345L59.4002 340.514L59.2296 341.27L13.8713 544.688ZM16.333 309.414V522.557L56.6704 341.489L16.333 309.414Z" fill="#3D8BF2"/>
<path d="M566.411 85.4742L337.353 13.1836L529.291 27.1494L566.411 85.4986V85.4742ZM357.948 17.132L560.781 81.1602L527.902 29.4892L357.948 17.132Z" fill="#3D8BF2"/>
<path d="M738.412 166.758L562.755 84.2797L562.56 83.9872L524.538 24.2244L739.582 164.638L738.387 166.758H738.412ZM564.436 82.3542L723.666 157.131L532.654 32.4137L564.436 82.3542Z" fill="#3D8BF2"/>
<path d="M741.873 283.408L558.66 79.6492L740.142 164.858V165.613L741.873 283.408ZM568.531 86.9855L739.338 276.974L737.729 166.442L568.531 86.9855Z" fill="#3D8BF2"/>
<path d="M145.804 629.531L13.7261 534.134L57.8658 336.176L145.804 629.506V629.531ZM16.4559 533.111L141.392 623.34L58.207 345.828L16.4559 533.111Z" fill="#3D8BF2"/>
<path d="M281.122 151.184L125.476 118.037L350.318 12.5745L281.122 151.209V151.184ZM133.08 117.184L279.782 148.406L345.004 17.7416L133.08 117.184Z" fill="#3D8BF2"/>
<path d="M55.5507 344.731L128.451 116.184L283.098 149.112L55.5507 344.731ZM130.108 119.036L60.4985 337.272L277.785 150.477L130.108 119.036Z" fill="#3D8BF2"/>
<path d="M278.198 151.575L347.028 13.6719L568.189 83.4764L278.198 151.575ZM348.271 16.621L282.683 148.016L558.976 83.1352L348.271 16.621Z" fill="#3D8BF2"/>
<path d="M253.752 417.851L55.6959 341.417L57.2314 340.1L281.976 146.87L253.752 417.851ZM60.3756 340.612L251.68 414.438L278.929 152.72L60.3756 340.612Z" fill="#3D8BF2"/>
<path d="M143.294 629.652L56.16 338.979L254.435 415.51L143.318 629.677L143.294 629.652ZM59.9134 343.049L143.903 623.194L250.999 416.802L59.9134 343.049Z" fill="#3D8BF2"/>
<path d="M434.26 639.645L432.822 637.89L250.633 415.535L252.339 414.998L531.972 325.671L434.26 639.645ZM254.801 416.753L433.285 634.6L528.267 329.4L254.801 416.753Z" fill="#3D8BF2"/>
<path d="M431.896 639.012L432.603 636.77L529.608 325.087L531.046 326.769L718.426 545.663L716.696 546.224L431.896 639.037V639.012ZM530.632 330.01L435.625 635.235L714.21 544.445L530.632 330.01Z" fill="#3D8BF2"/>
<path d="M717.28 548.027L527.877 326.793L741.97 278.631L717.28 548.027ZM532.362 328.279L715.379 542.056L739.241 281.751L532.386 328.304L532.362 328.279Z" fill="#3D8BF2"/>
<path d="M531.07 329.717L529.437 328.548L277.541 149.235L565.046 81.7212L531.07 329.717ZM283.366 150.38L529.193 325.403L562.146 84.9141L283.342 150.38H283.366Z" fill="#3D8BF2"/>
<path d="M251.314 417.875L251.509 416.022L279.465 147.601L532.823 327.962L251.314 417.875ZM281.439 152.013L254.117 414.438L527.437 327.133L281.439 152.013Z" fill="#3D8BF2"/>
<path d="M528.682 329.132L562.755 80.5511L742.897 280.922L528.682 329.132ZM564.437 86.0838L531.558 325.964L738.29 279.436L564.437 86.0595V86.0838Z" fill="#3D8BF2"/>
<path d="M15.1136 295.789C8.99592 295.789 4.0238 300.761 4.0238 306.879C4.0238 312.996 8.99592 317.969 15.1136 317.969C21.2312 317.969 26.2033 312.996 26.2033 306.879C26.2033 300.761 21.2312 295.789 15.1136 295.789Z" fill="#3D8BF2"/>
<path d="M528.608 39.4082C534.725 39.4082 539.697 34.436 539.697 28.3184C539.697 22.2008 534.725 17.2286 528.608 17.2286C522.49 17.2286 517.518 22.2008 517.518 28.3184C517.518 34.436 522.49 39.4082 528.608 39.4082Z" fill="#3D8BF2"/>
<path d="M140.367 117.622C140.367 111.504 135.394 106.532 129.277 106.532C123.159 106.532 118.187 111.504 118.187 117.622C118.187 123.739 123.159 128.712 129.277 128.712C135.394 128.712 140.367 123.739 140.367 117.622Z" fill="#3D8BF2"/>
<path d="M347.661 4.06738C341.544 4.06738 336.571 9.0395 336.571 15.1571C336.571 21.2748 341.544 26.2469 347.661 26.2469C353.779 26.2469 358.751 21.2748 358.751 15.1571C358.751 9.0395 353.779 4.06738 347.661 4.06738Z" fill="#3D8BF2"/>
<path d="M58.0355 328.693C51.2354 328.693 45.7271 334.201 45.7271 341.001C45.7271 347.801 51.2354 353.309 58.0355 353.309C64.8356 353.309 70.3439 347.801 70.3439 341.001C70.3439 334.201 64.8356 328.693 58.0355 328.693Z" fill="#3D8BF2"/>
<path d="M280.44 137.486C273.64 137.486 268.132 142.995 268.132 149.795C268.132 156.595 273.64 162.103 280.44 162.103C287.24 162.103 292.748 156.595 292.748 149.795C292.748 142.995 287.24 137.486 280.44 137.486Z" fill="#3D8BF2"/>
<path d="M563.606 70.9957C556.806 70.9957 551.298 76.504 551.298 83.3041C551.298 90.1042 556.806 95.6126 563.606 95.6126C570.406 95.6126 575.914 90.1042 575.914 83.3041C575.914 76.504 570.406 70.9957 563.606 70.9957Z" fill="#3D8BF2"/>
<path d="M530.117 341.708C537.941 341.708 544.278 335.371 544.278 327.548C544.278 319.724 537.941 313.387 530.117 313.387C522.294 313.387 515.957 319.724 515.957 327.548C515.957 335.371 522.294 341.708 530.117 341.708Z" fill="#3D8BF2"/>
</g>
<defs>
<filter id="filter0_f_62_3" x="0" y="0.0673828" width="839" height="821.647" filterUnits="userSpaceOnUse" color-interpolation-filters="sRGB">
<feFlood flood-opacity="0" result="BackgroundImageFix"/>
<feBlend mode="normal" in="SourceGraphic" in2="BackgroundImageFix" result="shape"/>
<feGaussianBlur stdDeviation="2" result="effect1_foregroundBlur_62_3"/>
</filter>
</defs>
</svg>
