<svg width="310" height="64" viewBox="0 0 310 64" fill="none" xmlns="http://www.w3.org/2000/svg">
<path fill-rule="evenodd" clip-rule="evenodd" d="M58.0994 17.4316C58.9219 17.4933 60.5037 17.1849 61.9589 17.2466C62.4018 17.2466 62.8447 17.3082 63.2243 17.3082C63.5 17.3194 63.5 17.4471 63.5 17.4812C63.5 17.5429 63.4453 17.5891 63.2876 17.6167C61.0731 18.1102 56.4543 19.4674 52.7213 22.4902C50.3802 24.2175 48.9883 25.9448 46.9003 28.1039C43.9898 31.0033 40.9528 33.841 35.5114 34.5813C35.5114 34.643 34.8155 34.8898 34.8155 34.9514C33.8664 35.63 30.7028 38.6528 30.6395 47.7212C30.6395 48.3998 30.4497 48.5231 30.2599 47.9062C29.2476 45.0068 29.6905 43.0945 28.6781 41.1821C28.5119 39.4971 28.5544 37.7987 28.8047 36.1235C29.0941 33.3716 29.7755 30.6724 30.8294 28.1039C28.9945 29.1526 19.0609 23.4155 14.8849 21.2564C11.0887 19.344 6.46984 19.5908 2.92664 19.4674C1.53467 19.4057 2.10411 19.5908 0.648865 19.344C2.04084 18.8505 5.0146 17.6784 7.54545 16.9998C11.7846 15.8277 17.4158 15.8894 23.8062 16.6914C28.9312 17.3576 32.4744 19.0356 36.8401 19.8252C42.4713 19.455 46.0778 18.1596 49.3046 17.4193C51.2028 16.9998 57.2768 17.3576 58.0994 17.4316Z" fill="url(#paint0_linear_366_844)"/>
<path fill-rule="evenodd" clip-rule="evenodd" d="M63.2464 17.283C62.8666 17.283 62.4236 17.216 61.9172 17.216C60.4615 17.1491 53.6892 17.1491 52.9297 17.0821C52.0436 17.6177 42.1699 19.0906 37.1698 18.6889C32.8026 17.8185 28.3089 16.0779 23.1822 15.4084C17.6836 14.6155 12.0912 14.9795 6.72609 16.4796C4.19439 17.216 0.903174 18.6755 0.523419 19.5592C0.499273 19.6688 0.499272 19.5953 0.523426 19.714C0.903182 19.647 1.21964 19.4922 1.59939 19.4253C7.16914 18.0863 11.9161 17.7516 20.0175 19.9609C26.5367 21.7685 29.0684 23.71 33.8153 24.3795C38.6888 25.1159 42.613 24.5134 47.6131 21.5676C51.6005 19.2244 55.9677 17.5487 63.4995 17.4817C63.4995 17.3344 63.3729 17.283 63.2464 17.283Z" fill="url(#paint1_linear_366_844)"/>
<path fill-rule="evenodd" clip-rule="evenodd" d="M63.4996 17.4817C62.0033 17.428 59.2058 17.4298 58.36 17.376C57.6596 17.3253 56.964 17.2355 56.2782 17.1073C56.0831 17.0535 55.8879 17.0535 55.6927 16.9998L54.5217 16.6773C53.0241 16.1215 51.4806 15.6544 49.9027 15.2797C46.4547 14.5809 41.8358 15.0002 36.9565 18.7629C39.3865 19.2243 41.8855 19.3873 44.3729 19.2466C48.7968 18.9886 54.652 17.3205 63.4996 17.4817Z" fill="url(#paint2_linear_366_844)"/>
<path fill-rule="evenodd" clip-rule="evenodd" d="M11.8774 22.1928C14.0485 20.8233 16.4634 19.9049 18.9834 19.4903C11.5544 17.7106 7.03237 18.172 1.67057 19.3585C1.28297 19.4244 0.895367 19.5562 0.507767 19.6221C0.443167 20.0176 0.766167 20.2154 2.05817 20.2154C5.9253 20.3275 9.73772 21.1771 13.2986 22.7202C12.8357 22.5154 12.3611 22.3393 11.8774 22.1928Z" fill="url(#paint3_linear_366_844)"/>
<path fill-rule="evenodd" clip-rule="evenodd" d="M28.8068 39.9431C28.6979 40.3941 28.6547 40.8579 28.6788 41.3208C28.8763 43.9703 29.4362 46.5819 30.3433 49.0859C30.5354 49.6495 31.0475 49.7747 31.0475 49.0859C31.1116 39.8805 34.8888 35.3091 35.465 34.6829C35.465 34.6202 35.529 34.6202 35.529 34.5576C32.6481 34.9333 29.7031 35.9854 28.8068 39.9431Z" fill="url(#paint4_linear_366_844)"/>
<path fill-rule="evenodd" clip-rule="evenodd" d="M33.8997 23.8522C32.3768 23.6639 30.8798 23.3387 29.4319 22.8818C25.3526 23.2243 21.7265 25.6789 20.3667 27.1631C21.1437 27.791 21.856 28.419 22.4387 28.9898C23.299 29.8159 24.0992 30.6891 24.8345 31.6043C25.4173 32.2893 25.9353 32.1751 25.9353 32.1751C25.9353 32.1751 26.4533 32.2322 27.0361 31.3188C28.1711 30.1061 29.2784 28.9647 30.8508 28.1099C31.5071 27.7532 31.8352 27.3546 33.8997 26.8092C37.2024 26.3768 40.3857 25.4091 43.2887 23.955C45.6198 22.7562 46.7205 22.1283 48.0156 21.4433C42.9002 23.9664 38.8856 24.4231 33.8997 23.8522Z" fill="url(#paint5_linear_366_844)"/>
<path fill-rule="evenodd" clip-rule="evenodd" d="M19.8441 19.659L18.3548 19.2644C15.8183 19.6367 13.3897 20.5561 11.2322 21.9609C12.0802 22.2617 12.903 22.6312 13.6927 23.0658C16.1464 24.3401 18.413 25.956 20.4268 27.8669C21.7866 26.2227 25.4126 23.3289 29.492 22.9343C26.8372 22.0267 24.2471 20.7771 19.8441 19.659Z" fill="url(#paint6_linear_366_844)"/>
<path d="M96.9 38.698L106.78 16.24H115.292V17.684C114.481 17.7093 113.823 17.8107 113.316 17.988C112.835 18.1653 112.455 18.4693 112.176 18.9C111.923 19.3053 111.745 19.8753 111.644 20.61C111.568 21.3447 111.53 22.282 111.53 23.422V38.318C111.53 39.5847 111.581 40.5853 111.682 41.32C111.783 42.0547 111.973 42.6247 112.252 43.03C112.556 43.4353 112.974 43.7013 113.506 43.828C114.063 43.9547 114.785 44.0307 115.672 44.056V45.5H103.36V44.056C104.247 44.0307 104.956 43.9547 105.488 43.828C106.045 43.676 106.476 43.41 106.78 43.03C107.084 42.65 107.287 42.118 107.388 41.434C107.489 40.7247 107.54 39.7747 107.54 38.584V20.952H107.16L96.064 45.88H95.228L84.322 20.952H84.17V38.318C84.17 39.5847 84.2207 40.5853 84.322 41.32C84.4233 42.0547 84.6133 42.6247 84.892 43.03C85.196 43.4353 85.614 43.7013 86.146 43.828C86.7033 43.9547 87.4253 44.0307 88.312 44.056V45.5H77.71V44.056C78.5967 44.0307 79.306 43.9547 79.838 43.828C80.3953 43.676 80.826 43.41 81.13 43.03C81.434 42.65 81.6367 42.118 81.738 41.434C81.8393 40.7247 81.89 39.7747 81.89 38.584V23.156C81.89 22.092 81.8393 21.218 81.738 20.534C81.662 19.8247 81.4847 19.2673 81.206 18.862C80.9527 18.4567 80.5727 18.178 80.066 18.026C79.5593 17.8487 78.9007 17.7347 78.09 17.684V16.24H87.172L96.748 38.698H96.9ZM126.942 51.466C125.776 54.0753 123.965 55.38 121.508 55.38C119.912 55.38 119.114 54.7847 119.114 53.594C119.114 52.9607 119.329 52.492 119.76 52.188C120.216 51.9093 121.039 51.6687 122.23 51.466C122.762 51.39 123.218 51.276 123.598 51.124C123.978 50.9973 124.32 50.82 124.624 50.592C124.928 50.3893 125.194 50.1233 125.422 49.794C125.675 49.4647 125.916 49.0593 126.144 48.578L127.474 45.918L120.178 30.072C119.848 29.3627 119.557 28.8053 119.304 28.4C119.076 27.9693 118.822 27.64 118.544 27.412C118.29 27.1587 117.999 26.994 117.67 26.918C117.34 26.8167 116.922 26.7407 116.416 26.69V25.36H126.486V26.69C124.788 26.69 123.94 27.108 123.94 27.944C123.94 28.2733 124.041 28.7927 124.244 29.502C124.446 30.2113 124.7 30.9333 125.004 31.668L129.184 41.776H129.374L132.832 33.226C133.161 32.39 133.427 31.706 133.63 31.174C133.858 30.642 134.022 30.2113 134.124 29.882C134.25 29.5273 134.326 29.236 134.352 29.008C134.402 28.78 134.428 28.5647 134.428 28.362C134.428 27.7033 134.238 27.26 133.858 27.032C133.503 26.804 132.806 26.69 131.768 26.69V25.36H140.128V26.69C139.646 26.69 139.241 26.7533 138.912 26.88C138.582 27.0067 138.24 27.298 137.886 27.754C137.556 28.1847 137.176 28.818 136.746 29.654C136.34 30.49 135.834 31.6173 135.226 33.036L126.942 51.466ZM143.245 45.5H142.409V38.964H143.359C144.347 42.536 146.145 44.322 148.755 44.322C149.768 44.322 150.566 44.0813 151.149 43.6C151.757 43.0933 152.061 42.3333 152.061 41.32C152.061 40.94 151.997 40.6233 151.871 40.37C151.769 40.0913 151.554 39.8127 151.225 39.534C150.921 39.23 150.477 38.888 149.895 38.508C149.337 38.128 148.59 37.6467 147.653 37.064C146.791 36.532 146.044 36.038 145.411 35.582C144.777 35.126 144.245 34.67 143.815 34.214C143.384 33.7327 143.055 33.226 142.827 32.694C142.624 32.162 142.523 31.5413 142.523 30.832C142.523 29.9707 142.662 29.1853 142.941 28.476C143.245 27.7413 143.65 27.1207 144.157 26.614C144.663 26.1073 145.259 25.7147 145.943 25.436C146.627 25.132 147.374 24.98 148.185 24.98C148.869 24.98 149.578 25.094 150.313 25.322C151.047 25.5247 151.693 25.8033 152.251 26.158L153.011 25.36H153.733V30.832H152.745C152.187 29.2867 151.579 28.1847 150.921 27.526C150.262 26.8673 149.451 26.538 148.489 26.538C147.627 26.538 146.931 26.766 146.399 27.222C145.892 27.678 145.639 28.3113 145.639 29.122C145.639 29.5527 145.702 29.9327 145.829 30.262C145.981 30.566 146.209 30.87 146.513 31.174C146.817 31.478 147.197 31.7947 147.653 32.124C148.134 32.428 148.704 32.7827 149.363 33.188C150.452 33.872 151.377 34.48 152.137 35.012C152.922 35.544 153.555 36.076 154.037 36.608C154.518 37.1147 154.873 37.6467 155.101 38.204C155.329 38.7613 155.443 39.3947 155.443 40.104C155.443 41.9027 154.86 43.3213 153.695 44.36C152.529 45.3733 150.997 45.88 149.097 45.88C147.121 45.88 145.423 45.31 144.005 44.17L143.245 45.5ZM158.752 27.754V26.348C160.095 25.5627 161.146 24.7773 161.906 23.992C162.666 23.2067 163.249 22.2693 163.654 21.18H164.756V25.968H169.848V27.754H164.756V39.306C164.756 40.1927 164.794 40.94 164.87 41.548C164.972 42.156 165.124 42.65 165.326 43.03C165.529 43.3847 165.795 43.638 166.124 43.79C166.454 43.942 166.872 44.018 167.378 44.018C168.012 44.018 168.544 43.8913 168.974 43.638C169.43 43.3593 169.874 42.9033 170.304 42.27L171.254 42.992C170.9 43.9293 170.279 44.6513 169.392 45.158C168.531 45.6393 167.454 45.88 166.162 45.88C164.49 45.88 163.211 45.4873 162.324 44.702C161.463 43.8913 161.032 42.7387 161.032 41.244V27.754H158.752ZM180.258 39.458C180.258 40.446 180.296 41.244 180.372 41.852C180.473 42.4347 180.65 42.9033 180.904 43.258C181.157 43.5873 181.512 43.8153 181.968 43.942C182.424 44.0687 183.032 44.1447 183.792 44.17V45.5H172.886V44.17C173.646 44.1447 174.266 44.0687 174.748 43.942C175.229 43.79 175.596 43.562 175.85 43.258C176.128 42.9287 176.306 42.4853 176.382 41.928C176.483 41.3453 176.534 40.6107 176.534 39.724V34.86C176.534 33.3907 176.508 32.1873 176.458 31.25C176.432 30.2873 176.369 29.6287 176.268 29.274C176.141 28.6913 175.85 28.2987 175.394 28.096C174.938 27.868 174.076 27.754 172.81 27.754V26.424L180.258 24.98V39.458ZM175.888 17.266C175.888 16.6073 176.116 16.05 176.572 15.594C177.028 15.138 177.585 14.91 178.244 14.91C178.902 14.91 179.46 15.138 179.916 15.594C180.372 16.05 180.6 16.6073 180.6 17.266C180.6 17.9247 180.372 18.482 179.916 18.938C179.46 19.394 178.902 19.622 178.244 19.622C177.585 19.622 177.028 19.394 176.572 18.938C176.116 18.482 175.888 17.9247 175.888 17.266ZM203.773 42.346C202.861 43.4607 201.683 44.3347 200.239 44.968C198.795 45.576 197.237 45.88 195.565 45.88C194.222 45.88 192.981 45.6393 191.841 45.158C190.726 44.6513 189.764 43.9547 188.953 43.068C188.142 42.156 187.509 41.0667 187.053 39.8C186.622 38.5333 186.407 37.1273 186.407 35.582C186.407 33.9607 186.66 32.504 187.167 31.212C187.674 29.8947 188.383 28.78 189.295 27.868C190.232 26.9307 191.347 26.2213 192.639 25.74C193.956 25.2333 195.4 24.98 196.971 24.98C197.959 24.98 198.858 25.0687 199.669 25.246C200.48 25.398 201.176 25.626 201.759 25.93C202.367 26.2087 202.836 26.5633 203.165 26.994C203.494 27.3993 203.659 27.8427 203.659 28.324C203.659 28.8307 203.494 29.2233 203.165 29.502C202.836 29.7807 202.38 29.92 201.797 29.92C201.341 29.92 200.961 29.8313 200.657 29.654C200.353 29.4513 199.96 29.0207 199.479 28.362C198.972 27.7793 198.478 27.374 197.997 27.146C197.541 26.8927 196.946 26.766 196.211 26.766C194.412 26.766 193.044 27.4627 192.107 28.856C191.195 30.2493 190.739 32.3013 190.739 35.012C190.739 37.9253 191.246 40.142 192.259 41.662C193.298 43.1567 194.805 43.904 196.781 43.904C197.845 43.904 198.846 43.7013 199.783 43.296C200.72 42.8653 201.67 42.1813 202.633 41.244L203.773 42.346ZM208.186 45.5H207.35V38.964H208.3C209.288 42.536 211.087 44.322 213.696 44.322C214.709 44.322 215.507 44.0813 216.09 43.6C216.698 43.0933 217.002 42.3333 217.002 41.32C217.002 40.94 216.939 40.6233 216.812 40.37C216.711 40.0913 216.495 39.8127 216.166 39.534C215.862 39.23 215.419 38.888 214.836 38.508C214.279 38.128 213.531 37.6467 212.594 37.064C211.733 36.532 210.985 36.038 210.352 35.582C209.719 35.126 209.187 34.67 208.756 34.214C208.325 33.7327 207.996 33.226 207.768 32.694C207.565 32.162 207.464 31.5413 207.464 30.832C207.464 29.9707 207.603 29.1853 207.882 28.476C208.186 27.7413 208.591 27.1207 209.098 26.614C209.605 26.1073 210.2 25.7147 210.884 25.436C211.568 25.132 212.315 24.98 213.126 24.98C213.81 24.98 214.519 25.094 215.254 25.322C215.989 25.5247 216.635 25.8033 217.192 26.158L217.952 25.36H218.674V30.832H217.686C217.129 29.2867 216.521 28.1847 215.862 27.526C215.203 26.8673 214.393 26.538 213.43 26.538C212.569 26.538 211.872 26.766 211.34 27.222C210.833 27.678 210.58 28.3113 210.58 29.122C210.58 29.5527 210.643 29.9327 210.77 30.262C210.922 30.566 211.15 30.87 211.454 31.174C211.758 31.478 212.138 31.7947 212.594 32.124C213.075 32.428 213.645 32.7827 214.304 33.188C215.393 33.872 216.318 34.48 217.078 35.012C217.863 35.544 218.497 36.076 218.978 36.608C219.459 37.1147 219.814 37.6467 220.042 38.204C220.27 38.7613 220.384 39.3947 220.384 40.104C220.384 41.9027 219.801 43.3213 218.636 44.36C217.471 45.3733 215.938 45.88 214.038 45.88C212.062 45.88 210.365 45.31 208.946 44.17L208.186 45.5ZM242.01 41.966C239.856 44.5753 237.184 45.88 233.992 45.88C232.497 45.88 231.142 45.6393 229.926 45.158C228.71 44.6513 227.658 43.9547 226.772 43.068C225.91 42.156 225.239 41.0793 224.758 39.838C224.276 38.5713 224.036 37.178 224.036 35.658C224.036 34.1127 224.289 32.6813 224.796 31.364C225.302 30.0467 226.012 28.9193 226.924 27.982C227.861 27.0447 228.963 26.31 230.23 25.778C231.522 25.246 232.928 24.98 234.448 24.98C236.905 24.98 238.805 25.6513 240.148 26.994C241.49 28.3113 242.162 30.2113 242.162 32.694C242.162 33.0487 242.086 33.264 241.934 33.34C241.807 33.416 241.49 33.454 240.984 33.454H228.482C228.431 33.6567 228.393 33.91 228.368 34.214C228.342 34.4927 228.33 34.8093 228.33 35.164C228.33 36.4813 228.482 37.6847 228.786 38.774C229.115 39.838 229.571 40.75 230.154 41.51C230.762 42.27 231.471 42.8653 232.282 43.296C233.118 43.7013 234.042 43.904 235.056 43.904C236.12 43.904 237.108 43.676 238.02 43.22C238.932 42.7387 239.869 41.966 240.832 40.902L242.01 41.966ZM235.74 31.706C236.246 31.706 236.652 31.6933 236.956 31.668C237.26 31.6427 237.488 31.592 237.64 31.516C237.792 31.44 237.893 31.3387 237.944 31.212C237.994 31.06 238.02 30.87 238.02 30.642C238.02 29.4767 237.64 28.552 236.88 27.868C236.145 27.1587 235.132 26.804 233.84 26.804C231.104 26.804 229.406 28.438 228.748 31.706H235.74ZM252.165 39.534C252.165 40.5727 252.19 41.396 252.241 42.004C252.292 42.5867 252.418 43.0427 252.621 43.372C252.849 43.676 253.166 43.8787 253.571 43.98C254.002 44.0813 254.584 44.1573 255.319 44.208V45.5H245.363V44.208C246.072 44.1573 246.63 44.0813 247.035 43.98C247.466 43.8787 247.795 43.676 248.023 43.372C248.251 43.068 248.39 42.6373 248.441 42.08C248.517 41.5227 248.555 40.7627 248.555 39.8V34.746C248.555 31.7313 248.479 29.8947 248.327 29.236C248.251 28.9067 248.15 28.6407 248.023 28.438C247.922 28.21 247.757 28.0453 247.529 27.944C247.301 27.8173 247.01 27.7413 246.655 27.716C246.3 27.6653 245.844 27.64 245.287 27.64V26.424L251.367 24.98L251.823 28.742H251.975C252.938 27.5513 254.065 26.6267 255.357 25.968C256.649 25.3093 258.055 24.98 259.575 24.98C260.74 24.98 261.804 25.17 262.767 25.55C263.73 25.93 264.464 26.4493 264.971 27.108C265.402 27.6907 265.706 28.4507 265.883 29.388C266.06 30.3 266.149 31.5667 266.149 33.188V39.534C266.149 40.5727 266.174 41.396 266.225 42.004C266.301 42.5867 266.44 43.0427 266.643 43.372C266.846 43.676 267.15 43.8787 267.555 43.98C267.986 44.0813 268.543 44.1573 269.227 44.208V45.5H259.385V44.208C260.094 44.1827 260.652 44.1193 261.057 44.018C261.488 43.8913 261.804 43.676 262.007 43.372C262.235 43.068 262.374 42.6373 262.425 42.08C262.501 41.4973 262.539 40.7373 262.539 39.8V34.784C262.539 33.34 262.463 32.124 262.311 31.136C262.159 30.148 261.906 29.35 261.551 28.742C261.222 28.134 260.778 27.7033 260.221 27.45C259.664 27.1713 258.992 27.032 258.207 27.032C257.067 27.032 256.016 27.336 255.053 27.944C254.116 28.5267 253.381 29.3373 252.849 30.376C252.722 30.6293 252.608 30.87 252.507 31.098C252.431 31.326 252.368 31.592 252.317 31.896C252.266 32.2 252.228 32.5547 252.203 32.96C252.178 33.34 252.165 33.834 252.165 34.442V39.534ZM273.424 45.5H272.588V38.964H273.538C274.526 42.536 276.325 44.322 278.934 44.322C279.948 44.322 280.746 44.0813 281.328 43.6C281.936 43.0933 282.24 42.3333 282.24 41.32C282.24 40.94 282.177 40.6233 282.05 40.37C281.949 40.0913 281.734 39.8127 281.404 39.534C281.1 39.23 280.657 38.888 280.074 38.508C279.517 38.128 278.77 37.6467 277.832 37.064C276.971 36.532 276.224 36.038 275.59 35.582C274.957 35.126 274.425 34.67 273.994 34.214C273.564 33.7327 273.234 33.226 273.006 32.694C272.804 32.162 272.702 31.5413 272.702 30.832C272.702 29.9707 272.842 29.1853 273.12 28.476C273.424 27.7413 273.83 27.1207 274.336 26.614C274.843 26.1073 275.438 25.7147 276.122 25.436C276.806 25.132 277.554 24.98 278.364 24.98C279.048 24.98 279.758 25.094 280.492 25.322C281.227 25.5247 281.873 25.8033 282.43 26.158L283.19 25.36H283.912V30.832H282.924C282.367 29.2867 281.759 28.1847 281.1 27.526C280.442 26.8673 279.631 26.538 278.668 26.538C277.807 26.538 277.11 26.766 276.578 27.222C276.072 27.678 275.818 28.3113 275.818 29.122C275.818 29.5527 275.882 29.9327 276.008 30.262C276.16 30.566 276.388 30.87 276.692 31.174C276.996 31.478 277.376 31.7947 277.832 32.124C278.314 32.428 278.884 32.7827 279.542 33.188C280.632 33.872 281.556 34.48 282.316 35.012C283.102 35.544 283.735 36.076 284.216 36.608C284.698 37.1147 285.052 37.6467 285.28 38.204C285.508 38.7613 285.622 39.3947 285.622 40.104C285.622 41.9027 285.04 43.3213 283.874 44.36C282.709 45.3733 281.176 45.88 279.276 45.88C277.3 45.88 275.603 45.31 274.184 44.17L273.424 45.5ZM307.248 41.966C305.095 44.5753 302.422 45.88 299.23 45.88C297.735 45.88 296.38 45.6393 295.164 45.158C293.948 44.6513 292.897 43.9547 292.01 43.068C291.149 42.156 290.477 41.0793 289.996 39.838C289.515 38.5713 289.274 37.178 289.274 35.658C289.274 34.1127 289.527 32.6813 290.034 31.364C290.541 30.0467 291.25 28.9193 292.162 27.982C293.099 27.0447 294.201 26.31 295.468 25.778C296.76 25.246 298.166 24.98 299.686 24.98C302.143 24.98 304.043 25.6513 305.386 26.994C306.729 28.3113 307.4 30.2113 307.4 32.694C307.4 33.0487 307.324 33.264 307.172 33.34C307.045 33.416 306.729 33.454 306.222 33.454H293.72C293.669 33.6567 293.631 33.91 293.606 34.214C293.581 34.4927 293.568 34.8093 293.568 35.164C293.568 36.4813 293.72 37.6847 294.024 38.774C294.353 39.838 294.809 40.75 295.392 41.51C296 42.27 296.709 42.8653 297.52 43.296C298.356 43.7013 299.281 43.904 300.294 43.904C301.358 43.904 302.346 43.676 303.258 43.22C304.17 42.7387 305.107 41.966 306.07 40.902L307.248 41.966ZM300.978 31.706C301.485 31.706 301.89 31.6933 302.194 31.668C302.498 31.6427 302.726 31.592 302.878 31.516C303.03 31.44 303.131 31.3387 303.182 31.212C303.233 31.06 303.258 30.87 303.258 30.642C303.258 29.4767 302.878 28.552 302.118 27.868C301.383 27.1587 300.37 26.804 299.078 26.804C296.342 26.804 294.645 28.438 293.986 31.706H300.978Z" fill="white"/>
<defs>
<linearGradient id="paint0_linear_366_844" x1="29.2223" y1="26.8948" x2="58.6466" y2="11.1828" gradientUnits="userSpaceOnUse">
<stop stop-color="#8C49F4"/>
<stop offset="0.38" stop-color="#8F9DFA"/>
<stop offset="0.65" stop-color="#91D2FE"/>
<stop offset="0.78" stop-color="#92E6FF"/>
</linearGradient>
<linearGradient id="paint1_linear_366_844" x1="0.460148" y1="19.8337" x2="63.4995" y2="19.8337" gradientUnits="userSpaceOnUse">
<stop stop-color="#8020C5"/>
<stop offset="1" stop-color="#18092A"/>
</linearGradient>
<linearGradient id="paint2_linear_366_844" x1="36.924" y1="17.1503" x2="62.4" y2="17.1503" gradientUnits="userSpaceOnUse">
<stop stop-color="#9F24F6"/>
<stop offset="1" stop-color="#5F00C1"/>
</linearGradient>
<linearGradient id="paint3_linear_366_844" x1="-0.0219539" y1="21.3359" x2="20.7772" y2="19.8478" gradientUnits="userSpaceOnUse">
<stop stop-color="#8C49F4"/>
<stop offset="0.22" stop-color="#866AF7"/>
<stop offset="0.59" stop-color="#7D9FFB"/>
<stop offset="0.78" stop-color="#79B3FD"/>
</linearGradient>
<linearGradient id="paint4_linear_366_844" x1="32.9234" y1="34.4825" x2="29.17" y2="48.808" gradientUnits="userSpaceOnUse">
<stop stop-color="#6012CE"/>
<stop offset="0.09" stop-color="#631DD0"/>
<stop offset="0.25" stop-color="#693AD7"/>
<stop offset="0.46" stop-color="#7469E2"/>
<stop offset="0.7" stop-color="#84A9F1"/>
<stop offset="0.92" stop-color="#92E6FF"/>
</linearGradient>
<linearGradient id="paint5_linear_366_844" x1="36.7423" y1="21.3748" x2="28.0538" y2="34.2231" gradientUnits="userSpaceOnUse">
<stop stop-color="#5804B2"/>
<stop offset="0.15" stop-color="#590FB7"/>
<stop offset="0.42" stop-color="#5B2CC5"/>
<stop offset="0.77" stop-color="#5F5ADC"/>
<stop offset="0.92" stop-color="#616FE6"/>
</linearGradient>
<linearGradient id="paint6_linear_366_844" x1="20.7635" y1="17.6992" x2="19.9354" y2="27.1873" gradientUnits="userSpaceOnUse">
<stop offset="0.17" stop-color="#632AD1"/>
<stop offset="0.33" stop-color="#653CD7"/>
<stop offset="0.64" stop-color="#6C6AE7"/>
<stop offset="1" stop-color="#74A6FC"/>
</linearGradient>
</defs>
</svg>
