<svg width="394" height="64" viewBox="0 0 394 64" fill="none" xmlns="http://www.w3.org/2000/svg">
<path fill-rule="evenodd" clip-rule="evenodd" d="M52.1094 30.0347C54.6908 25.8122 56.3697 21.0045 56.8944 15.8414C56.9574 15.277 56.4957 14.8171 55.95 14.8171C50.1367 14.9634 45.1209 16.5103 40.7766 18.8305C39.8322 12.1624 36.9361 6.12131 32.6758 1.31355C32.298 0.895483 31.6474 0.895483 31.2906 1.31355C27.0304 6.12131 24.1342 12.1624 23.1898 18.8305C18.8456 16.5103 13.8297 14.9634 8.01643 14.8171C7.44978 14.7962 7.00906 15.277 7.07202 15.8414C7.59669 21.0045 9.27563 25.8331 11.857 30.0347C6.54736 32.0832 2.64383 34.5289 0.39826 36.0967C-0.0844336 36.4311 -0.147394 37.1418 0.314313 37.539C6.33749 42.9739 14.3334 46.2766 23.1058 46.2766C26.1909 46.2766 29.171 45.8585 32.0042 45.106C34.8374 45.8794 37.8175 46.2766 40.9025 46.2766C49.675 46.2766 57.6709 42.9739 63.6941 37.539C64.1348 37.1418 64.0928 36.4311 63.6101 36.0967C61.3016 34.5289 57.4191 32.0832 52.1094 30.0347ZM41.0914 24.2863C44.0925 22.3423 47.4924 20.9209 51.144 20.2102C50.3256 23.1784 49.0244 25.9377 47.3664 28.4461C46.7368 28.2579 46.0863 28.0907 45.4147 27.9235C45.6246 26.8783 45.7715 25.8122 45.8764 24.7253C45.8974 24.4326 45.6036 24.2445 45.3517 24.3699C43.7987 25.1015 42.3087 26.0004 40.9235 27.0246C41.0075 26.1049 41.0704 25.1851 41.0914 24.2863ZM31.9832 8.48339C34.3967 12.3923 35.9077 16.9283 36.1805 21.7988C35.404 22.405 34.6485 23.0321 33.935 23.701C33.5362 22.0287 32.9906 20.4401 32.319 18.8932C32.1931 18.6006 31.7733 18.6006 31.6474 18.8932C30.9549 20.4192 30.4092 22.0287 30.0314 23.701C29.3179 23.0321 28.5624 22.405 27.7859 21.8197C28.0587 16.9492 29.5697 12.4132 31.9832 8.48339ZM22.854 24.2863C22.875 25.206 22.938 26.1049 23.0219 27.0037C21.6368 25.9795 20.1677 25.1015 18.6147 24.3699C18.3629 24.2445 18.069 24.4535 18.09 24.7253C18.174 25.8122 18.3419 26.8783 18.5517 27.9235C17.8802 28.0907 17.2296 28.2579 16.6 28.4461C14.942 25.9377 13.6409 23.1784 12.8224 20.2102C16.4531 20.9209 19.8529 22.3214 22.854 24.2863ZM23.0639 41.427C17.5024 41.427 12.2977 39.8802 7.86952 37.1837C10.0731 35.9922 12.3817 34.9679 14.7531 34.1109C15.0889 34.5289 15.4457 34.9261 15.8025 35.3024C15.0889 35.7413 14.3964 36.2221 13.7038 36.7238C13.452 36.9119 13.5149 37.2882 13.8087 37.3718C15.5087 37.9153 17.2925 38.2706 19.1184 38.4588C20.4405 39.5457 21.8466 40.5491 23.3157 41.427C23.2528 41.427 23.1688 41.427 23.0639 41.427ZM19.9159 32.564C21.217 32.2505 22.5602 31.9787 23.9033 31.7697C24.47 34.9679 27.2612 37.3927 30.6191 37.3927C32.8227 37.3927 34.7744 36.3475 36.0127 34.738C36.1386 34.5707 35.9497 34.3617 35.7818 34.4662C35.0892 34.8843 34.2708 35.1351 33.3893 35.1351C31.0808 35.1351 29.171 33.442 28.8352 31.2262C29.8845 31.1635 30.9339 31.1217 32.0042 31.1217C36.1596 31.1217 40.21 31.6234 44.0715 32.564C42.4975 35.0097 38.5311 39.044 32.0042 39.044C25.4144 39.044 21.4899 34.9679 19.9159 32.564ZM40.6087 41.427C42.0778 40.5491 43.4839 39.5457 44.8061 38.4588C46.6319 38.2706 48.4158 37.9153 50.1157 37.3718C50.4095 37.2882 50.4725 36.891 50.2206 36.7238C49.5491 36.2221 48.8355 35.7622 48.122 35.3024C48.4787 34.9052 48.8355 34.508 49.1713 34.1109C51.5638 34.9679 53.8513 35.9922 56.0549 37.1837C51.6267 39.8802 46.422 41.427 40.8606 41.427C40.7976 41.427 40.6927 41.427 40.6087 41.427Z" fill="#9F7FE5"/>
<path d="M77.334 21.782C77.334 23.1247 77.828 24.3027 78.816 25.316C79.8293 26.304 81.0453 27.14 82.464 27.824C83.8827 28.508 85.3013 29.23 86.72 29.99C88.1387 30.7247 89.342 31.738 90.33 33.03C91.3433 34.322 91.85 35.8547 91.85 37.628C91.85 39.8827 90.8873 41.732 88.962 43.176C87.062 44.5947 84.3767 45.304 80.906 45.304C79.31 45.304 77.6 45.076 75.776 44.62C73.9773 44.164 72.584 43.6447 71.596 43.062L72.812 35.69L73.002 35.652C74.5727 41.6307 77.2073 44.62 80.906 44.62C82.6793 44.62 84.0473 44.202 85.01 43.366C85.9727 42.53 86.454 41.4913 86.454 40.25C86.454 38.882 85.9727 37.6913 85.01 36.678C84.0473 35.6393 82.882 34.7907 81.514 34.132C80.146 33.448 78.778 32.7387 77.41 32.004C76.0673 31.2693 74.9147 30.294 73.952 29.078C72.9893 27.862 72.508 26.418 72.508 24.746C72.508 22.5927 73.4073 20.7687 75.206 19.274C77.0047 17.754 79.272 16.994 82.008 16.994C85.2507 16.994 88.0627 17.7667 90.444 19.312L89.228 26.152L89.076 26.19C88.468 23.5047 87.5687 21.4273 86.378 19.958C85.1873 18.4633 83.7307 17.716 82.008 17.716C80.6147 17.716 79.4873 18.1087 78.626 18.894C77.7647 19.654 77.334 20.6167 77.334 21.782ZM108.818 24.48C111.022 24.48 112.821 25.354 114.214 27.102C115.608 28.85 116.304 31.0793 116.304 33.79C116.304 35.8167 116.026 37.59 115.468 39.11C114.911 40.63 114.138 41.8333 113.15 42.72C112.188 43.5813 111.098 44.2273 109.882 44.658C108.692 45.0887 107.4 45.304 106.006 45.304C104.436 45.304 103.03 44.8987 101.788 44.088V48.838C101.788 50.4593 101.94 51.65 102.244 52.41C102.548 53.17 103.042 53.6513 103.726 53.854V54.006H94.4925V53.854C95.2018 53.626 95.6832 53.17 95.9365 52.486C96.2152 51.8273 96.3545 50.6113 96.3545 48.838V31.624C96.3545 29.724 96.2025 28.356 95.8985 27.52C95.5945 26.6587 95.1385 26.076 94.5305 25.772L94.6065 25.62C97.5452 25.544 100.028 25.164 102.054 24.48L102.13 24.556C101.902 25.924 101.788 28.28 101.788 31.624V38.654C101.788 42.682 103.194 44.696 106.006 44.696C109.046 44.696 110.566 41.5927 110.566 35.386C110.566 30.0153 109.046 27.33 106.006 27.33C104.461 27.33 103.283 28.0393 102.472 29.458L102.358 29.382C102.738 28.0393 103.486 26.8867 104.6 25.924C105.74 24.9613 107.146 24.48 108.818 24.48ZM126.61 21.326C126.028 21.8073 125.293 22.048 124.406 22.048C123.52 22.048 122.785 21.8073 122.202 21.326C121.62 20.8447 121.328 20.224 121.328 19.464C121.328 18.6787 121.62 18.0453 122.202 17.564C122.785 17.0827 123.52 16.842 124.406 16.842C125.293 16.842 126.028 17.0827 126.61 17.564C127.193 18.0453 127.484 18.6787 127.484 19.464C127.484 20.224 127.193 20.8447 126.61 21.326ZM127.18 39.832C127.18 41.6053 127.307 42.834 127.56 43.518C127.839 44.1767 128.32 44.62 129.004 44.848V45H119.884V44.848C120.594 44.62 121.075 44.1767 121.328 43.518C121.607 42.834 121.746 41.6053 121.746 39.832V31.624C121.746 29.724 121.594 28.356 121.29 27.52C120.986 26.6587 120.53 26.076 119.922 25.772L119.998 25.62C122.937 25.544 125.42 25.164 127.446 24.48L127.522 24.556C127.294 25.924 127.18 28.28 127.18 31.624V39.832ZM139.983 39.832C139.983 41.4787 140.148 42.682 140.477 43.442C140.806 44.1767 141.402 44.6453 142.263 44.848V45H132.687V44.848C133.396 44.62 133.878 44.1767 134.131 43.518C134.41 42.834 134.549 41.6053 134.549 39.832V31.624C134.549 29.724 134.397 28.356 134.093 27.52C133.789 26.6587 133.333 26.076 132.725 25.772L132.801 25.62C135.74 25.544 138.222 25.164 140.249 24.48L140.325 24.556C140.097 25.924 139.983 28.28 139.983 31.624V39.832ZM146.025 24.48C146.912 24.48 147.634 24.6827 148.191 25.088L147.127 29.648H146.937C146.38 29.1413 145.506 28.888 144.315 28.888C142.466 28.888 141.25 29.6987 140.667 31.32L140.553 31.244C140.73 29.2933 141.326 27.6847 142.339 26.418C143.378 25.126 144.606 24.48 146.025 24.48ZM156.149 21.326C155.567 21.8073 154.832 22.048 153.945 22.048C153.059 22.048 152.324 21.8073 151.741 21.326C151.159 20.8447 150.867 20.224 150.867 19.464C150.867 18.6787 151.159 18.0453 151.741 17.564C152.324 17.0827 153.059 16.842 153.945 16.842C154.832 16.842 155.567 17.0827 156.149 17.564C156.732 18.0453 157.023 18.6787 157.023 19.464C157.023 20.224 156.732 20.8447 156.149 21.326ZM156.719 39.832C156.719 41.6053 156.846 42.834 157.099 43.518C157.378 44.1767 157.859 44.62 158.543 44.848V45H149.423V44.848C150.133 44.62 150.614 44.1767 150.867 43.518C151.146 42.834 151.285 41.6053 151.285 39.832V31.624C151.285 29.724 151.133 28.356 150.829 27.52C150.525 26.6587 150.069 26.076 149.461 25.772L149.537 25.62C152.476 25.544 154.959 25.164 156.985 24.48L157.061 24.556C156.833 25.924 156.719 28.28 156.719 31.624V39.832ZM174.728 41.238L174.842 41.314C174.639 42.378 174.057 43.3153 173.094 44.126C172.131 44.9113 170.928 45.304 169.484 45.304C167.457 45.304 165.912 44.7213 164.848 43.556C163.784 42.3907 163.252 40.6933 163.252 38.464V25.392H161.846V25.012C162.834 24.6067 163.987 23.948 165.304 23.036C166.621 22.0987 167.609 21.288 168.268 20.604L168.458 20.68V24.784H173.892V25.392H168.458V37.932C168.458 41.048 169.585 42.606 171.84 42.606C173.183 42.606 174.145 42.15 174.728 41.238ZM186.922 42.416C188.467 42.416 189.658 41.7067 190.494 40.288L190.57 40.364C190.19 41.656 189.417 42.8087 188.252 43.822C187.112 44.81 185.668 45.304 183.92 45.304C181.969 45.304 180.462 44.7467 179.398 43.632C178.334 42.5173 177.802 40.9213 177.802 38.844V31.624C177.802 29.724 177.65 28.356 177.346 27.52C177.042 26.6587 176.586 26.076 175.978 25.772L176.054 25.62C178.992 25.544 181.475 25.164 183.502 24.48L183.578 24.556C183.35 26.2027 183.236 28.5587 183.236 31.624V37.704C183.236 40.8453 184.464 42.416 186.922 42.416ZM196.612 38.806C196.612 41.466 197.296 43.0873 198.664 43.67V43.822C196.789 43.9487 194.332 44.468 191.292 45.38L191.178 45.266V31.624C191.178 29.7493 191.026 28.3813 190.722 27.52C190.418 26.6587 189.962 26.076 189.354 25.772L189.392 25.62C192.381 25.544 194.864 25.164 196.84 24.48L196.954 24.556C196.726 25.924 196.612 28.28 196.612 31.624V38.806ZM218.424 38.73C218.424 41.4153 219.121 43.0493 220.514 43.632V43.784C218.563 43.9107 216.093 44.4173 213.104 45.304L212.99 45.228V34.322L207.366 36.108C207.037 36.64 206.872 37.3493 206.872 38.236C206.872 39.528 207.163 40.5033 207.746 41.162C208.354 41.7953 209.139 42.112 210.102 42.112C211.141 42.112 211.901 41.7193 212.382 40.934L212.458 40.972C212.281 42.188 211.711 43.214 210.748 44.05C209.785 44.886 208.569 45.304 207.1 45.304C205.479 45.304 204.136 44.81 203.072 43.822C202.008 42.834 201.476 41.5547 201.476 39.984C201.476 38.6667 201.742 37.7167 202.274 37.134L212.99 33.6V32.612C212.99 29.876 212.686 27.9507 212.078 26.836C211.47 25.696 210.583 25.126 209.418 25.126C208.253 25.126 207.201 25.772 206.264 27.064C205.352 28.3307 204.757 30.1927 204.478 32.65L204.326 32.688L202.616 26.76C203.376 26.1013 204.389 25.5567 205.656 25.126C206.948 24.6953 208.202 24.48 209.418 24.48C212.306 24.48 214.523 25.2147 216.068 26.684C217.639 28.1533 218.424 30.294 218.424 33.106V38.73ZM230.524 39.832C230.524 41.6053 230.663 42.834 230.942 43.518C231.22 44.1767 231.702 44.62 232.386 44.848V45H223.266V44.848C223.975 44.6453 224.456 44.202 224.71 43.518C224.963 42.834 225.09 41.6053 225.09 39.832V21.782C225.09 19.8567 224.938 18.476 224.634 17.64C224.33 16.7787 223.874 16.196 223.266 15.892L223.342 15.74C226.28 15.6893 228.763 15.3093 230.79 14.6L230.866 14.676C230.638 16.3227 230.524 18.6913 230.524 21.782V39.832ZM248.243 30.636C251.967 30.7373 254.754 31.4087 256.603 32.65C258.478 33.8913 259.415 35.576 259.415 37.704C259.415 42.568 254.995 45 246.153 45H235.931V44.848C237.147 44.4427 237.755 42.606 237.755 39.338V23.036C237.755 19.768 237.147 17.9313 235.931 17.526V17.374H245.773C249.472 17.374 252.271 17.9947 254.171 19.236C256.071 20.4773 257.021 22.048 257.021 23.948C257.021 25.8733 256.236 27.406 254.665 28.546C253.12 29.686 250.979 30.3573 248.243 30.56V30.636ZM243.645 18.058V30.332H245.811C249.13 30.332 250.802 28.204 250.827 23.948C250.853 21.9973 250.409 20.528 249.497 19.54C248.611 18.552 247.369 18.058 245.773 18.058H243.645ZM246.153 44.316C250.865 44.316 253.221 42.112 253.221 37.704C253.221 33.2453 250.726 31.016 245.735 31.016H243.645V44.316H246.153ZM269.86 39.832C269.86 41.6053 269.999 42.834 270.278 43.518C270.556 44.1767 271.038 44.62 271.722 44.848V45H262.602V44.848C263.311 44.6453 263.792 44.202 264.046 43.518C264.299 42.834 264.426 41.6053 264.426 39.832V21.782C264.426 19.8567 264.274 18.476 263.97 17.64C263.666 16.7787 263.21 16.196 262.602 15.892L262.678 15.74C265.616 15.6893 268.099 15.3093 270.126 14.6L270.202 14.676C269.974 16.3227 269.86 18.6913 269.86 21.782V39.832ZM284.805 24.48C287.744 24.48 290.151 25.43 292.025 27.33C293.925 29.2047 294.875 31.7 294.875 34.816C294.875 38.0587 293.938 40.6173 292.063 42.492C290.189 44.3667 287.769 45.304 284.805 45.304C281.867 45.304 279.447 44.3667 277.547 42.492C275.673 40.6173 274.735 38.0587 274.735 34.816C274.735 31.7 275.685 29.2047 277.585 27.33C279.485 25.43 281.892 24.48 284.805 24.48ZM284.805 44.696C286.173 44.696 287.25 43.86 288.035 42.188C288.821 40.516 289.213 38.0587 289.213 34.816C289.213 31.7 288.821 29.306 288.035 27.634C287.25 25.962 286.173 25.126 284.805 25.126C283.437 25.126 282.361 25.962 281.575 27.634C280.79 29.2807 280.41 31.6747 280.435 34.816C280.41 38.0587 280.777 40.516 281.537 42.188C282.323 43.86 283.412 44.696 284.805 44.696ZM302.523 28.014C302.523 28.9767 302.878 29.8253 303.587 30.56C304.322 31.2947 305.196 31.9153 306.209 32.422C307.248 32.9287 308.287 33.4607 309.325 34.018C310.364 34.55 311.238 35.272 311.947 36.184C312.682 37.0707 313.049 38.122 313.049 39.338C313.049 41.2127 312.34 42.682 310.921 43.746C309.528 44.7847 307.577 45.304 305.069 45.304C303.955 45.304 302.688 45.1393 301.269 44.81C299.851 44.4553 298.774 44.0373 298.039 43.556L298.799 38.578L298.913 38.616C299.521 40.592 300.408 42.0993 301.573 43.138C302.739 44.1767 304.031 44.696 305.449 44.696C306.437 44.696 307.21 44.43 307.767 43.898C308.35 43.3407 308.641 42.6187 308.641 41.732C308.641 40.8453 308.287 40.0727 307.577 39.414C306.893 38.7553 306.057 38.1853 305.069 37.704C304.081 37.2227 303.093 36.716 302.105 36.184C301.117 35.6267 300.269 34.892 299.559 33.98C298.875 33.0427 298.533 31.9533 298.533 30.712C298.533 28.9387 299.179 27.4567 300.471 26.266C301.763 25.0753 303.499 24.48 305.677 24.48C306.969 24.48 308.211 24.6827 309.401 25.088C310.592 25.468 311.529 25.9367 312.213 26.494L310.997 31.282L310.883 31.244C310.326 29.116 309.591 27.5707 308.679 26.608C307.767 25.62 306.767 25.126 305.677 25.126C304.765 25.126 304.005 25.4047 303.397 25.962C302.815 26.494 302.523 27.178 302.523 28.014ZM320.484 28.014C320.484 28.9767 320.839 29.8253 321.548 30.56C322.283 31.2947 323.157 31.9153 324.17 32.422C325.209 32.9287 326.247 33.4607 327.286 34.018C328.325 34.55 329.199 35.272 329.908 36.184C330.643 37.0707 331.01 38.122 331.01 39.338C331.01 41.2127 330.301 42.682 328.882 43.746C327.489 44.7847 325.538 45.304 323.03 45.304C321.915 45.304 320.649 45.1393 319.23 44.81C317.811 44.4553 316.735 44.0373 316 43.556L316.76 38.578L316.874 38.616C317.482 40.592 318.369 42.0993 319.534 43.138C320.699 44.1767 321.991 44.696 323.41 44.696C324.398 44.696 325.171 44.43 325.728 43.898C326.311 43.3407 326.602 42.6187 326.602 41.732C326.602 40.8453 326.247 40.0727 325.538 39.414C324.854 38.7553 324.018 38.1853 323.03 37.704C322.042 37.2227 321.054 36.716 320.066 36.184C319.078 35.6267 318.229 34.892 317.52 33.98C316.836 33.0427 316.494 31.9533 316.494 30.712C316.494 28.9387 317.14 27.4567 318.432 26.266C319.724 25.0753 321.459 24.48 323.638 24.48C324.93 24.48 326.171 24.6827 327.362 25.088C328.553 25.468 329.49 25.9367 330.174 26.494L328.958 31.282L328.844 31.244C328.287 29.116 327.552 27.5707 326.64 26.608C325.728 25.62 324.727 25.126 323.638 25.126C322.726 25.126 321.966 25.4047 321.358 25.962C320.775 26.494 320.484 27.178 320.484 28.014ZM343.735 24.48C346.674 24.48 349.08 25.43 350.955 27.33C352.855 29.2047 353.805 31.7 353.805 34.816C353.805 38.0587 352.868 40.6173 350.993 42.492C349.118 44.3667 346.699 45.304 343.735 45.304C340.796 45.304 338.377 44.3667 336.477 42.492C334.602 40.6173 333.665 38.0587 333.665 34.816C333.665 31.7 334.615 29.2047 336.515 27.33C338.415 25.43 340.822 24.48 343.735 24.48ZM343.735 44.696C345.103 44.696 346.18 43.86 346.965 42.188C347.75 40.516 348.143 38.0587 348.143 34.816C348.143 31.7 347.75 29.306 346.965 27.634C346.18 25.962 345.103 25.126 343.735 25.126C342.367 25.126 341.29 25.962 340.505 27.634C339.72 29.2807 339.34 31.6747 339.365 34.816C339.34 38.0587 339.707 40.516 340.467 42.188C341.252 43.86 342.342 44.696 343.735 44.696ZM364.68 39.832C364.68 41.4787 364.82 42.682 365.098 43.442C365.402 44.1767 365.896 44.6453 366.58 44.848V45H357.574V44.848C358.208 44.62 358.638 44.1893 358.866 43.556C359.12 42.9227 359.246 41.6813 359.246 39.832V31.624C359.246 29.724 359.094 28.356 358.79 27.52C358.486 26.6587 358.03 26.076 357.422 25.772L357.498 25.62C360.437 25.544 362.92 25.164 364.946 24.48L365.022 24.556C364.794 25.924 364.68 28.28 364.68 31.624V39.832ZM377.6 39.832C377.6 41.4787 377.74 42.682 378.018 43.442C378.322 44.1767 378.829 44.6453 379.538 44.848V45H370.228V44.848C370.938 44.6453 371.432 44.1767 371.71 43.442C372.014 42.682 372.166 41.4787 372.166 39.832V32.08C372.166 28.9133 371.052 27.33 368.822 27.33C368.088 27.33 367.404 27.5327 366.77 27.938C366.162 28.3433 365.694 28.85 365.364 29.458L365.25 29.382C365.63 28.09 366.378 26.95 367.492 25.962C368.607 24.974 370.013 24.48 371.71 24.48C373.585 24.48 375.029 25.0373 376.042 26.152C377.081 27.2667 377.6 28.85 377.6 30.902V39.832ZM390.52 39.832C390.52 41.6813 390.634 42.9227 390.862 43.556C391.116 44.1893 391.546 44.62 392.154 44.848V45H383.148V44.848C383.858 44.6453 384.352 44.1767 384.63 43.442C384.934 42.682 385.086 41.4787 385.086 39.832V32.08C385.086 28.9133 383.972 27.33 381.742 27.33C381.008 27.33 380.324 27.5327 379.69 27.938C379.082 28.3433 378.614 28.85 378.284 29.458L378.17 29.382C378.55 28.09 379.298 26.95 380.412 25.962C381.527 24.974 382.933 24.48 384.63 24.48C386.505 24.48 387.949 25.0373 388.962 26.152C390.001 27.2667 390.52 28.85 390.52 30.902V39.832Z" fill="white"/>
</svg>
