<svg width="340" height="64" viewBox="0 0 340 64" fill="none" xmlns="http://www.w3.org/2000/svg">
<path fill-rule="evenodd" clip-rule="evenodd" d="M52.1094 30.0347C54.6908 25.8122 56.3697 21.0045 56.8944 15.8414C56.9574 15.277 56.4957 14.8171 55.95 14.8171C50.1367 14.9634 45.1209 16.5103 40.7766 18.8305C39.8322 12.1624 36.9361 6.12131 32.6758 1.31355C32.298 0.895483 31.6474 0.895483 31.2906 1.31355C27.0304 6.12131 24.1342 12.1624 23.1898 18.8305C18.8456 16.5103 13.8297 14.9634 8.01643 14.8171C7.44978 14.7962 7.00906 15.277 7.07202 15.8414C7.59669 21.0045 9.27563 25.8331 11.857 30.0347C6.54736 32.0832 2.64383 34.5289 0.39826 36.0967C-0.0844336 36.4311 -0.147394 37.1418 0.314313 37.539C6.33749 42.9739 14.3334 46.2766 23.1058 46.2766C26.1909 46.2766 29.171 45.8585 32.0042 45.106C34.8374 45.8794 37.8175 46.2766 40.9025 46.2766C49.675 46.2766 57.6709 42.9739 63.6941 37.539C64.1348 37.1418 64.0928 36.4311 63.6101 36.0967C61.3016 34.5289 57.4191 32.0832 52.1094 30.0347ZM41.0914 24.2863C44.0925 22.3423 47.4924 20.9209 51.144 20.2102C50.3256 23.1784 49.0244 25.9377 47.3664 28.4461C46.7368 28.2579 46.0863 28.0907 45.4147 27.9235C45.6246 26.8783 45.7715 25.8122 45.8764 24.7253C45.8974 24.4326 45.6036 24.2445 45.3517 24.3699C43.7987 25.1015 42.3087 26.0004 40.9235 27.0246C41.0075 26.1049 41.0704 25.1851 41.0914 24.2863ZM31.9832 8.48339C34.3967 12.3923 35.9077 16.9283 36.1805 21.7988C35.404 22.405 34.6485 23.0321 33.935 23.701C33.5362 22.0287 32.9906 20.4401 32.319 18.8932C32.1931 18.6006 31.7733 18.6006 31.6474 18.8932C30.9549 20.4192 30.4092 22.0287 30.0314 23.701C29.3179 23.0321 28.5624 22.405 27.7859 21.8197C28.0587 16.9492 29.5697 12.4132 31.9832 8.48339ZM22.854 24.2863C22.875 25.206 22.938 26.1049 23.0219 27.0037C21.6368 25.9795 20.1677 25.1015 18.6147 24.3699C18.3629 24.2445 18.069 24.4535 18.09 24.7253C18.174 25.8122 18.3419 26.8783 18.5517 27.9235C17.8802 28.0907 17.2296 28.2579 16.6 28.4461C14.942 25.9377 13.6409 23.1784 12.8224 20.2102C16.4531 20.9209 19.8529 22.3214 22.854 24.2863ZM23.0639 41.427C17.5024 41.427 12.2977 39.8802 7.86952 37.1837C10.0731 35.9922 12.3817 34.9679 14.7531 34.1109C15.0889 34.5289 15.4457 34.9261 15.8025 35.3024C15.0889 35.7413 14.3964 36.2221 13.7038 36.7238C13.452 36.9119 13.5149 37.2882 13.8087 37.3718C15.5087 37.9153 17.2925 38.2706 19.1184 38.4588C20.4405 39.5457 21.8466 40.5491 23.3157 41.427C23.2528 41.427 23.1688 41.427 23.0639 41.427ZM19.9159 32.564C21.217 32.2505 22.5602 31.9787 23.9033 31.7697C24.47 34.9679 27.2612 37.3927 30.6191 37.3927C32.8227 37.3927 34.7744 36.3475 36.0127 34.738C36.1386 34.5707 35.9497 34.3617 35.7818 34.4662C35.0892 34.8843 34.2708 35.1351 33.3893 35.1351C31.0808 35.1351 29.171 33.442 28.8352 31.2262C29.8845 31.1635 30.9339 31.1217 32.0042 31.1217C36.1596 31.1217 40.21 31.6234 44.0715 32.564C42.4975 35.0097 38.5311 39.044 32.0042 39.044C25.4144 39.044 21.4899 34.9679 19.9159 32.564ZM40.6087 41.427C42.0778 40.5491 43.4839 39.5457 44.8061 38.4588C46.6319 38.2706 48.4158 37.9153 50.1157 37.3718C50.4095 37.2882 50.4725 36.891 50.2206 36.7238C49.5491 36.2221 48.8355 35.7622 48.122 35.3024C48.4787 34.9052 48.8355 34.508 49.1713 34.1109C51.5638 34.9679 53.8513 35.9922 56.0549 37.1837C51.6267 39.8802 46.422 41.427 40.8606 41.427C40.7976 41.427 40.6927 41.427 40.6087 41.427Z" fill="#9F7FE5"/>
<path d="M83.984 41.472C83.0773 41.472 82.192 41.344 81.328 41.088C80.464 40.832 79.552 40.432 78.592 39.888L77.376 41.184H76.608L76 33.072L77.024 32.88C77.6747 35.344 78.5387 37.1307 79.616 38.24C80.6933 39.3493 82.1173 39.904 83.888 39.904C85.3067 39.904 86.4267 39.568 87.248 38.896C88.08 38.2133 88.496 37.2853 88.496 36.112C88.496 35.2693 88.208 34.5067 87.632 33.824C87.056 33.1307 86.1013 32.4213 84.768 31.696L82.272 30.416C80.2453 29.3493 78.7787 28.2507 77.872 27.12C76.976 25.9893 76.528 24.672 76.528 23.168C76.528 21.888 76.8533 20.7467 77.504 19.744C78.1653 18.7307 79.0613 17.936 80.192 17.36C81.3333 16.7733 82.6187 16.48 84.048 16.48C86.0107 16.48 87.712 17.136 89.152 18.448L90.048 16.784H90.864L91.152 23.776H90.08C89.5787 21.8453 88.8427 20.4107 87.872 19.472C86.912 18.5333 85.6853 18.064 84.192 18.064C83.04 18.064 82.1333 18.3627 81.472 18.96C80.8107 19.5573 80.48 20.3787 80.48 21.424C80.48 22.3307 80.7893 23.1413 81.408 23.856C82.0267 24.56 83.0773 25.296 84.56 26.064L86.992 27.36C88.752 28.2773 90.0213 29.2907 90.8 30.4C91.5787 31.5093 91.968 32.8053 91.968 34.288C91.968 35.6533 91.616 36.88 90.912 37.968C90.208 39.0453 89.2533 39.8987 88.048 40.528C86.8427 41.1573 85.488 41.472 83.984 41.472Z" fill="white"/>
<path d="M94.1567 49.104V48.432L96.7008 47.808V27.04L94.2367 26.176V25.6L99.8207 24.08H100.333V26.688H100.461C101.09 25.8133 101.874 25.1627 102.813 24.736C103.751 24.2987 104.711 24.08 105.693 24.08C107.047 24.08 108.237 24.4427 109.261 25.168C110.285 25.8933 111.09 26.8907 111.677 28.16C112.263 29.4187 112.557 30.8587 112.557 32.48C112.557 34.272 112.178 35.8507 111.421 37.216C110.663 38.5707 109.613 39.6267 108.269 40.384C106.925 41.1413 105.351 41.52 103.549 41.52C103.015 41.52 102.498 41.4773 101.997 41.392C101.506 41.3173 101.015 41.1947 100.525 41.024V47.808L104.109 48.432V49.104H94.1567ZM103.661 40.24C104.599 40.24 105.421 39.936 106.125 39.328C106.839 38.7093 107.394 37.856 107.789 36.768C108.183 35.68 108.381 34.4267 108.381 33.008C108.381 30.9387 107.981 29.3067 107.181 28.112C106.391 26.9173 105.314 26.32 103.949 26.32C103.298 26.32 102.642 26.496 101.981 26.848C101.33 27.2 100.871 27.6373 100.605 28.16V36.96C100.605 37.8987 100.898 38.6827 101.485 39.312C102.082 39.9307 102.807 40.24 103.661 40.24Z" fill="white"/>
<path d="M114.821 41.184V40.336L117.333 39.808V27.04L114.853 26.176V25.6L120.709 24.08H121.157V39.808L123.605 40.336V41.184H114.821ZM119.221 21.056C118.496 21.056 117.925 20.8267 117.509 20.368C117.093 19.9093 116.885 19.3867 116.885 18.8C116.885 18.16 117.093 17.616 117.509 17.168C117.936 16.7093 118.507 16.48 119.221 16.48C119.947 16.48 120.523 16.7093 120.949 17.168C121.376 17.616 121.589 18.16 121.589 18.8C121.589 19.3867 121.381 19.9093 120.965 20.368C120.549 20.8267 119.968 21.056 119.221 21.056Z" fill="white"/>
<path d="M125.182 41.184V40.336L127.582 39.808V27.04L125.214 26.16V25.6L130.798 24.064H131.262V27.344L131.39 27.488V39.808L134.974 40.336V41.184H125.182ZM131.102 29.088L131.086 27.488C131.886 26.3893 132.686 25.5413 133.486 24.944C134.286 24.3467 135.043 24.048 135.758 24.048C136.408 24.048 136.958 24.256 137.406 24.672C137.854 25.088 138.078 25.5947 138.078 26.192C138.078 26.7573 137.896 27.232 137.534 27.616C137.171 27.9893 136.723 28.176 136.19 28.176C135.646 28.176 135.192 27.9787 134.83 27.584C134.584 27.3387 134.371 27.168 134.19 27.072C134.019 26.9653 133.822 26.912 133.598 26.912C133.267 26.912 132.862 27.1147 132.382 27.52C131.902 27.9253 131.475 28.448 131.102 29.088Z" fill="white"/>
<path d="M139.321 41.184V40.336L141.833 39.808V27.04L139.353 26.176V25.6L145.209 24.08H145.657V39.808L148.105 40.336V41.184H139.321ZM143.721 21.056C142.996 21.056 142.425 20.8267 142.009 20.368C141.593 19.9093 141.385 19.3867 141.385 18.8C141.385 18.16 141.593 17.616 142.009 17.168C142.436 16.7093 143.007 16.48 143.721 16.48C144.447 16.48 145.023 16.7093 145.449 17.168C145.876 17.616 146.089 18.16 146.089 18.8C146.089 19.3867 145.881 19.9093 145.465 20.368C145.049 20.8267 144.468 21.056 143.721 21.056Z" fill="white"/>
<path d="M155.682 41.52C154.348 41.52 153.356 41.1787 152.706 40.496C152.066 39.8027 151.746 38.7733 151.746 37.408V25.712H149.618L149.49 25.008L154.818 20.208L155.554 20.304V24.4H160.242L159.906 25.712H155.554V37.088C155.554 38.8267 156.194 39.696 157.474 39.696C157.89 39.696 158.29 39.6 158.674 39.408C159.068 39.216 159.41 38.9333 159.698 38.56L160.322 39.232C159.81 39.9467 159.143 40.5067 158.322 40.912C157.511 41.3173 156.631 41.52 155.682 41.52Z" fill="white"/>
<path d="M168.326 41.52C166.705 41.52 165.5 41.12 164.71 40.32C163.932 39.5093 163.542 38.3307 163.542 36.784V25.776L161.174 25.232V24.4H167.35V35.568C167.35 36.9867 167.601 37.9573 168.102 38.48C168.614 38.992 169.398 39.248 170.454 39.248C171.158 39.248 171.846 39.0613 172.518 38.688C173.19 38.304 173.782 37.712 174.294 36.912V38.512C173.505 39.4613 172.593 40.2027 171.558 40.736C170.524 41.2587 169.446 41.52 168.326 41.52ZM173.974 41.52V38.64L173.814 38.528V25.776L171.494 25.232V24.4H177.622V38.624L179.878 39.424V39.952L174.39 41.52H173.974Z" fill="white"/>
<path d="M186.129 41.52C184.934 41.52 183.974 41.1733 183.249 40.48C182.534 39.776 182.177 38.848 182.177 37.696C182.177 36.7147 182.476 35.872 183.073 35.168C183.681 34.4533 184.641 33.84 185.953 33.328C187.265 32.8053 188.982 32.352 191.105 31.968V29.2C191.105 27.824 190.934 26.8747 190.593 26.352C190.262 25.8187 189.67 25.552 188.817 25.552C187.964 25.552 187.286 25.76 186.785 26.176C186.284 26.5813 186.033 27.136 186.033 27.84C186.033 28.0533 186.049 28.2667 186.081 28.48C186.113 28.6933 186.129 28.896 186.129 29.088C186.129 29.6533 185.948 30.1227 185.585 30.496C185.233 30.8587 184.79 31.04 184.257 31.04C183.745 31.04 183.329 30.8747 183.009 30.544C182.689 30.2133 182.529 29.7813 182.529 29.248C182.529 28.5653 182.801 27.872 183.345 27.168C183.9 26.4533 184.641 25.8347 185.569 25.312C186.998 24.4907 188.62 24.08 190.433 24.08C191.436 24.08 192.268 24.224 192.929 24.512C193.59 24.7893 194.076 25.1893 194.385 25.712C194.577 26.0853 194.71 26.5653 194.785 27.152C194.87 27.728 194.913 28.6453 194.913 29.904V36.848C194.913 37.8507 194.998 38.5493 195.169 38.944C195.34 39.328 195.649 39.52 196.097 39.52C196.609 39.52 197.105 39.2373 197.585 38.672L198.209 39.376C197.633 40.1227 197.041 40.6667 196.433 41.008C195.825 41.3493 195.132 41.52 194.353 41.52C193.436 41.52 192.726 41.296 192.225 40.848C191.724 40.3893 191.393 39.7013 191.233 38.784H191.137C190.465 39.648 189.697 40.32 188.833 40.8C187.98 41.28 187.078 41.52 186.129 41.52ZM188.161 39.168C188.748 39.168 189.292 39.0293 189.793 38.752C190.305 38.464 190.742 38.064 191.105 37.552V33.12C189.804 33.376 188.785 33.6587 188.049 33.968C187.313 34.2667 186.79 34.64 186.481 35.088C186.182 35.5253 186.033 36.0853 186.033 36.768C186.033 37.5467 186.209 38.144 186.561 38.56C186.924 38.9653 187.457 39.168 188.161 39.168Z" fill="white"/>
<path d="M198.846 41.184V40.336L201.374 39.808V17.84L198.879 16.992V16.4L204.734 14.896H205.182V39.808L207.63 40.336V41.184H198.846Z" fill="white"/>
<path d="M209.74 41.184V40.288L212.46 39.616V18.352L209.74 17.712V16.816H219.676C221.191 16.816 222.45 16.9227 223.452 17.136C224.466 17.3387 225.308 17.6587 225.98 18.096C226.759 18.6187 227.362 19.2853 227.788 20.096C228.226 20.9067 228.444 21.7813 228.444 22.72C228.444 24.0533 227.97 25.184 227.02 26.112C226.071 27.0293 224.716 27.6587 222.956 28V28.112C224.279 28.2507 225.436 28.6187 226.428 29.216C227.431 29.8133 228.204 30.5867 228.748 31.536C229.303 32.4747 229.58 33.536 229.58 34.72C229.58 35.6907 229.383 36.5973 228.988 37.44C228.594 38.2827 228.05 38.976 227.356 39.52C226.599 40.1173 225.671 40.544 224.572 40.8C223.474 41.056 222.023 41.184 220.22 41.184H209.74ZM219.324 39.776C221.234 39.776 222.647 39.344 223.564 38.48C224.482 37.616 224.94 36.272 224.94 34.448C224.94 32.56 224.434 31.1733 223.42 30.288C222.418 29.392 220.85 28.944 218.716 28.944H216.668V37.888C216.668 38.6347 216.855 39.136 217.228 39.392C217.612 39.648 218.311 39.776 219.324 39.776ZM216.668 27.488H217.964C218.476 27.488 218.903 27.4827 219.244 27.472C219.596 27.4507 219.916 27.424 220.204 27.392C221.41 27.264 222.338 26.8 222.988 26C223.639 25.2 223.964 24.112 223.964 22.736C223.964 21.9787 223.858 21.3387 223.644 20.816C223.442 20.2827 223.132 19.824 222.716 19.44C222.258 19.0027 221.698 18.6987 221.036 18.528C220.386 18.3467 219.538 18.256 218.492 18.256H216.668V27.488Z" fill="white"/>
<path d="M231.565 41.184V40.336L234.093 39.808V17.84L231.597 16.992V16.4L237.453 14.896H237.901V39.808L240.349 40.336V41.184H231.565Z" fill="white"/>
<path d="M250.955 41.52C249.216 41.52 247.696 41.136 246.395 40.368C245.104 39.5893 244.102 38.544 243.387 37.232C242.672 35.9093 242.315 34.432 242.315 32.8C242.315 31.1573 242.672 29.68 243.387 28.368C244.102 27.056 245.104 26.016 246.395 25.248C247.696 24.4693 249.216 24.08 250.955 24.08C252.694 24.08 254.203 24.4693 255.483 25.248C256.774 26.016 257.776 27.056 258.491 28.368C259.216 29.68 259.579 31.1573 259.579 32.8C259.579 34.432 259.216 35.9093 258.491 37.232C257.776 38.544 256.774 39.5893 255.483 40.368C254.203 41.136 252.694 41.52 250.955 41.52ZM250.923 40C251.702 40 252.368 39.808 252.923 39.424C253.488 39.04 253.952 38.512 254.315 37.84C254.678 37.168 254.944 36.4 255.115 35.536C255.296 34.672 255.387 33.7547 255.387 32.784C255.387 31.824 255.302 30.912 255.131 30.048C254.96 29.184 254.694 28.4213 254.331 27.76C253.979 27.088 253.52 26.56 252.955 26.176C252.4 25.792 251.734 25.6 250.955 25.6C250.176 25.6 249.504 25.792 248.939 26.176C248.374 26.56 247.91 27.088 247.547 27.76C247.195 28.4213 246.934 29.184 246.763 30.048C246.592 30.912 246.507 31.8293 246.507 32.8C246.507 33.7707 246.592 34.688 246.763 35.552C246.934 36.416 247.195 37.184 247.547 37.856C247.91 38.5173 248.368 39.04 248.923 39.424C249.488 39.808 250.155 40 250.923 40Z" fill="white"/>
<path d="M267.391 41.52C266.665 41.52 265.876 41.456 265.023 41.328C264.169 41.2 263.428 41.0293 262.799 40.816L262.591 35.68H263.599C263.727 37.1947 264.116 38.3413 264.767 39.12C265.428 39.8987 266.34 40.288 267.503 40.288C268.399 40.288 269.113 40.048 269.647 39.568C270.18 39.0773 270.447 38.4373 270.447 37.648C270.447 36.9973 270.244 36.4373 269.839 35.968C269.444 35.488 268.751 34.992 267.759 34.48L266.367 33.776C265.033 33.104 264.073 32.384 263.487 31.616C262.9 30.8373 262.607 29.9093 262.607 28.832C262.607 27.296 263.151 26.1227 264.239 25.312C265.327 24.4907 266.895 24.08 268.943 24.08C269.711 24.08 270.452 24.1333 271.167 24.24C271.881 24.336 272.447 24.4693 272.863 24.64V29.024H271.967C271.657 26.5387 270.5 25.296 268.495 25.296C267.705 25.296 267.071 25.504 266.591 25.92C266.111 26.336 265.871 26.8907 265.871 27.584C265.871 28.192 266.079 28.72 266.495 29.168C266.921 29.6053 267.641 30.0693 268.655 30.56L270.127 31.296C271.364 31.9147 272.26 32.608 272.815 33.376C273.38 34.144 273.663 35.0987 273.663 36.24C273.663 37.872 273.103 39.1627 271.983 40.112C270.873 41.0507 269.343 41.52 267.391 41.52Z" fill="white"/>
<path d="M281.641 41.52C280.915 41.52 280.126 41.456 279.273 41.328C278.419 41.2 277.678 41.0293 277.049 40.816L276.841 35.68H277.849C277.977 37.1947 278.366 38.3413 279.017 39.12C279.678 39.8987 280.59 40.288 281.753 40.288C282.649 40.288 283.363 40.048 283.897 39.568C284.43 39.0773 284.697 38.4373 284.697 37.648C284.697 36.9973 284.494 36.4373 284.089 35.968C283.694 35.488 283.001 34.992 282.009 34.48L280.617 33.776C279.283 33.104 278.323 32.384 277.737 31.616C277.15 30.8373 276.857 29.9093 276.857 28.832C276.857 27.296 277.401 26.1227 278.489 25.312C279.577 24.4907 281.145 24.08 283.193 24.08C283.961 24.08 284.702 24.1333 285.417 24.24C286.131 24.336 286.697 24.4693 287.113 24.64V29.024H286.217C285.907 26.5387 284.75 25.296 282.745 25.296C281.955 25.296 281.321 25.504 280.841 25.92C280.361 26.336 280.121 26.8907 280.121 27.584C280.121 28.192 280.329 28.72 280.745 29.168C281.171 29.6053 281.891 30.0693 282.905 30.56L284.377 31.296C285.614 31.9147 286.51 32.608 287.065 33.376C287.63 34.144 287.913 35.0987 287.913 36.24C287.913 37.872 287.353 39.1627 286.233 40.112C285.123 41.0507 283.593 41.52 281.641 41.52Z" fill="white"/>
<path d="M299.299 41.52C297.56 41.52 296.04 41.136 294.739 40.368C293.448 39.5893 292.445 38.544 291.731 37.232C291.016 35.9093 290.659 34.432 290.659 32.8C290.659 31.1573 291.016 29.68 291.731 28.368C292.445 27.056 293.448 26.016 294.739 25.248C296.04 24.4693 297.56 24.08 299.299 24.08C301.037 24.08 302.547 24.4693 303.827 25.248C305.117 26.016 306.12 27.056 306.835 28.368C307.56 29.68 307.923 31.1573 307.923 32.8C307.923 34.432 307.56 35.9093 306.835 37.232C306.12 38.544 305.117 39.5893 303.827 40.368C302.547 41.136 301.037 41.52 299.299 41.52ZM299.267 40C300.045 40 300.712 39.808 301.267 39.424C301.832 39.04 302.296 38.512 302.659 37.84C303.021 37.168 303.288 36.4 303.459 35.536C303.64 34.672 303.731 33.7547 303.731 32.784C303.731 31.824 303.645 30.912 303.475 30.048C303.304 29.184 303.037 28.4213 302.675 27.76C302.323 27.088 301.864 26.56 301.299 26.176C300.744 25.792 300.077 25.6 299.299 25.6C298.52 25.6 297.848 25.792 297.283 26.176C296.717 26.56 296.253 27.088 295.891 27.76C295.539 28.4213 295.277 29.184 295.107 30.048C294.936 30.912 294.851 31.8293 294.851 32.8C294.851 33.7707 294.936 34.688 295.107 35.552C295.277 36.416 295.539 37.184 295.891 37.856C296.253 38.5173 296.712 39.04 297.267 39.424C297.832 39.808 298.499 40 299.267 40Z" fill="white"/>
<path d="M310.135 41.184V40.336L312.518 39.808V27.072L310.167 26.176V25.632L315.479 24.08H316.199V26.672L316.342 26.832V39.808L318.646 40.336V41.184H310.135ZM320.406 41.184V40.336L322.727 39.824V30.528C322.727 29.0133 322.492 27.9253 322.023 27.264C321.564 26.6027 320.812 26.272 319.766 26.272C318.966 26.272 318.23 26.464 317.559 26.848C316.897 27.2213 316.311 27.7653 315.799 28.48V26.896C316.641 26.0213 317.617 25.3333 318.727 24.832C319.846 24.3307 320.956 24.08 322.055 24.08C323.58 24.08 324.705 24.496 325.43 25.328C326.167 26.1493 326.535 27.44 326.535 29.2V39.824L328.855 40.336V41.184H320.406ZM330.615 41.184V40.336L332.918 39.824V30.464C332.918 28.9387 332.694 27.8613 332.246 27.232C331.809 26.6027 331.062 26.288 330.007 26.288C329.174 26.288 328.423 26.4747 327.751 26.848C327.089 27.2213 326.508 27.7707 326.007 28.496V26.896C326.796 25.9893 327.756 25.296 328.887 24.816C330.028 24.3253 331.174 24.08 332.327 24.08C333.82 24.08 334.918 24.5013 335.622 25.344C336.327 26.176 336.689 27.4933 336.711 29.296V39.824L339.03 40.336V41.184H330.615Z" fill="white"/>
</svg>
